<svg xmlns="http://www.w3.org/2000/svg" xmlns:xlink="http://www.w3.org/1999/xlink" version="1.1" width="796.20626pt" height="363.90263pt" viewBox="0 0 796.20626 363.90263">
<defs>
<clipPath id="clip_0">
<path transform="matrix(1,0,0,-1,0,363.90263)" d="M78.575 50.1375H435.695V316.2495H78.575Z"/>
</clipPath>
<clipPath id="clip_1">
<path transform="matrix(1,0,0,-1,0,363.90263)" d="M78.575 50.1375H435.695V316.2495H78.575Z"/>
</clipPath>
<clipPath id="clip_2">
<path transform="matrix(1,0,0,-1,94.807727,293.69996)" d="M-8-8H8V8H-8Z"/>
</clipPath>
<clipPath id="clip_3">
<path transform="matrix(1,0,0,-1,111.894809,293.69996)" d="M-8-8H8V8H-8Z"/>
</clipPath>
<clipPath id="clip_4">
<path transform="matrix(1,0,0,-1,128.98189,293.69996)" d="M-8-8H8V8H-8Z"/>
</clipPath>
<clipPath id="clip_5">
<path transform="matrix(1,0,0,-1,146.06897,293.69996)" d="M-8-8H8V8H-8Z"/>
</clipPath>
<clipPath id="clip_6">
<path transform="matrix(1,0,0,-1,163.15605,293.69996)" d="M-8-8H8V8H-8Z"/>
</clipPath>
<clipPath id="clip_7">
<path transform="matrix(1,0,0,-1,180.24314,293.69996)" d="M-8-8H8V8H-8Z"/>
</clipPath>
<clipPath id="clip_8">
<path transform="matrix(1,0,0,-1,197.33022,293.69996)" d="M-8-8H8V8H-8Z"/>
</clipPath>
<clipPath id="clip_9">
<path transform="matrix(1,0,0,-1,214.4173,59.74913)" d="M-8-8H8V8H-8Z"/>
</clipPath>
<clipPath id="clip_10">
<path transform="matrix(1,0,0,-1,231.50438,293.69996)" d="M-8-8H8V8H-8Z"/>
</clipPath>
<clipPath id="clip_11">
<path transform="matrix(1,0,0,-1,248.59146,293.69996)" d="M-8-8H8V8H-8Z"/>
</clipPath>
<clipPath id="clip_12">
<path transform="matrix(1,0,0,-1,265.67854,293.69996)" d="M-8-8H8V8H-8Z"/>
</clipPath>
<clipPath id="clip_13">
<path transform="matrix(1,0,0,-1,282.76564,293.69996)" d="M-8-8H8V8H-8Z"/>
</clipPath>
<clipPath id="clip_14">
<path transform="matrix(1,0,0,-1,299.85273,293.69996)" d="M-8-8H8V8H-8Z"/>
</clipPath>
<clipPath id="clip_15">
<path transform="matrix(1,0,0,-1,316.93983,293.69996)" d="M-8-8H8V8H-8Z"/>
</clipPath>
<clipPath id="clip_16">
<path transform="matrix(1,0,0,-1,334.02693,293.69996)" d="M-8-8H8V8H-8Z"/>
</clipPath>
<clipPath id="clip_17">
<path transform="matrix(1,0,0,-1,351.114,293.69996)" d="M-8-8H8V8H-8Z"/>
</clipPath>
<clipPath id="clip_18">
<path transform="matrix(1,0,0,-1,368.2011,293.69996)" d="M-8-8H8V8H-8Z"/>
</clipPath>
<clipPath id="clip_19">
<path transform="matrix(1,0,0,-1,385.2882,293.69996)" d="M-8-8H8V8H-8Z"/>
</clipPath>
<clipPath id="clip_20">
<path transform="matrix(1,0,0,-1,402.3753,293.69996)" d="M-8-8H8V8H-8Z"/>
</clipPath>
<clipPath id="clip_21">
<path transform="matrix(1,0,0,-1,419.4624,293.69996)" d="M-8-8H8V8H-8Z"/>
</clipPath>
<clipPath id="clip_22">
<path transform="matrix(1,0,0,-1,0,363.90263)" d="M78.575 50.1375H435.695V316.2495H78.575Z"/>
</clipPath>
<clipPath id="clip_23">
<path transform="matrix(1,0,0,-1,94.807727,293.69996)" d="M-8-8H8V8H-8Z"/>
</clipPath>
<clipPath id="clip_24">
<path transform="matrix(1,0,0,-1,111.894809,274.46067)" d="M-8-8H8V8H-8Z"/>
</clipPath>
<clipPath id="clip_25">
<path transform="matrix(1,0,0,-1,128.98189,231.50507)" d="M-8-8H8V8H-8Z"/>
</clipPath>
<clipPath id="clip_26">
<path transform="matrix(1,0,0,-1,146.06897,198.4617)" d="M-8-8H8V8H-8Z"/>
</clipPath>
<clipPath id="clip_27">
<path transform="matrix(1,0,0,-1,163.15605,183.75713)" d="M-8-8H8V8H-8Z"/>
</clipPath>
<clipPath id="clip_28">
<path transform="matrix(1,0,0,-1,180.24314,195.68991)" d="M-8-8H8V8H-8Z"/>
</clipPath>
<clipPath id="clip_29">
<path transform="matrix(1,0,0,-1,197.33022,226.15013)" d="M-8-8H8V8H-8Z"/>
</clipPath>
<clipPath id="clip_30">
<path transform="matrix(1,0,0,-1,214.4173,253.9252)" d="M-8-8H8V8H-8Z"/>
</clipPath>
<clipPath id="clip_31">
<path transform="matrix(1,0,0,-1,231.50438,268.6675)" d="M-8-8H8V8H-8Z"/>
</clipPath>
<clipPath id="clip_32">
<path transform="matrix(1,0,0,-1,248.59146,274.18028)" d="M-8-8H8V8H-8Z"/>
</clipPath>
<clipPath id="clip_33">
<path transform="matrix(1,0,0,-1,265.67854,278.19328)" d="M-8-8H8V8H-8Z"/>
</clipPath>
<clipPath id="clip_34">
<path transform="matrix(1,0,0,-1,282.76564,279.74903)" d="M-8-8H8V8H-8Z"/>
</clipPath>
<clipPath id="clip_35">
<path transform="matrix(1,0,0,-1,299.85273,281.5928)" d="M-8-8H8V8H-8Z"/>
</clipPath>
<clipPath id="clip_36">
<path transform="matrix(1,0,0,-1,316.93983,282.28184)" d="M-8-8H8V8H-8Z"/>
</clipPath>
<clipPath id="clip_37">
<path transform="matrix(1,0,0,-1,334.02693,283.49119)" d="M-8-8H8V8H-8Z"/>
</clipPath>
<clipPath id="clip_38">
<path transform="matrix(1,0,0,-1,351.114,284.68116)" d="M-8-8H8V8H-8Z"/>
</clipPath>
<clipPath id="clip_39">
<path transform="matrix(1,0,0,-1,368.2011,286.0464)" d="M-8-8H8V8H-8Z"/>
</clipPath>
<clipPath id="clip_40">
<path transform="matrix(1,0,0,-1,385.2882,287.36967)" d="M-8-8H8V8H-8Z"/>
</clipPath>
<clipPath id="clip_41">
<path transform="matrix(1,0,0,-1,402.3753,288.98863)" d="M-8-8H8V8H-8Z"/>
</clipPath>
<clipPath id="clip_42">
<path transform="matrix(1,0,0,-1,419.4624,290.1691)" d="M-8-8H8V8H-8Z"/>
</clipPath>
</defs>
<path transform="matrix(1,0,0,-1,0,363.90263)" d="M0 0H796.20626V363.90263H0Z" fill="#ffffff"/>
<path transform="matrix(1,0,0,-1,0,363.90263)" d="M78.575 50.1375H435.695V316.2495H78.575Z" fill="#ffffff"/>
<path transform="matrix(1,0,0,-1,0,363.90263)" d="M163.15605 50.1375V46.6375"/>
<path transform="matrix(1,0,0,-1,0,363.90263)" stroke-width=".8" stroke-linecap="butt" stroke-linejoin="round" fill="none" stroke="#000000" d="M163.15605 50.1375V46.6375"/>
<text xml:space="preserve" transform="matrix(1 0 -0 1 153.60918 332.15574)" font-size="15" font-family="DejaVuSans"><tspan y="0" x="0 9.540001">10</tspan></text>
<path transform="matrix(1,0,0,-1,0,363.90263)" d="M248.59146 50.1375V46.6375"/>
<path transform="matrix(1,0,0,-1,0,363.90263)" stroke-width=".8" stroke-linecap="butt" stroke-linejoin="round" fill="none" stroke="#000000" d="M248.59146 50.1375V46.6375"/>
<text xml:space="preserve" transform="matrix(1 0 -0 1 239.04459 332.15574)" font-size="15" font-family="DejaVuSans"><tspan y="0" x="0 9.540001">20</tspan></text>
<path transform="matrix(1,0,0,-1,0,363.90263)" d="M334.02687 50.1375V46.6375"/>
<path transform="matrix(1,0,0,-1,0,363.90263)" stroke-width=".8" stroke-linecap="butt" stroke-linejoin="round" fill="none" stroke="#000000" d="M334.02687 50.1375V46.6375"/>
<text xml:space="preserve" transform="matrix(1 0 -0 1 324.47999 332.15574)" font-size="15" font-family="DejaVuSans"><tspan y="0" x="0 9.540001">30</tspan></text>
<path transform="matrix(1,0,0,-1,0,363.90263)" d="M419.46229 50.1375V46.6375"/>
<path transform="matrix(1,0,0,-1,0,363.90263)" stroke-width=".8" stroke-linecap="butt" stroke-linejoin="round" fill="none" stroke="#000000" d="M419.46229 50.1375V46.6375"/>
<text xml:space="preserve" transform="matrix(1 0 -0 1 409.9154 332.15574)" font-size="15" font-family="DejaVuSans"><tspan y="0" x="0 9.540001">40</tspan></text>
<text xml:space="preserve" transform="matrix(1 0 -0 1 211.73656 352.9526)" font-size="18" font-family="DejaVuSans"><tspan y="0" x="0 10.451125 15.455126 32.98713 44.05713 49.781129 56.80113 74.33313 83.71113">Time [ms]</tspan></text>
<path transform="matrix(1,0,0,-1,0,363.90263)" d="M78.575 70.20268H75.075"/>
<path transform="matrix(1,0,0,-1,0,363.90263)" stroke-width=".8" stroke-linecap="butt" stroke-linejoin="round" fill="none" stroke="#000000" d="M78.575 70.20268H75.075"/>
<text xml:space="preserve" transform="matrix(1 0 -0 1 28.621876 299.39527)" font-size="15" font-family="DejaVuSans"><tspan y="0" x="0 9.540001 14.310001 23.850003 33.390005">0.000</tspan></text>
<path transform="matrix(1,0,0,-1,0,363.90263)" d="M78.575 126.350879H75.075"/>
<path transform="matrix(1,0,0,-1,0,363.90263)" stroke-width=".8" stroke-linecap="butt" stroke-linejoin="round" fill="none" stroke="#000000" d="M78.575 126.350879H75.075"/>
<text xml:space="preserve" transform="matrix(1 0 -0 1 28.621876 243.24706)" font-size="15" font-family="DejaVuSans"><tspan y="0" x="0 9.540001 14.310001 23.850003 33.390005">0.002</tspan></text>
<path transform="matrix(1,0,0,-1,0,363.90263)" d="M78.575 182.49907H75.075"/>
<path transform="matrix(1,0,0,-1,0,363.90263)" stroke-width=".8" stroke-linecap="butt" stroke-linejoin="round" fill="none" stroke="#000000" d="M78.575 182.49907H75.075"/>
<text xml:space="preserve" transform="matrix(1 0 -0 1 28.621876 187.09886)" font-size="15" font-family="DejaVuSans"><tspan y="0" x="0 9.540001 14.310001 23.850003 33.390005">0.004</tspan></text>
<path transform="matrix(1,0,0,-1,0,363.90263)" d="M78.575 238.64727H75.075"/>
<path transform="matrix(1,0,0,-1,0,363.90263)" stroke-width=".8" stroke-linecap="butt" stroke-linejoin="round" fill="none" stroke="#000000" d="M78.575 238.64727H75.075"/>
<text xml:space="preserve" transform="matrix(1 0 -0 1 28.621876 130.95067)" font-size="15" font-family="DejaVuSans"><tspan y="0" x="0 9.540001 14.310001 23.850003 33.390005">0.006</tspan></text>
<path transform="matrix(1,0,0,-1,0,363.90263)" d="M78.575 294.79548H75.075"/>
<path transform="matrix(1,0,0,-1,0,363.90263)" stroke-width=".8" stroke-linecap="butt" stroke-linejoin="round" fill="none" stroke="#000000" d="M78.575 294.79548H75.075"/>
<text xml:space="preserve" transform="matrix(1 0 -0 1 28.621876 74.80246)" font-size="15" font-family="DejaVuSans"><tspan y="0" x="0 9.540001 14.310001 23.850003 33.390005">0.008</tspan></text>
<text xml:space="preserve" transform="matrix(0 -1 1 0 20.871876 222.16225)" font-size="18" font-family="DejaVuSans"><tspan y="0" x="0 5.3100006 16.740002 29.250004 34.974004 41.994005 53.028005 58.752004 70.164 75.888">ISR [a.u.]</tspan></text>
<g clip-path="url(#clip_0)">
<path transform="matrix(1,0,0,-1,0,363.90263)" stroke-width=".5" stroke-linecap="butt" stroke-linejoin="round" fill="none" stroke="#ff0000" d="M94.807727 70.20268V70.20268"/>
<path transform="matrix(1,0,0,-1,0,363.90263)" stroke-width=".5" stroke-linecap="butt" stroke-linejoin="round" fill="none" stroke="#ff0000" d="M111.894809 62.2335V116.65047"/>
<path transform="matrix(1,0,0,-1,0,363.90263)" stroke-width=".5" stroke-linecap="butt" stroke-linejoin="round" fill="none" stroke="#ff0000" d="M128.98189 103.65561V161.13956"/>
<path transform="matrix(1,0,0,-1,0,363.90263)" stroke-width=".5" stroke-linecap="butt" stroke-linejoin="round" fill="none" stroke="#ff0000" d="M146.06897 142.29193V188.58997"/>
<path transform="matrix(1,0,0,-1,0,363.90263)" stroke-width=".5" stroke-linecap="butt" stroke-linejoin="round" fill="none" stroke="#ff0000" d="M163.15605 145.5916V214.69945"/>
<path transform="matrix(1,0,0,-1,0,363.90263)" stroke-width=".5" stroke-linecap="butt" stroke-linejoin="round" fill="none" stroke="#ff0000" d="M180.24314 133.42034V203.00513"/>
<path transform="matrix(1,0,0,-1,0,363.90263)" stroke-width=".5" stroke-linecap="butt" stroke-linejoin="round" fill="none" stroke="#ff0000" d="M197.33022 111.74901V163.75601"/>
<path transform="matrix(1,0,0,-1,0,363.90263)" stroke-width=".5" stroke-linecap="butt" stroke-linejoin="round" fill="none" stroke="#ff0000" d="M214.4173 87.38987V132.56502"/>
<path transform="matrix(1,0,0,-1,0,363.90263)" stroke-width=".5" stroke-linecap="butt" stroke-linejoin="round" fill="none" stroke="#ff0000" d="M231.50438 77.523V112.94728"/>
<path transform="matrix(1,0,0,-1,0,363.90263)" stroke-width=".5" stroke-linecap="butt" stroke-linejoin="round" fill="none" stroke="#ff0000" d="M248.59146 76.62532V102.81944"/>
<path transform="matrix(1,0,0,-1,0,363.90263)" stroke-width=".5" stroke-linecap="butt" stroke-linejoin="round" fill="none" stroke="#ff0000" d="M265.67854 77.83745V93.581317"/>
<path transform="matrix(1,0,0,-1,0,363.90263)" stroke-width=".5" stroke-linecap="butt" stroke-linejoin="round" fill="none" stroke="#ff0000" d="M282.76564 78.518817V89.78841"/>
<path transform="matrix(1,0,0,-1,0,363.90263)" stroke-width=".5" stroke-linecap="butt" stroke-linejoin="round" fill="none" stroke="#ff0000" d="M299.8527 75.74016V88.87952"/>
<path transform="matrix(1,0,0,-1,0,363.90263)" stroke-width=".5" stroke-linecap="butt" stroke-linejoin="round" fill="none" stroke="#ff0000" d="M316.9398 72.99457V90.24705"/>
<path transform="matrix(1,0,0,-1,0,363.90263)" stroke-width=".5" stroke-linecap="butt" stroke-linejoin="round" fill="none" stroke="#ff0000" d="M334.02687 72.72581V88.09711"/>
<path transform="matrix(1,0,0,-1,0,363.90263)" stroke-width=".5" stroke-linecap="butt" stroke-linejoin="round" fill="none" stroke="#ff0000" d="M351.11396 73.54386V84.89908"/>
<path transform="matrix(1,0,0,-1,0,363.90263)" stroke-width=".5" stroke-linecap="butt" stroke-linejoin="round" fill="none" stroke="#ff0000" d="M368.20103 73.90533V81.80711"/>
<path transform="matrix(1,0,0,-1,0,363.90263)" stroke-width=".5" stroke-linecap="butt" stroke-linejoin="round" fill="none" stroke="#ff0000" d="M385.28813 72.915058V80.15087"/>
<path transform="matrix(1,0,0,-1,0,363.90263)" stroke-width=".5" stroke-linecap="butt" stroke-linejoin="round" fill="none" stroke="#ff0000" d="M402.37519 71.61564V78.21234"/>
<path transform="matrix(1,0,0,-1,0,363.90263)" stroke-width=".5" stroke-linecap="butt" stroke-linejoin="round" fill="none" stroke="#ff0000" d="M419.46229 70.970409V76.49659"/>
</g>
<g clip-path="url(#clip_1)">
<path transform="matrix(1,0,0,-1,0,363.90263)" stroke-width=".5" stroke-linecap="butt" stroke-dasharray="1.85,.8" stroke-linejoin="round" fill="none" stroke="#0000ff" d="M94.807727 70.20268H111.894809 128.98189 146.06897 163.15605 180.24314 197.33022L214.4173 304.1535 231.50438 70.20268H248.59146 265.67854 282.76564 299.8527 316.9398 334.02687 351.11396 368.20103 385.28813 402.37519 419.46229"/>
<g clip-path="url(#clip_2)">
<path transform="matrix(1,0,0,-1,94.807727,293.69996)" d="M0-3C.795609-3 1.55874-2.683901 2.12132-2.12132 2.683901-1.55874 3-.795609 3 0 3 .795609 2.683901 1.55874 2.12132 2.12132 1.55874 2.683901 .795609 3 0 3-.795609 3-1.55874 2.683901-2.12132 2.12132-2.683901 1.55874-3 .795609-3 0-3-.795609-2.683901-1.55874-2.12132-2.12132-1.55874-2.683901-.795609-3 0-3Z" fill="#0000ff"/>
<path transform="matrix(1,0,0,-1,94.807727,293.69996)" stroke-width="1" stroke-linecap="butt" stroke-linejoin="round" fill="none" stroke="#0000ff" d="M0-3C.795609-3 1.55874-2.683901 2.12132-2.12132 2.683901-1.55874 3-.795609 3 0 3 .795609 2.683901 1.55874 2.12132 2.12132 1.55874 2.683901 .795609 3 0 3-.795609 3-1.55874 2.683901-2.12132 2.12132-2.683901 1.55874-3 .795609-3 0-3-.795609-2.683901-1.55874-2.12132-2.12132-1.55874-2.683901-.795609-3 0-3Z"/>
</g>
<g clip-path="url(#clip_3)">
<path transform="matrix(1,0,0,-1,111.894809,293.69996)" d="M0-3C.795609-3 1.55874-2.683901 2.12132-2.12132 2.683901-1.55874 3-.795609 3 0 3 .795609 2.683901 1.55874 2.12132 2.12132 1.55874 2.683901 .795609 3 0 3-.795609 3-1.55874 2.683901-2.12132 2.12132-2.683901 1.55874-3 .795609-3 0-3-.795609-2.683901-1.55874-2.12132-2.12132-1.55874-2.683901-.795609-3 0-3Z" fill="#0000ff"/>
<path transform="matrix(1,0,0,-1,111.894809,293.69996)" stroke-width="1" stroke-linecap="butt" stroke-linejoin="round" fill="none" stroke="#0000ff" d="M0-3C.795609-3 1.55874-2.683901 2.12132-2.12132 2.683901-1.55874 3-.795609 3 0 3 .795609 2.683901 1.55874 2.12132 2.12132 1.55874 2.683901 .795609 3 0 3-.795609 3-1.55874 2.683901-2.12132 2.12132-2.683901 1.55874-3 .795609-3 0-3-.795609-2.683901-1.55874-2.12132-2.12132-1.55874-2.683901-.795609-3 0-3Z"/>
</g>
<g clip-path="url(#clip_4)">
<path transform="matrix(1,0,0,-1,128.98189,293.69996)" d="M0-3C.795609-3 1.55874-2.683901 2.12132-2.12132 2.683901-1.55874 3-.795609 3 0 3 .795609 2.683901 1.55874 2.12132 2.12132 1.55874 2.683901 .795609 3 0 3-.795609 3-1.55874 2.683901-2.12132 2.12132-2.683901 1.55874-3 .795609-3 0-3-.795609-2.683901-1.55874-2.12132-2.12132-1.55874-2.683901-.795609-3 0-3Z" fill="#0000ff"/>
<path transform="matrix(1,0,0,-1,128.98189,293.69996)" stroke-width="1" stroke-linecap="butt" stroke-linejoin="round" fill="none" stroke="#0000ff" d="M0-3C.795609-3 1.55874-2.683901 2.12132-2.12132 2.683901-1.55874 3-.795609 3 0 3 .795609 2.683901 1.55874 2.12132 2.12132 1.55874 2.683901 .795609 3 0 3-.795609 3-1.55874 2.683901-2.12132 2.12132-2.683901 1.55874-3 .795609-3 0-3-.795609-2.683901-1.55874-2.12132-2.12132-1.55874-2.683901-.795609-3 0-3Z"/>
</g>
<g clip-path="url(#clip_5)">
<path transform="matrix(1,0,0,-1,146.06897,293.69996)" d="M0-3C.795609-3 1.55874-2.683901 2.12132-2.12132 2.683901-1.55874 3-.795609 3 0 3 .795609 2.683901 1.55874 2.12132 2.12132 1.55874 2.683901 .795609 3 0 3-.795609 3-1.55874 2.683901-2.12132 2.12132-2.683901 1.55874-3 .795609-3 0-3-.795609-2.683901-1.55874-2.12132-2.12132-1.55874-2.683901-.795609-3 0-3Z" fill="#0000ff"/>
<path transform="matrix(1,0,0,-1,146.06897,293.69996)" stroke-width="1" stroke-linecap="butt" stroke-linejoin="round" fill="none" stroke="#0000ff" d="M0-3C.795609-3 1.55874-2.683901 2.12132-2.12132 2.683901-1.55874 3-.795609 3 0 3 .795609 2.683901 1.55874 2.12132 2.12132 1.55874 2.683901 .795609 3 0 3-.795609 3-1.55874 2.683901-2.12132 2.12132-2.683901 1.55874-3 .795609-3 0-3-.795609-2.683901-1.55874-2.12132-2.12132-1.55874-2.683901-.795609-3 0-3Z"/>
</g>
<g clip-path="url(#clip_6)">
<path transform="matrix(1,0,0,-1,163.15605,293.69996)" d="M0-3C.795609-3 1.55874-2.683901 2.12132-2.12132 2.683901-1.55874 3-.795609 3 0 3 .795609 2.683901 1.55874 2.12132 2.12132 1.55874 2.683901 .795609 3 0 3-.795609 3-1.55874 2.683901-2.12132 2.12132-2.683901 1.55874-3 .795609-3 0-3-.795609-2.683901-1.55874-2.12132-2.12132-1.55874-2.683901-.795609-3 0-3Z" fill="#0000ff"/>
<path transform="matrix(1,0,0,-1,163.15605,293.69996)" stroke-width="1" stroke-linecap="butt" stroke-linejoin="round" fill="none" stroke="#0000ff" d="M0-3C.795609-3 1.55874-2.683901 2.12132-2.12132 2.683901-1.55874 3-.795609 3 0 3 .795609 2.683901 1.55874 2.12132 2.12132 1.55874 2.683901 .795609 3 0 3-.795609 3-1.55874 2.683901-2.12132 2.12132-2.683901 1.55874-3 .795609-3 0-3-.795609-2.683901-1.55874-2.12132-2.12132-1.55874-2.683901-.795609-3 0-3Z"/>
</g>
<g clip-path="url(#clip_7)">
<path transform="matrix(1,0,0,-1,180.24314,293.69996)" d="M0-3C.795609-3 1.55874-2.683901 2.12132-2.12132 2.683901-1.55874 3-.795609 3 0 3 .795609 2.683901 1.55874 2.12132 2.12132 1.55874 2.683901 .795609 3 0 3-.795609 3-1.55874 2.683901-2.12132 2.12132-2.683901 1.55874-3 .795609-3 0-3-.795609-2.683901-1.55874-2.12132-2.12132-1.55874-2.683901-.795609-3 0-3Z" fill="#0000ff"/>
<path transform="matrix(1,0,0,-1,180.24314,293.69996)" stroke-width="1" stroke-linecap="butt" stroke-linejoin="round" fill="none" stroke="#0000ff" d="M0-3C.795609-3 1.55874-2.683901 2.12132-2.12132 2.683901-1.55874 3-.795609 3 0 3 .795609 2.683901 1.55874 2.12132 2.12132 1.55874 2.683901 .795609 3 0 3-.795609 3-1.55874 2.683901-2.12132 2.12132-2.683901 1.55874-3 .795609-3 0-3-.795609-2.683901-1.55874-2.12132-2.12132-1.55874-2.683901-.795609-3 0-3Z"/>
</g>
<g clip-path="url(#clip_8)">
<path transform="matrix(1,0,0,-1,197.33022,293.69996)" d="M0-3C.795609-3 1.55874-2.683901 2.12132-2.12132 2.683901-1.55874 3-.795609 3 0 3 .795609 2.683901 1.55874 2.12132 2.12132 1.55874 2.683901 .795609 3 0 3-.795609 3-1.55874 2.683901-2.12132 2.12132-2.683901 1.55874-3 .795609-3 0-3-.795609-2.683901-1.55874-2.12132-2.12132-1.55874-2.683901-.795609-3 0-3Z" fill="#0000ff"/>
<path transform="matrix(1,0,0,-1,197.33022,293.69996)" stroke-width="1" stroke-linecap="butt" stroke-linejoin="round" fill="none" stroke="#0000ff" d="M0-3C.795609-3 1.55874-2.683901 2.12132-2.12132 2.683901-1.55874 3-.795609 3 0 3 .795609 2.683901 1.55874 2.12132 2.12132 1.55874 2.683901 .795609 3 0 3-.795609 3-1.55874 2.683901-2.12132 2.12132-2.683901 1.55874-3 .795609-3 0-3-.795609-2.683901-1.55874-2.12132-2.12132-1.55874-2.683901-.795609-3 0-3Z"/>
</g>
<g clip-path="url(#clip_9)">
<path transform="matrix(1,0,0,-1,214.4173,59.74913)" d="M0-3C.795609-3 1.55874-2.683901 2.12132-2.12132 2.683901-1.55874 3-.795609 3 0 3 .795609 2.683901 1.55874 2.12132 2.12132 1.55874 2.683901 .795609 3 0 3-.795609 3-1.55874 2.683901-2.12132 2.12132-2.683901 1.55874-3 .795609-3 0-3-.795609-2.683901-1.55874-2.12132-2.12132-1.55874-2.683901-.795609-3 0-3Z" fill="#0000ff"/>
<path transform="matrix(1,0,0,-1,214.4173,59.74913)" stroke-width="1" stroke-linecap="butt" stroke-linejoin="round" fill="none" stroke="#0000ff" d="M0-3C.795609-3 1.55874-2.683901 2.12132-2.12132 2.683901-1.55874 3-.795609 3 0 3 .795609 2.683901 1.55874 2.12132 2.12132 1.55874 2.683901 .795609 3 0 3-.795609 3-1.55874 2.683901-2.12132 2.12132-2.683901 1.55874-3 .795609-3 0-3-.795609-2.683901-1.55874-2.12132-2.12132-1.55874-2.683901-.795609-3 0-3Z"/>
</g>
<g clip-path="url(#clip_10)">
<path transform="matrix(1,0,0,-1,231.50438,293.69996)" d="M0-3C.795609-3 1.55874-2.683901 2.12132-2.12132 2.683901-1.55874 3-.795609 3 0 3 .795609 2.683901 1.55874 2.12132 2.12132 1.55874 2.683901 .795609 3 0 3-.795609 3-1.55874 2.683901-2.12132 2.12132-2.683901 1.55874-3 .795609-3 0-3-.795609-2.683901-1.55874-2.12132-2.12132-1.55874-2.683901-.795609-3 0-3Z" fill="#0000ff"/>
<path transform="matrix(1,0,0,-1,231.50438,293.69996)" stroke-width="1" stroke-linecap="butt" stroke-linejoin="round" fill="none" stroke="#0000ff" d="M0-3C.795609-3 1.55874-2.683901 2.12132-2.12132 2.683901-1.55874 3-.795609 3 0 3 .795609 2.683901 1.55874 2.12132 2.12132 1.55874 2.683901 .795609 3 0 3-.795609 3-1.55874 2.683901-2.12132 2.12132-2.683901 1.55874-3 .795609-3 0-3-.795609-2.683901-1.55874-2.12132-2.12132-1.55874-2.683901-.795609-3 0-3Z"/>
</g>
<g clip-path="url(#clip_11)">
<path transform="matrix(1,0,0,-1,248.59146,293.69996)" d="M0-3C.795609-3 1.55874-2.683901 2.12132-2.12132 2.683901-1.55874 3-.795609 3 0 3 .795609 2.683901 1.55874 2.12132 2.12132 1.55874 2.683901 .795609 3 0 3-.795609 3-1.55874 2.683901-2.12132 2.12132-2.683901 1.55874-3 .795609-3 0-3-.795609-2.683901-1.55874-2.12132-2.12132-1.55874-2.683901-.795609-3 0-3Z" fill="#0000ff"/>
<path transform="matrix(1,0,0,-1,248.59146,293.69996)" stroke-width="1" stroke-linecap="butt" stroke-linejoin="round" fill="none" stroke="#0000ff" d="M0-3C.795609-3 1.55874-2.683901 2.12132-2.12132 2.683901-1.55874 3-.795609 3 0 3 .795609 2.683901 1.55874 2.12132 2.12132 1.55874 2.683901 .795609 3 0 3-.795609 3-1.55874 2.683901-2.12132 2.12132-2.683901 1.55874-3 .795609-3 0-3-.795609-2.683901-1.55874-2.12132-2.12132-1.55874-2.683901-.795609-3 0-3Z"/>
</g>
<g clip-path="url(#clip_12)">
<path transform="matrix(1,0,0,-1,265.67854,293.69996)" d="M0-3C.795609-3 1.55874-2.683901 2.12132-2.12132 2.683901-1.55874 3-.795609 3 0 3 .795609 2.683901 1.55874 2.12132 2.12132 1.55874 2.683901 .795609 3 0 3-.795609 3-1.55874 2.683901-2.12132 2.12132-2.683901 1.55874-3 .795609-3 0-3-.795609-2.683901-1.55874-2.12132-2.12132-1.55874-2.683901-.795609-3 0-3Z" fill="#0000ff"/>
<path transform="matrix(1,0,0,-1,265.67854,293.69996)" stroke-width="1" stroke-linecap="butt" stroke-linejoin="round" fill="none" stroke="#0000ff" d="M0-3C.795609-3 1.55874-2.683901 2.12132-2.12132 2.683901-1.55874 3-.795609 3 0 3 .795609 2.683901 1.55874 2.12132 2.12132 1.55874 2.683901 .795609 3 0 3-.795609 3-1.55874 2.683901-2.12132 2.12132-2.683901 1.55874-3 .795609-3 0-3-.795609-2.683901-1.55874-2.12132-2.12132-1.55874-2.683901-.795609-3 0-3Z"/>
</g>
<g clip-path="url(#clip_13)">
<path transform="matrix(1,0,0,-1,282.76564,293.69996)" d="M0-3C.795609-3 1.55874-2.683901 2.12132-2.12132 2.683901-1.55874 3-.795609 3 0 3 .795609 2.683901 1.55874 2.12132 2.12132 1.55874 2.683901 .795609 3 0 3-.795609 3-1.55874 2.683901-2.12132 2.12132-2.683901 1.55874-3 .795609-3 0-3-.795609-2.683901-1.55874-2.12132-2.12132-1.55874-2.683901-.795609-3 0-3Z" fill="#0000ff"/>
<path transform="matrix(1,0,0,-1,282.76564,293.69996)" stroke-width="1" stroke-linecap="butt" stroke-linejoin="round" fill="none" stroke="#0000ff" d="M0-3C.795609-3 1.55874-2.683901 2.12132-2.12132 2.683901-1.55874 3-.795609 3 0 3 .795609 2.683901 1.55874 2.12132 2.12132 1.55874 2.683901 .795609 3 0 3-.795609 3-1.55874 2.683901-2.12132 2.12132-2.683901 1.55874-3 .795609-3 0-3-.795609-2.683901-1.55874-2.12132-2.12132-1.55874-2.683901-.795609-3 0-3Z"/>
</g>
<g clip-path="url(#clip_14)">
<path transform="matrix(1,0,0,-1,299.85273,293.69996)" d="M0-3C.795609-3 1.55874-2.683901 2.12132-2.12132 2.683901-1.55874 3-.795609 3 0 3 .795609 2.683901 1.55874 2.12132 2.12132 1.55874 2.683901 .795609 3 0 3-.795609 3-1.55874 2.683901-2.12132 2.12132-2.683901 1.55874-3 .795609-3 0-3-.795609-2.683901-1.55874-2.12132-2.12132-1.55874-2.683901-.795609-3 0-3Z" fill="#0000ff"/>
<path transform="matrix(1,0,0,-1,299.85273,293.69996)" stroke-width="1" stroke-linecap="butt" stroke-linejoin="round" fill="none" stroke="#0000ff" d="M0-3C.795609-3 1.55874-2.683901 2.12132-2.12132 2.683901-1.55874 3-.795609 3 0 3 .795609 2.683901 1.55874 2.12132 2.12132 1.55874 2.683901 .795609 3 0 3-.795609 3-1.55874 2.683901-2.12132 2.12132-2.683901 1.55874-3 .795609-3 0-3-.795609-2.683901-1.55874-2.12132-2.12132-1.55874-2.683901-.795609-3 0-3Z"/>
</g>
<g clip-path="url(#clip_15)">
<path transform="matrix(1,0,0,-1,316.93983,293.69996)" d="M0-3C.795609-3 1.55874-2.683901 2.12132-2.12132 2.683901-1.55874 3-.795609 3 0 3 .795609 2.683901 1.55874 2.12132 2.12132 1.55874 2.683901 .795609 3 0 3-.795609 3-1.55874 2.683901-2.12132 2.12132-2.683901 1.55874-3 .795609-3 0-3-.795609-2.683901-1.55874-2.12132-2.12132-1.55874-2.683901-.795609-3 0-3Z" fill="#0000ff"/>
<path transform="matrix(1,0,0,-1,316.93983,293.69996)" stroke-width="1" stroke-linecap="butt" stroke-linejoin="round" fill="none" stroke="#0000ff" d="M0-3C.795609-3 1.55874-2.683901 2.12132-2.12132 2.683901-1.55874 3-.795609 3 0 3 .795609 2.683901 1.55874 2.12132 2.12132 1.55874 2.683901 .795609 3 0 3-.795609 3-1.55874 2.683901-2.12132 2.12132-2.683901 1.55874-3 .795609-3 0-3-.795609-2.683901-1.55874-2.12132-2.12132-1.55874-2.683901-.795609-3 0-3Z"/>
</g>
<g clip-path="url(#clip_16)">
<path transform="matrix(1,0,0,-1,334.02693,293.69996)" d="M0-3C.795609-3 1.55874-2.683901 2.12132-2.12132 2.683901-1.55874 3-.795609 3 0 3 .795609 2.683901 1.55874 2.12132 2.12132 1.55874 2.683901 .795609 3 0 3-.795609 3-1.55874 2.683901-2.12132 2.12132-2.683901 1.55874-3 .795609-3 0-3-.795609-2.683901-1.55874-2.12132-2.12132-1.55874-2.683901-.795609-3 0-3Z" fill="#0000ff"/>
<path transform="matrix(1,0,0,-1,334.02693,293.69996)" stroke-width="1" stroke-linecap="butt" stroke-linejoin="round" fill="none" stroke="#0000ff" d="M0-3C.795609-3 1.55874-2.683901 2.12132-2.12132 2.683901-1.55874 3-.795609 3 0 3 .795609 2.683901 1.55874 2.12132 2.12132 1.55874 2.683901 .795609 3 0 3-.795609 3-1.55874 2.683901-2.12132 2.12132-2.683901 1.55874-3 .795609-3 0-3-.795609-2.683901-1.55874-2.12132-2.12132-1.55874-2.683901-.795609-3 0-3Z"/>
</g>
<g clip-path="url(#clip_17)">
<path transform="matrix(1,0,0,-1,351.114,293.69996)" d="M0-3C.795609-3 1.55874-2.683901 2.12132-2.12132 2.683901-1.55874 3-.795609 3 0 3 .795609 2.683901 1.55874 2.12132 2.12132 1.55874 2.683901 .795609 3 0 3-.795609 3-1.55874 2.683901-2.12132 2.12132-2.683901 1.55874-3 .795609-3 0-3-.795609-2.683901-1.55874-2.12132-2.12132-1.55874-2.683901-.795609-3 0-3Z" fill="#0000ff"/>
<path transform="matrix(1,0,0,-1,351.114,293.69996)" stroke-width="1" stroke-linecap="butt" stroke-linejoin="round" fill="none" stroke="#0000ff" d="M0-3C.795609-3 1.55874-2.683901 2.12132-2.12132 2.683901-1.55874 3-.795609 3 0 3 .795609 2.683901 1.55874 2.12132 2.12132 1.55874 2.683901 .795609 3 0 3-.795609 3-1.55874 2.683901-2.12132 2.12132-2.683901 1.55874-3 .795609-3 0-3-.795609-2.683901-1.55874-2.12132-2.12132-1.55874-2.683901-.795609-3 0-3Z"/>
</g>
<g clip-path="url(#clip_18)">
<path transform="matrix(1,0,0,-1,368.2011,293.69996)" d="M0-3C.795609-3 1.55874-2.683901 2.12132-2.12132 2.683901-1.55874 3-.795609 3 0 3 .795609 2.683901 1.55874 2.12132 2.12132 1.55874 2.683901 .795609 3 0 3-.795609 3-1.55874 2.683901-2.12132 2.12132-2.683901 1.55874-3 .795609-3 0-3-.795609-2.683901-1.55874-2.12132-2.12132-1.55874-2.683901-.795609-3 0-3Z" fill="#0000ff"/>
<path transform="matrix(1,0,0,-1,368.2011,293.69996)" stroke-width="1" stroke-linecap="butt" stroke-linejoin="round" fill="none" stroke="#0000ff" d="M0-3C.795609-3 1.55874-2.683901 2.12132-2.12132 2.683901-1.55874 3-.795609 3 0 3 .795609 2.683901 1.55874 2.12132 2.12132 1.55874 2.683901 .795609 3 0 3-.795609 3-1.55874 2.683901-2.12132 2.12132-2.683901 1.55874-3 .795609-3 0-3-.795609-2.683901-1.55874-2.12132-2.12132-1.55874-2.683901-.795609-3 0-3Z"/>
</g>
<g clip-path="url(#clip_19)">
<path transform="matrix(1,0,0,-1,385.2882,293.69996)" d="M0-3C.795609-3 1.55874-2.683901 2.12132-2.12132 2.683901-1.55874 3-.795609 3 0 3 .795609 2.683901 1.55874 2.12132 2.12132 1.55874 2.683901 .795609 3 0 3-.795609 3-1.55874 2.683901-2.12132 2.12132-2.683901 1.55874-3 .795609-3 0-3-.795609-2.683901-1.55874-2.12132-2.12132-1.55874-2.683901-.795609-3 0-3Z" fill="#0000ff"/>
<path transform="matrix(1,0,0,-1,385.2882,293.69996)" stroke-width="1" stroke-linecap="butt" stroke-linejoin="round" fill="none" stroke="#0000ff" d="M0-3C.795609-3 1.55874-2.683901 2.12132-2.12132 2.683901-1.55874 3-.795609 3 0 3 .795609 2.683901 1.55874 2.12132 2.12132 1.55874 2.683901 .795609 3 0 3-.795609 3-1.55874 2.683901-2.12132 2.12132-2.683901 1.55874-3 .795609-3 0-3-.795609-2.683901-1.55874-2.12132-2.12132-1.55874-2.683901-.795609-3 0-3Z"/>
</g>
<g clip-path="url(#clip_20)">
<path transform="matrix(1,0,0,-1,402.3753,293.69996)" d="M0-3C.795609-3 1.55874-2.683901 2.12132-2.12132 2.683901-1.55874 3-.795609 3 0 3 .795609 2.683901 1.55874 2.12132 2.12132 1.55874 2.683901 .795609 3 0 3-.795609 3-1.55874 2.683901-2.12132 2.12132-2.683901 1.55874-3 .795609-3 0-3-.795609-2.683901-1.55874-2.12132-2.12132-1.55874-2.683901-.795609-3 0-3Z" fill="#0000ff"/>
<path transform="matrix(1,0,0,-1,402.3753,293.69996)" stroke-width="1" stroke-linecap="butt" stroke-linejoin="round" fill="none" stroke="#0000ff" d="M0-3C.795609-3 1.55874-2.683901 2.12132-2.12132 2.683901-1.55874 3-.795609 3 0 3 .795609 2.683901 1.55874 2.12132 2.12132 1.55874 2.683901 .795609 3 0 3-.795609 3-1.55874 2.683901-2.12132 2.12132-2.683901 1.55874-3 .795609-3 0-3-.795609-2.683901-1.55874-2.12132-2.12132-1.55874-2.683901-.795609-3 0-3Z"/>
</g>
<g clip-path="url(#clip_21)">
<path transform="matrix(1,0,0,-1,419.4624,293.69996)" d="M0-3C.795609-3 1.55874-2.683901 2.12132-2.12132 2.683901-1.55874 3-.795609 3 0 3 .795609 2.683901 1.55874 2.12132 2.12132 1.55874 2.683901 .795609 3 0 3-.795609 3-1.55874 2.683901-2.12132 2.12132-2.683901 1.55874-3 .795609-3 0-3-.795609-2.683901-1.55874-2.12132-2.12132-1.55874-2.683901-.795609-3 0-3Z" fill="#0000ff"/>
<path transform="matrix(1,0,0,-1,419.4624,293.69996)" stroke-width="1" stroke-linecap="butt" stroke-linejoin="round" fill="none" stroke="#0000ff" d="M0-3C.795609-3 1.55874-2.683901 2.12132-2.12132 2.683901-1.55874 3-.795609 3 0 3 .795609 2.683901 1.55874 2.12132 2.12132 1.55874 2.683901 .795609 3 0 3-.795609 3-1.55874 2.683901-2.12132 2.12132-2.683901 1.55874-3 .795609-3 0-3-.795609-2.683901-1.55874-2.12132-2.12132-1.55874-2.683901-.795609-3 0-3Z"/>
</g>
</g>
<g clip-path="url(#clip_22)">
<path transform="matrix(1,0,0,-1,0,363.90263)" stroke-width=".5" stroke-linecap="butt" stroke-dasharray="1.85,.8" stroke-linejoin="round" fill="none" stroke="#ff0000" d="M94.807727 70.20268 111.894809 89.44198 128.98189 132.39759 146.06897 165.44095 163.15605 180.14553 180.24314 168.21273 197.33022 137.7525 214.4173 109.97745 231.50438 95.235149 248.59146 89.72238 265.67854 85.70938 282.76564 84.15361 299.8527 82.30984 316.9398 81.62081 334.02687 80.41145 351.11396 79.22147 368.20103 77.856227 385.28813 76.53296 402.37519 74.913997 419.46229 73.7335"/>
<g clip-path="url(#clip_23)">
<path transform="matrix(1,0,0,-1,94.807727,293.69996)" d="M0-3C.795609-3 1.55874-2.683901 2.12132-2.12132 2.683901-1.55874 3-.795609 3 0 3 .795609 2.683901 1.55874 2.12132 2.12132 1.55874 2.683901 .795609 3 0 3-.795609 3-1.55874 2.683901-2.12132 2.12132-2.683901 1.55874-3 .795609-3 0-3-.795609-2.683901-1.55874-2.12132-2.12132-1.55874-2.683901-.795609-3 0-3Z" fill="#ff0000"/>
<path transform="matrix(1,0,0,-1,94.807727,293.69996)" stroke-width="1" stroke-linecap="butt" stroke-linejoin="round" fill="none" stroke="#ff0000" d="M0-3C.795609-3 1.55874-2.683901 2.12132-2.12132 2.683901-1.55874 3-.795609 3 0 3 .795609 2.683901 1.55874 2.12132 2.12132 1.55874 2.683901 .795609 3 0 3-.795609 3-1.55874 2.683901-2.12132 2.12132-2.683901 1.55874-3 .795609-3 0-3-.795609-2.683901-1.55874-2.12132-2.12132-1.55874-2.683901-.795609-3 0-3Z"/>
</g>
<g clip-path="url(#clip_24)">
<path transform="matrix(1,0,0,-1,111.894809,274.46067)" d="M0-3C.795609-3 1.55874-2.683901 2.12132-2.12132 2.683901-1.55874 3-.795609 3 0 3 .795609 2.683901 1.55874 2.12132 2.12132 1.55874 2.683901 .795609 3 0 3-.795609 3-1.55874 2.683901-2.12132 2.12132-2.683901 1.55874-3 .795609-3 0-3-.795609-2.683901-1.55874-2.12132-2.12132-1.55874-2.683901-.795609-3 0-3Z" fill="#ff0000"/>
<path transform="matrix(1,0,0,-1,111.894809,274.46067)" stroke-width="1" stroke-linecap="butt" stroke-linejoin="round" fill="none" stroke="#ff0000" d="M0-3C.795609-3 1.55874-2.683901 2.12132-2.12132 2.683901-1.55874 3-.795609 3 0 3 .795609 2.683901 1.55874 2.12132 2.12132 1.55874 2.683901 .795609 3 0 3-.795609 3-1.55874 2.683901-2.12132 2.12132-2.683901 1.55874-3 .795609-3 0-3-.795609-2.683901-1.55874-2.12132-2.12132-1.55874-2.683901-.795609-3 0-3Z"/>
</g>
<g clip-path="url(#clip_25)">
<path transform="matrix(1,0,0,-1,128.98189,231.50507)" d="M0-3C.795609-3 1.55874-2.683901 2.12132-2.12132 2.683901-1.55874 3-.795609 3 0 3 .795609 2.683901 1.55874 2.12132 2.12132 1.55874 2.683901 .795609 3 0 3-.795609 3-1.55874 2.683901-2.12132 2.12132-2.683901 1.55874-3 .795609-3 0-3-.795609-2.683901-1.55874-2.12132-2.12132-1.55874-2.683901-.795609-3 0-3Z" fill="#ff0000"/>
<path transform="matrix(1,0,0,-1,128.98189,231.50507)" stroke-width="1" stroke-linecap="butt" stroke-linejoin="round" fill="none" stroke="#ff0000" d="M0-3C.795609-3 1.55874-2.683901 2.12132-2.12132 2.683901-1.55874 3-.795609 3 0 3 .795609 2.683901 1.55874 2.12132 2.12132 1.55874 2.683901 .795609 3 0 3-.795609 3-1.55874 2.683901-2.12132 2.12132-2.683901 1.55874-3 .795609-3 0-3-.795609-2.683901-1.55874-2.12132-2.12132-1.55874-2.683901-.795609-3 0-3Z"/>
</g>
<g clip-path="url(#clip_26)">
<path transform="matrix(1,0,0,-1,146.06897,198.4617)" d="M0-3C.795609-3 1.55874-2.683901 2.12132-2.12132 2.683901-1.55874 3-.795609 3 0 3 .795609 2.683901 1.55874 2.12132 2.12132 1.55874 2.683901 .795609 3 0 3-.795609 3-1.55874 2.683901-2.12132 2.12132-2.683901 1.55874-3 .795609-3 0-3-.795609-2.683901-1.55874-2.12132-2.12132-1.55874-2.683901-.795609-3 0-3Z" fill="#ff0000"/>
<path transform="matrix(1,0,0,-1,146.06897,198.4617)" stroke-width="1" stroke-linecap="butt" stroke-linejoin="round" fill="none" stroke="#ff0000" d="M0-3C.795609-3 1.55874-2.683901 2.12132-2.12132 2.683901-1.55874 3-.795609 3 0 3 .795609 2.683901 1.55874 2.12132 2.12132 1.55874 2.683901 .795609 3 0 3-.795609 3-1.55874 2.683901-2.12132 2.12132-2.683901 1.55874-3 .795609-3 0-3-.795609-2.683901-1.55874-2.12132-2.12132-1.55874-2.683901-.795609-3 0-3Z"/>
</g>
<g clip-path="url(#clip_27)">
<path transform="matrix(1,0,0,-1,163.15605,183.75713)" d="M0-3C.795609-3 1.55874-2.683901 2.12132-2.12132 2.683901-1.55874 3-.795609 3 0 3 .795609 2.683901 1.55874 2.12132 2.12132 1.55874 2.683901 .795609 3 0 3-.795609 3-1.55874 2.683901-2.12132 2.12132-2.683901 1.55874-3 .795609-3 0-3-.795609-2.683901-1.55874-2.12132-2.12132-1.55874-2.683901-.795609-3 0-3Z" fill="#ff0000"/>
<path transform="matrix(1,0,0,-1,163.15605,183.75713)" stroke-width="1" stroke-linecap="butt" stroke-linejoin="round" fill="none" stroke="#ff0000" d="M0-3C.795609-3 1.55874-2.683901 2.12132-2.12132 2.683901-1.55874 3-.795609 3 0 3 .795609 2.683901 1.55874 2.12132 2.12132 1.55874 2.683901 .795609 3 0 3-.795609 3-1.55874 2.683901-2.12132 2.12132-2.683901 1.55874-3 .795609-3 0-3-.795609-2.683901-1.55874-2.12132-2.12132-1.55874-2.683901-.795609-3 0-3Z"/>
</g>
<g clip-path="url(#clip_28)">
<path transform="matrix(1,0,0,-1,180.24314,195.68991)" d="M0-3C.795609-3 1.55874-2.683901 2.12132-2.12132 2.683901-1.55874 3-.795609 3 0 3 .795609 2.683901 1.55874 2.12132 2.12132 1.55874 2.683901 .795609 3 0 3-.795609 3-1.55874 2.683901-2.12132 2.12132-2.683901 1.55874-3 .795609-3 0-3-.795609-2.683901-1.55874-2.12132-2.12132-1.55874-2.683901-.795609-3 0-3Z" fill="#ff0000"/>
<path transform="matrix(1,0,0,-1,180.24314,195.68991)" stroke-width="1" stroke-linecap="butt" stroke-linejoin="round" fill="none" stroke="#ff0000" d="M0-3C.795609-3 1.55874-2.683901 2.12132-2.12132 2.683901-1.55874 3-.795609 3 0 3 .795609 2.683901 1.55874 2.12132 2.12132 1.55874 2.683901 .795609 3 0 3-.795609 3-1.55874 2.683901-2.12132 2.12132-2.683901 1.55874-3 .795609-3 0-3-.795609-2.683901-1.55874-2.12132-2.12132-1.55874-2.683901-.795609-3 0-3Z"/>
</g>
<g clip-path="url(#clip_29)">
<path transform="matrix(1,0,0,-1,197.33022,226.15013)" d="M0-3C.795609-3 1.55874-2.683901 2.12132-2.12132 2.683901-1.55874 3-.795609 3 0 3 .795609 2.683901 1.55874 2.12132 2.12132 1.55874 2.683901 .795609 3 0 3-.795609 3-1.55874 2.683901-2.12132 2.12132-2.683901 1.55874-3 .795609-3 0-3-.795609-2.683901-1.55874-2.12132-2.12132-1.55874-2.683901-.795609-3 0-3Z" fill="#ff0000"/>
<path transform="matrix(1,0,0,-1,197.33022,226.15013)" stroke-width="1" stroke-linecap="butt" stroke-linejoin="round" fill="none" stroke="#ff0000" d="M0-3C.795609-3 1.55874-2.683901 2.12132-2.12132 2.683901-1.55874 3-.795609 3 0 3 .795609 2.683901 1.55874 2.12132 2.12132 1.55874 2.683901 .795609 3 0 3-.795609 3-1.55874 2.683901-2.12132 2.12132-2.683901 1.55874-3 .795609-3 0-3-.795609-2.683901-1.55874-2.12132-2.12132-1.55874-2.683901-.795609-3 0-3Z"/>
</g>
<g clip-path="url(#clip_30)">
<path transform="matrix(1,0,0,-1,214.4173,253.9252)" d="M0-3C.795609-3 1.55874-2.683901 2.12132-2.12132 2.683901-1.55874 3-.795609 3 0 3 .795609 2.683901 1.55874 2.12132 2.12132 1.55874 2.683901 .795609 3 0 3-.795609 3-1.55874 2.683901-2.12132 2.12132-2.683901 1.55874-3 .795609-3 0-3-.795609-2.683901-1.55874-2.12132-2.12132-1.55874-2.683901-.795609-3 0-3Z" fill="#ff0000"/>
<path transform="matrix(1,0,0,-1,214.4173,253.9252)" stroke-width="1" stroke-linecap="butt" stroke-linejoin="round" fill="none" stroke="#ff0000" d="M0-3C.795609-3 1.55874-2.683901 2.12132-2.12132 2.683901-1.55874 3-.795609 3 0 3 .795609 2.683901 1.55874 2.12132 2.12132 1.55874 2.683901 .795609 3 0 3-.795609 3-1.55874 2.683901-2.12132 2.12132-2.683901 1.55874-3 .795609-3 0-3-.795609-2.683901-1.55874-2.12132-2.12132-1.55874-2.683901-.795609-3 0-3Z"/>
</g>
<g clip-path="url(#clip_31)">
<path transform="matrix(1,0,0,-1,231.50438,268.6675)" d="M0-3C.795609-3 1.55874-2.683901 2.12132-2.12132 2.683901-1.55874 3-.795609 3 0 3 .795609 2.683901 1.55874 2.12132 2.12132 1.55874 2.683901 .795609 3 0 3-.795609 3-1.55874 2.683901-2.12132 2.12132-2.683901 1.55874-3 .795609-3 0-3-.795609-2.683901-1.55874-2.12132-2.12132-1.55874-2.683901-.795609-3 0-3Z" fill="#ff0000"/>
<path transform="matrix(1,0,0,-1,231.50438,268.6675)" stroke-width="1" stroke-linecap="butt" stroke-linejoin="round" fill="none" stroke="#ff0000" d="M0-3C.795609-3 1.55874-2.683901 2.12132-2.12132 2.683901-1.55874 3-.795609 3 0 3 .795609 2.683901 1.55874 2.12132 2.12132 1.55874 2.683901 .795609 3 0 3-.795609 3-1.55874 2.683901-2.12132 2.12132-2.683901 1.55874-3 .795609-3 0-3-.795609-2.683901-1.55874-2.12132-2.12132-1.55874-2.683901-.795609-3 0-3Z"/>
</g>
<g clip-path="url(#clip_32)">
<path transform="matrix(1,0,0,-1,248.59146,274.18028)" d="M0-3C.795609-3 1.55874-2.683901 2.12132-2.12132 2.683901-1.55874 3-.795609 3 0 3 .795609 2.683901 1.55874 2.12132 2.12132 1.55874 2.683901 .795609 3 0 3-.795609 3-1.55874 2.683901-2.12132 2.12132-2.683901 1.55874-3 .795609-3 0-3-.795609-2.683901-1.55874-2.12132-2.12132-1.55874-2.683901-.795609-3 0-3Z" fill="#ff0000"/>
<path transform="matrix(1,0,0,-1,248.59146,274.18028)" stroke-width="1" stroke-linecap="butt" stroke-linejoin="round" fill="none" stroke="#ff0000" d="M0-3C.795609-3 1.55874-2.683901 2.12132-2.12132 2.683901-1.55874 3-.795609 3 0 3 .795609 2.683901 1.55874 2.12132 2.12132 1.55874 2.683901 .795609 3 0 3-.795609 3-1.55874 2.683901-2.12132 2.12132-2.683901 1.55874-3 .795609-3 0-3-.795609-2.683901-1.55874-2.12132-2.12132-1.55874-2.683901-.795609-3 0-3Z"/>
</g>
<g clip-path="url(#clip_33)">
<path transform="matrix(1,0,0,-1,265.67854,278.19328)" d="M0-3C.795609-3 1.55874-2.683901 2.12132-2.12132 2.683901-1.55874 3-.795609 3 0 3 .795609 2.683901 1.55874 2.12132 2.12132 1.55874 2.683901 .795609 3 0 3-.795609 3-1.55874 2.683901-2.12132 2.12132-2.683901 1.55874-3 .795609-3 0-3-.795609-2.683901-1.55874-2.12132-2.12132-1.55874-2.683901-.795609-3 0-3Z" fill="#ff0000"/>
<path transform="matrix(1,0,0,-1,265.67854,278.19328)" stroke-width="1" stroke-linecap="butt" stroke-linejoin="round" fill="none" stroke="#ff0000" d="M0-3C.795609-3 1.55874-2.683901 2.12132-2.12132 2.683901-1.55874 3-.795609 3 0 3 .795609 2.683901 1.55874 2.12132 2.12132 1.55874 2.683901 .795609 3 0 3-.795609 3-1.55874 2.683901-2.12132 2.12132-2.683901 1.55874-3 .795609-3 0-3-.795609-2.683901-1.55874-2.12132-2.12132-1.55874-2.683901-.795609-3 0-3Z"/>
</g>
<g clip-path="url(#clip_34)">
<path transform="matrix(1,0,0,-1,282.76564,279.74903)" d="M0-3C.795609-3 1.55874-2.683901 2.12132-2.12132 2.683901-1.55874 3-.795609 3 0 3 .795609 2.683901 1.55874 2.12132 2.12132 1.55874 2.683901 .795609 3 0 3-.795609 3-1.55874 2.683901-2.12132 2.12132-2.683901 1.55874-3 .795609-3 0-3-.795609-2.683901-1.55874-2.12132-2.12132-1.55874-2.683901-.795609-3 0-3Z" fill="#ff0000"/>
<path transform="matrix(1,0,0,-1,282.76564,279.74903)" stroke-width="1" stroke-linecap="butt" stroke-linejoin="round" fill="none" stroke="#ff0000" d="M0-3C.795609-3 1.55874-2.683901 2.12132-2.12132 2.683901-1.55874 3-.795609 3 0 3 .795609 2.683901 1.55874 2.12132 2.12132 1.55874 2.683901 .795609 3 0 3-.795609 3-1.55874 2.683901-2.12132 2.12132-2.683901 1.55874-3 .795609-3 0-3-.795609-2.683901-1.55874-2.12132-2.12132-1.55874-2.683901-.795609-3 0-3Z"/>
</g>
<g clip-path="url(#clip_35)">
<path transform="matrix(1,0,0,-1,299.85273,281.5928)" d="M0-3C.795609-3 1.55874-2.683901 2.12132-2.12132 2.683901-1.55874 3-.795609 3 0 3 .795609 2.683901 1.55874 2.12132 2.12132 1.55874 2.683901 .795609 3 0 3-.795609 3-1.55874 2.683901-2.12132 2.12132-2.683901 1.55874-3 .795609-3 0-3-.795609-2.683901-1.55874-2.12132-2.12132-1.55874-2.683901-.795609-3 0-3Z" fill="#ff0000"/>
<path transform="matrix(1,0,0,-1,299.85273,281.5928)" stroke-width="1" stroke-linecap="butt" stroke-linejoin="round" fill="none" stroke="#ff0000" d="M0-3C.795609-3 1.55874-2.683901 2.12132-2.12132 2.683901-1.55874 3-.795609 3 0 3 .795609 2.683901 1.55874 2.12132 2.12132 1.55874 2.683901 .795609 3 0 3-.795609 3-1.55874 2.683901-2.12132 2.12132-2.683901 1.55874-3 .795609-3 0-3-.795609-2.683901-1.55874-2.12132-2.12132-1.55874-2.683901-.795609-3 0-3Z"/>
</g>
<g clip-path="url(#clip_36)">
<path transform="matrix(1,0,0,-1,316.93983,282.28184)" d="M0-3C.795609-3 1.55874-2.683901 2.12132-2.12132 2.683901-1.55874 3-.795609 3 0 3 .795609 2.683901 1.55874 2.12132 2.12132 1.55874 2.683901 .795609 3 0 3-.795609 3-1.55874 2.683901-2.12132 2.12132-2.683901 1.55874-3 .795609-3 0-3-.795609-2.683901-1.55874-2.12132-2.12132-1.55874-2.683901-.795609-3 0-3Z" fill="#ff0000"/>
<path transform="matrix(1,0,0,-1,316.93983,282.28184)" stroke-width="1" stroke-linecap="butt" stroke-linejoin="round" fill="none" stroke="#ff0000" d="M0-3C.795609-3 1.55874-2.683901 2.12132-2.12132 2.683901-1.55874 3-.795609 3 0 3 .795609 2.683901 1.55874 2.12132 2.12132 1.55874 2.683901 .795609 3 0 3-.795609 3-1.55874 2.683901-2.12132 2.12132-2.683901 1.55874-3 .795609-3 0-3-.795609-2.683901-1.55874-2.12132-2.12132-1.55874-2.683901-.795609-3 0-3Z"/>
</g>
<g clip-path="url(#clip_37)">
<path transform="matrix(1,0,0,-1,334.02693,283.49119)" d="M0-3C.795609-3 1.55874-2.683901 2.12132-2.12132 2.683901-1.55874 3-.795609 3 0 3 .795609 2.683901 1.55874 2.12132 2.12132 1.55874 2.683901 .795609 3 0 3-.795609 3-1.55874 2.683901-2.12132 2.12132-2.683901 1.55874-3 .795609-3 0-3-.795609-2.683901-1.55874-2.12132-2.12132-1.55874-2.683901-.795609-3 0-3Z" fill="#ff0000"/>
<path transform="matrix(1,0,0,-1,334.02693,283.49119)" stroke-width="1" stroke-linecap="butt" stroke-linejoin="round" fill="none" stroke="#ff0000" d="M0-3C.795609-3 1.55874-2.683901 2.12132-2.12132 2.683901-1.55874 3-.795609 3 0 3 .795609 2.683901 1.55874 2.12132 2.12132 1.55874 2.683901 .795609 3 0 3-.795609 3-1.55874 2.683901-2.12132 2.12132-2.683901 1.55874-3 .795609-3 0-3-.795609-2.683901-1.55874-2.12132-2.12132-1.55874-2.683901-.795609-3 0-3Z"/>
</g>
<g clip-path="url(#clip_38)">
<path transform="matrix(1,0,0,-1,351.114,284.68116)" d="M0-3C.795609-3 1.55874-2.683901 2.12132-2.12132 2.683901-1.55874 3-.795609 3 0 3 .795609 2.683901 1.55874 2.12132 2.12132 1.55874 2.683901 .795609 3 0 3-.795609 3-1.55874 2.683901-2.12132 2.12132-2.683901 1.55874-3 .795609-3 0-3-.795609-2.683901-1.55874-2.12132-2.12132-1.55874-2.683901-.795609-3 0-3Z" fill="#ff0000"/>
<path transform="matrix(1,0,0,-1,351.114,284.68116)" stroke-width="1" stroke-linecap="butt" stroke-linejoin="round" fill="none" stroke="#ff0000" d="M0-3C.795609-3 1.55874-2.683901 2.12132-2.12132 2.683901-1.55874 3-.795609 3 0 3 .795609 2.683901 1.55874 2.12132 2.12132 1.55874 2.683901 .795609 3 0 3-.795609 3-1.55874 2.683901-2.12132 2.12132-2.683901 1.55874-3 .795609-3 0-3-.795609-2.683901-1.55874-2.12132-2.12132-1.55874-2.683901-.795609-3 0-3Z"/>
</g>
<g clip-path="url(#clip_39)">
<path transform="matrix(1,0,0,-1,368.2011,286.0464)" d="M0-3C.795609-3 1.55874-2.683901 2.12132-2.12132 2.683901-1.55874 3-.795609 3 0 3 .795609 2.683901 1.55874 2.12132 2.12132 1.55874 2.683901 .795609 3 0 3-.795609 3-1.55874 2.683901-2.12132 2.12132-2.683901 1.55874-3 .795609-3 0-3-.795609-2.683901-1.55874-2.12132-2.12132-1.55874-2.683901-.795609-3 0-3Z" fill="#ff0000"/>
<path transform="matrix(1,0,0,-1,368.2011,286.0464)" stroke-width="1" stroke-linecap="butt" stroke-linejoin="round" fill="none" stroke="#ff0000" d="M0-3C.795609-3 1.55874-2.683901 2.12132-2.12132 2.683901-1.55874 3-.795609 3 0 3 .795609 2.683901 1.55874 2.12132 2.12132 1.55874 2.683901 .795609 3 0 3-.795609 3-1.55874 2.683901-2.12132 2.12132-2.683901 1.55874-3 .795609-3 0-3-.795609-2.683901-1.55874-2.12132-2.12132-1.55874-2.683901-.795609-3 0-3Z"/>
</g>
<g clip-path="url(#clip_40)">
<path transform="matrix(1,0,0,-1,385.2882,287.36967)" d="M0-3C.795609-3 1.55874-2.683901 2.12132-2.12132 2.683901-1.55874 3-.795609 3 0 3 .795609 2.683901 1.55874 2.12132 2.12132 1.55874 2.683901 .795609 3 0 3-.795609 3-1.55874 2.683901-2.12132 2.12132-2.683901 1.55874-3 .795609-3 0-3-.795609-2.683901-1.55874-2.12132-2.12132-1.55874-2.683901-.795609-3 0-3Z" fill="#ff0000"/>
<path transform="matrix(1,0,0,-1,385.2882,287.36967)" stroke-width="1" stroke-linecap="butt" stroke-linejoin="round" fill="none" stroke="#ff0000" d="M0-3C.795609-3 1.55874-2.683901 2.12132-2.12132 2.683901-1.55874 3-.795609 3 0 3 .795609 2.683901 1.55874 2.12132 2.12132 1.55874 2.683901 .795609 3 0 3-.795609 3-1.55874 2.683901-2.12132 2.12132-2.683901 1.55874-3 .795609-3 0-3-.795609-2.683901-1.55874-2.12132-2.12132-1.55874-2.683901-.795609-3 0-3Z"/>
</g>
<g clip-path="url(#clip_41)">
<path transform="matrix(1,0,0,-1,402.3753,288.98863)" d="M0-3C.795609-3 1.55874-2.683901 2.12132-2.12132 2.683901-1.55874 3-.795609 3 0 3 .795609 2.683901 1.55874 2.12132 2.12132 1.55874 2.683901 .795609 3 0 3-.795609 3-1.55874 2.683901-2.12132 2.12132-2.683901 1.55874-3 .795609-3 0-3-.795609-2.683901-1.55874-2.12132-2.12132-1.55874-2.683901-.795609-3 0-3Z" fill="#ff0000"/>
<path transform="matrix(1,0,0,-1,402.3753,288.98863)" stroke-width="1" stroke-linecap="butt" stroke-linejoin="round" fill="none" stroke="#ff0000" d="M0-3C.795609-3 1.55874-2.683901 2.12132-2.12132 2.683901-1.55874 3-.795609 3 0 3 .795609 2.683901 1.55874 2.12132 2.12132 1.55874 2.683901 .795609 3 0 3-.795609 3-1.55874 2.683901-2.12132 2.12132-2.683901 1.55874-3 .795609-3 0-3-.795609-2.683901-1.55874-2.12132-2.12132-1.55874-2.683901-.795609-3 0-3Z"/>
</g>
<g clip-path="url(#clip_42)">
<path transform="matrix(1,0,0,-1,419.4624,290.1691)" d="M0-3C.795609-3 1.55874-2.683901 2.12132-2.12132 2.683901-1.55874 3-.795609 3 0 3 .795609 2.683901 1.55874 2.12132 2.12132 1.55874 2.683901 .795609 3 0 3-.795609 3-1.55874 2.683901-2.12132 2.12132-2.683901 1.55874-3 .795609-3 0-3-.795609-2.683901-1.55874-2.12132-2.12132-1.55874-2.683901-.795609-3 0-3Z" fill="#ff0000"/>
<path transform="matrix(1,0,0,-1,419.4624,290.1691)" stroke-width="1" stroke-linecap="butt" stroke-linejoin="round" fill="none" stroke="#ff0000" d="M0-3C.795609-3 1.55874-2.683901 2.12132-2.12132 2.683901-1.55874 3-.795609 3 0 3 .795609 2.683901 1.55874 2.12132 2.12132 1.55874 2.683901 .795609 3 0 3-.795609 3-1.55874 2.683901-2.12132 2.12132-2.683901 1.55874-3 .795609-3 0-3-.795609-2.683901-1.55874-2.12132-2.12132-1.55874-2.683901-.795609-3 0-3Z"/>
</g>
</g>
<path transform="matrix(1,0,0,-1,0,363.90263)" stroke-width=".8" stroke-linecap="square" stroke-miterlimit="10" stroke-linejoin="miter" fill="none" stroke="#000000" d="M78.575 50.1375V316.2495"/>
<path transform="matrix(1,0,0,-1,0,363.90263)" stroke-width=".8" stroke-linecap="square" stroke-miterlimit="10" stroke-linejoin="miter" fill="none" stroke="#000000" d="M435.695 50.1375V316.2495"/>
<path transform="matrix(1,0,0,-1,0,363.90263)" stroke-width=".8" stroke-linecap="square" stroke-miterlimit="10" stroke-linejoin="miter" fill="none" stroke="#000000" d="M78.575 50.1375H435.695"/>
<path transform="matrix(1,0,0,-1,0,363.90263)" stroke-width=".8" stroke-linecap="square" stroke-miterlimit="10" stroke-linejoin="miter" fill="none" stroke="#000000" d="M78.575 316.2495H435.695"/>
<text xml:space="preserve" transform="matrix(1 0 -0 1 43.45531 41.653108)" font-size="20" font-family="DejaVuSans"><tspan y="0" x="0 13.96 26.64 38.9 51.58 64.26 76.560009 82.12 88.48 101.200008 113.920009 120.28001 128.0625 140.3625 150.7825 163.4825 175.7225 188.4025 198.8225 211.1225 217.4825 223.38249 236.08249 249.98249 256.34248 262.70246 274.31309 279.87309 299.3531 311.65309 318.01307 330.71308 336.27308 348.95307 355.31306 372.07307 378.43305 391.15306 397.51307 416.99308">Channel 23 response ISR, Time bin = 2 ms</tspan></text>
<g>
<path transform="matrix(1,0,0,-1,0,363.90263)" d="M542.475 275.7964H784.0062C787.3396 275.7964 789.0062 277.46305 789.0062 280.7964V351.70265C789.0062 355.03596 787.3396 356.70265 784.0062 356.70265H542.475C539.14169 356.70265 537.475 355.03596 537.475 351.70265V280.7964C537.475 277.46305 539.14169 275.7964 542.475 275.7964Z" fill="#ffffff" fill-opacity=".8"/>
<path transform="matrix(1,0,0,-1,0,363.90263)" stroke-width="1" stroke-linecap="butt" stroke-miterlimit="10" stroke-linejoin="miter" fill="none" stroke="#d5d6d5" stroke-opacity=".8" d="M542.475 275.7964H784.0062C787.3396 275.7964 789.0062 277.46305 789.0062 280.7964V351.70265C789.0062 355.03596 787.3396 356.70265 784.0062 356.70265H542.475C539.14169 356.70265 537.475 355.03596 537.475 351.70265V280.7964C537.475 277.46305 539.14169 275.7964 542.475 275.7964Z"/>
</g>
<path transform="matrix(1,0,0,-1,0,363.90263)" stroke-width=".5" stroke-linecap="butt" stroke-dasharray="1.85,.8" stroke-linejoin="round" fill="none" stroke="#0000ff" d="M547.475 336.45265H572.475 597.475"/>
<path transform="matrix(1,0,0,-1,0,363.90263)" d="M572.475 333.45265C573.2706 333.45265 574.03378 333.76875 574.5963 334.3313 575.1589 334.8939 575.475 335.657 575.475 336.45265 575.475 337.24824 575.1589 338.01136 574.5963 338.57395 574.03378 339.13655 573.2706 339.45265 572.475 339.45265 571.6794 339.45265 570.91629 339.13655 570.3537 338.57395 569.7911 338.01136 569.475 337.24824 569.475 336.45265 569.475 335.657 569.7911 334.8939 570.3537 334.3313 570.91629 333.76875 571.6794 333.45265 572.475 333.45265Z" fill="#0000ff"/>
<path transform="matrix(1,0,0,-1,0,363.90263)" stroke-width="1" stroke-linecap="butt" stroke-linejoin="round" fill="none" stroke="#0000ff" d="M572.475 333.45265C573.2706 333.45265 574.03378 333.76875 574.5963 334.3313 575.1589 334.8939 575.475 335.657 575.475 336.45265 575.475 337.24824 575.1589 338.01136 574.5963 338.57395 574.03378 339.13655 573.2706 339.45265 572.475 339.45265 571.6794 339.45265 570.91629 339.13655 570.3537 338.57395 569.7911 338.01136 569.475 337.24824 569.475 336.45265 569.475 335.657 569.7911 334.8939 570.3537 334.3313 570.91629 333.76875 571.6794 333.45265 572.475 333.45265Z"/>
<text xml:space="preserve" transform="matrix(1 0 -0 1 617.475 36.19998)" font-size="25" font-family="DejaVuSans"><tspan y="0" x="0 19.375 29.103127 44.40313 60.253129 76.10313 91.97813 99.92812 109.72813 120.00313 135.85314 145.65314">Ground truth</tspan></text>
<path transform="matrix(1,0,0,-1,0,363.90263)" stroke-width=".5" stroke-linecap="butt" stroke-linejoin="round" fill="none" stroke="#ff0000" d="M572.475 287.2495V312.2495"/>
<path transform="matrix(1,0,0,-1,0,363.90263)" stroke-width=".5" stroke-linecap="butt" stroke-dasharray="1.85,.8" stroke-linejoin="round" fill="none" stroke="#ff0000" d="M547.475 299.7495H597.475"/>
<path transform="matrix(1,0,0,-1,0,363.90263)" d="M572.475 296.7495C573.2706 296.7495 574.03378 297.0656 574.5963 297.62818 575.1589 298.19078 575.475 298.9539 575.475 299.7495 575.475 300.5451 575.1589 301.30824 574.5963 301.87083 574.03378 302.4334 573.2706 302.7495 572.475 302.7495 571.6794 302.7495 570.91629 302.4334 570.3537 301.87083 569.7911 301.30824 569.475 300.5451 569.475 299.7495 569.475 298.9539 569.7911 298.19078 570.3537 297.62818 570.91629 297.0656 571.6794 296.7495 572.475 296.7495Z" fill="#ff0000"/>
<path transform="matrix(1,0,0,-1,0,363.90263)" stroke-width="1" stroke-linecap="butt" stroke-linejoin="round" fill="none" stroke="#ff0000" d="M572.475 296.7495C573.2706 296.7495 574.03378 297.0656 574.5963 297.62818 575.1589 298.19078 575.475 298.9539 575.475 299.7495 575.475 300.5451 575.1589 301.30824 574.5963 301.87083 574.03378 302.4334 573.2706 302.7495 572.475 302.7495 571.6794 302.7495 570.91629 302.4334 570.3537 301.87083 569.7911 301.30824 569.475 300.5451 569.475 299.7495 569.475 298.9539 569.7911 298.19078 570.3537 297.62818 570.91629 297.0656 571.6794 296.7495 572.475 296.7495Z"/>
<text xml:space="preserve" transform="matrix(1 0 -0 1 617.475 72.90311)" font-size="25" font-family="DejaVuSans"><tspan y="0" x="0 14.637501 24.365628 39.740629 55.615629 62.565629 76.31563 86.11563 93.06563 108.36563">Prediction</tspan></text>
</svg>
