<svg xmlns="http://www.w3.org/2000/svg" xmlns:xlink="http://www.w3.org/1999/xlink" version="1.1" width="1052.5669pt" height="323.4495pt" viewBox="0 0 1052.5669 323.4495">
<defs>
<clipPath id="clip_0">
<path transform="matrix(1,0,0,-1,0,323.4495)" d="M69.02812 50.1375H426.14814V316.2495H69.02812Z"/>
</clipPath>
<clipPath id="clip_1">
<path transform="matrix(1,0,0,-1,0,323.4495)" d="M69.02812 50.1375H426.14814V316.2495H69.02812Z"/>
</clipPath>
<clipPath id="clip_2">
<path transform="matrix(1,0,0,-1,0,323.4495)" d="M69.02812 50.1375H426.14814V316.2495H69.02812Z"/>
</clipPath>
<clipPath id="clip_3">
<path transform="matrix(1,0,0,-1,85.26085,253.07988)" d="M-8-8H8V8H-8Z"/>
</clipPath>
<clipPath id="clip_4">
<path transform="matrix(1,0,0,-1,102.34793,253.07988)" d="M-8-8H8V8H-8Z"/>
</clipPath>
<clipPath id="clip_5">
<path transform="matrix(1,0,0,-1,119.43501,99.12463)" d="M-8-8H8V8H-8Z"/>
</clipPath>
<clipPath id="clip_6">
<path transform="matrix(1,0,0,-1,136.5221,19.29599)" d="M-8-8H8V8H-8Z"/>
</clipPath>
<clipPath id="clip_7">
<path transform="matrix(1,0,0,-1,153.60918,70.6144)" d="M-8-8H8V8H-8Z"/>
</clipPath>
<clipPath id="clip_8">
<path transform="matrix(1,0,0,-1,170.69626,213.16556)" d="M-8-8H8V8H-8Z"/>
</clipPath>
<clipPath id="clip_9">
<path transform="matrix(1,0,0,-1,187.78334,253.07988)" d="M-8-8H8V8H-8Z"/>
</clipPath>
<clipPath id="clip_10">
<path transform="matrix(1,0,0,-1,204.87042,253.07988)" d="M-8-8H8V8H-8Z"/>
</clipPath>
<clipPath id="clip_11">
<path transform="matrix(1,0,0,-1,221.9575,253.07988)" d="M-8-8H8V8H-8Z"/>
</clipPath>
<clipPath id="clip_12">
<path transform="matrix(1,0,0,-1,239.04459,253.07988)" d="M-8-8H8V8H-8Z"/>
</clipPath>
<clipPath id="clip_13">
<path transform="matrix(1,0,0,-1,256.13166,253.07988)" d="M-8-8H8V8H-8Z"/>
</clipPath>
<clipPath id="clip_14">
<path transform="matrix(1,0,0,-1,273.21876,253.07988)" d="M-8-8H8V8H-8Z"/>
</clipPath>
<clipPath id="clip_15">
<path transform="matrix(1,0,0,-1,290.30586,253.07988)" d="M-8-8H8V8H-8Z"/>
</clipPath>
<clipPath id="clip_16">
<path transform="matrix(1,0,0,-1,307.39295,253.07988)" d="M-8-8H8V8H-8Z"/>
</clipPath>
<clipPath id="clip_17">
<path transform="matrix(1,0,0,-1,324.48005,253.07988)" d="M-8-8H8V8H-8Z"/>
</clipPath>
<clipPath id="clip_18">
<path transform="matrix(1,0,0,-1,341.56715,253.07988)" d="M-8-8H8V8H-8Z"/>
</clipPath>
<clipPath id="clip_19">
<path transform="matrix(1,0,0,-1,358.65425,253.07988)" d="M-8-8H8V8H-8Z"/>
</clipPath>
<clipPath id="clip_20">
<path transform="matrix(1,0,0,-1,375.74134,253.07988)" d="M-8-8H8V8H-8Z"/>
</clipPath>
<clipPath id="clip_21">
<path transform="matrix(1,0,0,-1,392.82844,253.07988)" d="M-8-8H8V8H-8Z"/>
</clipPath>
<clipPath id="clip_22">
<path transform="matrix(1,0,0,-1,409.91554,253.07988)" d="M-8-8H8V8H-8Z"/>
</clipPath>
<clipPath id="clip_23">
<path transform="matrix(1,0,0,-1,0,323.4495)" d="M69.02812 50.1375H426.14814V316.2495H69.02812Z"/>
</clipPath>
<clipPath id="clip_24">
<path transform="matrix(1,0,0,-1,85.26085,253.07988)" d="M-8-8H8V8H-8Z"/>
</clipPath>
<clipPath id="clip_25">
<path transform="matrix(1,0,0,-1,102.34793,218.90869)" d="M-8-8H8V8H-8Z"/>
</clipPath>
<clipPath id="clip_26">
<path transform="matrix(1,0,0,-1,119.43501,212.27608)" d="M-8-8H8V8H-8Z"/>
</clipPath>
<clipPath id="clip_27">
<path transform="matrix(1,0,0,-1,136.5221,218.74967)" d="M-8-8H8V8H-8Z"/>
</clipPath>
<clipPath id="clip_28">
<path transform="matrix(1,0,0,-1,153.60918,224.29897)" d="M-8-8H8V8H-8Z"/>
</clipPath>
<clipPath id="clip_29">
<path transform="matrix(1,0,0,-1,170.69626,230.41597)" d="M-8-8H8V8H-8Z"/>
</clipPath>
<clipPath id="clip_30">
<path transform="matrix(1,0,0,-1,187.78334,233.80614)" d="M-8-8H8V8H-8Z"/>
</clipPath>
<clipPath id="clip_31">
<path transform="matrix(1,0,0,-1,204.87042,236.86864)" d="M-8-8H8V8H-8Z"/>
</clipPath>
<clipPath id="clip_32">
<path transform="matrix(1,0,0,-1,221.9575,238.84775)" d="M-8-8H8V8H-8Z"/>
</clipPath>
<clipPath id="clip_33">
<path transform="matrix(1,0,0,-1,239.04459,240.61945)" d="M-8-8H8V8H-8Z"/>
</clipPath>
<clipPath id="clip_34">
<path transform="matrix(1,0,0,-1,256.13166,241.90718)" d="M-8-8H8V8H-8Z"/>
</clipPath>
<clipPath id="clip_35">
<path transform="matrix(1,0,0,-1,273.21876,243.10492)" d="M-8-8H8V8H-8Z"/>
</clipPath>
<clipPath id="clip_36">
<path transform="matrix(1,0,0,-1,290.30586,244.00246)" d="M-8-8H8V8H-8Z"/>
</clipPath>
<clipPath id="clip_37">
<path transform="matrix(1,0,0,-1,307.39295,244.85807)" d="M-8-8H8V8H-8Z"/>
</clipPath>
<clipPath id="clip_38">
<path transform="matrix(1,0,0,-1,324.48005,245.45899)" d="M-8-8H8V8H-8Z"/>
</clipPath>
<clipPath id="clip_39">
<path transform="matrix(1,0,0,-1,341.56715,246.01094)" d="M-8-8H8V8H-8Z"/>
</clipPath>
<clipPath id="clip_40">
<path transform="matrix(1,0,0,-1,358.65425,246.41819)" d="M-8-8H8V8H-8Z"/>
</clipPath>
<clipPath id="clip_41">
<path transform="matrix(1,0,0,-1,375.74134,246.8099)" d="M-8-8H8V8H-8Z"/>
</clipPath>
<clipPath id="clip_42">
<path transform="matrix(1,0,0,-1,392.82844,247.09787)" d="M-8-8H8V8H-8Z"/>
</clipPath>
<clipPath id="clip_43">
<path transform="matrix(1,0,0,-1,409.91554,247.37722)" d="M-8-8H8V8H-8Z"/>
</clipPath>
<clipPath id="clip_44">
<path transform="matrix(1,0,0,-1,0,323.4495)" d="M69.02812 50.1375H426.14814V316.2495H69.02812Z"/>
</clipPath>
<clipPath id="clip_45">
<path transform="matrix(1,0,0,-1,85.26085,253.07988)" d="M-8-8H8V8H-8Z"/>
</clipPath>
<clipPath id="clip_46">
<path transform="matrix(1,0,0,-1,102.34793,215.75524)" d="M-8-8H8V8H-8Z"/>
</clipPath>
<clipPath id="clip_47">
<path transform="matrix(1,0,0,-1,119.43501,186.65784)" d="M-8-8H8V8H-8Z"/>
</clipPath>
<clipPath id="clip_48">
<path transform="matrix(1,0,0,-1,136.5221,178.12509)" d="M-8-8H8V8H-8Z"/>
</clipPath>
<clipPath id="clip_49">
<path transform="matrix(1,0,0,-1,153.60918,197.54163)" d="M-8-8H8V8H-8Z"/>
</clipPath>
<clipPath id="clip_50">
<path transform="matrix(1,0,0,-1,170.69626,214.65502)" d="M-8-8H8V8H-8Z"/>
</clipPath>
<clipPath id="clip_51">
<path transform="matrix(1,0,0,-1,187.78334,228.55246)" d="M-8-8H8V8H-8Z"/>
</clipPath>
<clipPath id="clip_52">
<path transform="matrix(1,0,0,-1,204.87042,234.50238)" d="M-8-8H8V8H-8Z"/>
</clipPath>
<clipPath id="clip_53">
<path transform="matrix(1,0,0,-1,221.9575,238.97057)" d="M-8-8H8V8H-8Z"/>
</clipPath>
<clipPath id="clip_54">
<path transform="matrix(1,0,0,-1,239.04459,241.02802)" d="M-8-8H8V8H-8Z"/>
</clipPath>
<clipPath id="clip_55">
<path transform="matrix(1,0,0,-1,256.13166,243.30326)" d="M-8-8H8V8H-8Z"/>
</clipPath>
<clipPath id="clip_56">
<path transform="matrix(1,0,0,-1,273.21876,244.92908)" d="M-8-8H8V8H-8Z"/>
</clipPath>
<clipPath id="clip_57">
<path transform="matrix(1,0,0,-1,290.30586,246.71834)" d="M-8-8H8V8H-8Z"/>
</clipPath>
<clipPath id="clip_58">
<path transform="matrix(1,0,0,-1,307.39295,248.04648)" d="M-8-8H8V8H-8Z"/>
</clipPath>
<clipPath id="clip_59">
<path transform="matrix(1,0,0,-1,324.48005,249.31514)" d="M-8-8H8V8H-8Z"/>
</clipPath>
<clipPath id="clip_60">
<path transform="matrix(1,0,0,-1,341.56715,250.1802)" d="M-8-8H8V8H-8Z"/>
</clipPath>
<clipPath id="clip_61">
<path transform="matrix(1,0,0,-1,358.65425,250.95534)" d="M-8-8H8V8H-8Z"/>
</clipPath>
<clipPath id="clip_62">
<path transform="matrix(1,0,0,-1,375.74134,251.46497)" d="M-8-8H8V8H-8Z"/>
</clipPath>
<clipPath id="clip_63">
<path transform="matrix(1,0,0,-1,392.82844,251.9113)" d="M-8-8H8V8H-8Z"/>
</clipPath>
<clipPath id="clip_64">
<path transform="matrix(1,0,0,-1,409.91554,252.13175)" d="M-8-8H8V8H-8Z"/>
</clipPath>
<clipPath id="clip_65">
<path transform="matrix(.025,0,0,-.025,921.31369,147.15444)" d="M-1021-463H1794V1233H-1021Z"/>
</clipPath>
<clipPath id="clip_66">
<path transform="matrix(.025,0,0,-.025,921.31369,183.85756)" d="M-1021-463H1794V1233H-1021Z"/>
</clipPath>
</defs>
<path transform="matrix(1,0,0,-1,0,323.4495)" d="M0 0H1052.5669V323.4495H0Z" fill="#ffffff"/>
<path transform="matrix(1,0,0,-1,0,323.4495)" d="M69.02812 50.1375H426.14814V316.2495H69.02812Z" fill="#ffffff"/>
<path transform="matrix(1,0,0,-1,0,323.4495)" d="M153.60918 50.1375V46.6375"/>
<path transform="matrix(1,0,0,-1,0,323.4495)" stroke-width=".8" stroke-linecap="butt" stroke-linejoin="round" fill="none" stroke="#000000" d="M153.60918 50.1375V46.6375"/>
<text xml:space="preserve" transform="matrix(1 0 -0 1 144.0623 291.7026)" font-size="15" font-family="DejaVuSans"><tspan y="0" x="0 9.540001">10</tspan></text>
<path transform="matrix(1,0,0,-1,0,323.4495)" d="M239.04459 50.1375V46.6375"/>
<path transform="matrix(1,0,0,-1,0,323.4495)" stroke-width=".8" stroke-linecap="butt" stroke-linejoin="round" fill="none" stroke="#000000" d="M239.04459 50.1375V46.6375"/>
<text xml:space="preserve" transform="matrix(1 0 -0 1 229.49771 291.7026)" font-size="15" font-family="DejaVuSans"><tspan y="0" x="0 9.540001">20</tspan></text>
<path transform="matrix(1,0,0,-1,0,323.4495)" d="M324.47999 50.1375V46.6375"/>
<path transform="matrix(1,0,0,-1,0,323.4495)" stroke-width=".8" stroke-linecap="butt" stroke-linejoin="round" fill="none" stroke="#000000" d="M324.47999 50.1375V46.6375"/>
<text xml:space="preserve" transform="matrix(1 0 -0 1 314.9331 291.7026)" font-size="15" font-family="DejaVuSans"><tspan y="0" x="0 9.540001">30</tspan></text>
<path transform="matrix(1,0,0,-1,0,323.4495)" d="M409.9154 50.1375V46.6375"/>
<path transform="matrix(1,0,0,-1,0,323.4495)" stroke-width=".8" stroke-linecap="butt" stroke-linejoin="round" fill="none" stroke="#000000" d="M409.9154 50.1375V46.6375"/>
<text xml:space="preserve" transform="matrix(1 0 -0 1 400.36854 291.7026)" font-size="15" font-family="DejaVuSans"><tspan y="0" x="0 9.540001">40</tspan></text>
<text xml:space="preserve" transform="matrix(1 0 -0 1 202.18968 312.49949)" font-size="18" font-family="DejaVuSans"><tspan y="0" x="0 10.451125 15.455126 32.98713 44.05713 49.781129 56.80113 74.33313 83.71113">Time [ms]</tspan></text>
<path transform="matrix(1,0,0,-1,0,323.4495)" d="M69.02812 70.36961H65.52812"/>
<path transform="matrix(1,0,0,-1,0,323.4495)" stroke-width=".8" stroke-linecap="butt" stroke-linejoin="round" fill="none" stroke="#000000" d="M69.02812 70.36961H65.52812"/>
<text xml:space="preserve" transform="matrix(1 0 -0 1 28.621876 258.7752)" font-size="15" font-family="DejaVuSans"><tspan y="0" x="0 9.540001 14.310001 23.850003">0.00</tspan></text>
<path transform="matrix(1,0,0,-1,0,323.4495)" d="M69.02812 104.58189H65.52812"/>
<path transform="matrix(1,0,0,-1,0,323.4495)" stroke-width=".8" stroke-linecap="butt" stroke-linejoin="round" fill="none" stroke="#000000" d="M69.02812 104.58189H65.52812"/>
<text xml:space="preserve" transform="matrix(1 0 -0 1 28.621876 224.56293)" font-size="15" font-family="DejaVuSans"><tspan y="0" x="0 9.540001 14.310001 23.850003">0.05</tspan></text>
<path transform="matrix(1,0,0,-1,0,323.4495)" d="M69.02812 138.79416H65.52812"/>
<path transform="matrix(1,0,0,-1,0,323.4495)" stroke-width=".8" stroke-linecap="butt" stroke-linejoin="round" fill="none" stroke="#000000" d="M69.02812 138.79416H65.52812"/>
<text xml:space="preserve" transform="matrix(1 0 -0 1 28.621876 190.35065)" font-size="15" font-family="DejaVuSans"><tspan y="0" x="0 9.540001 14.310001 23.850003">0.10</tspan></text>
<path transform="matrix(1,0,0,-1,0,323.4495)" d="M69.02812 173.00644H65.52812"/>
<path transform="matrix(1,0,0,-1,0,323.4495)" stroke-width=".8" stroke-linecap="butt" stroke-linejoin="round" fill="none" stroke="#000000" d="M69.02812 173.00644H65.52812"/>
<text xml:space="preserve" transform="matrix(1 0 -0 1 28.621876 156.13837)" font-size="15" font-family="DejaVuSans"><tspan y="0" x="0 9.540001 14.310001 23.850003">0.15</tspan></text>
<path transform="matrix(1,0,0,-1,0,323.4495)" d="M69.02812 207.21872H65.52812"/>
<path transform="matrix(1,0,0,-1,0,323.4495)" stroke-width=".8" stroke-linecap="butt" stroke-linejoin="round" fill="none" stroke="#000000" d="M69.02812 207.21872H65.52812"/>
<text xml:space="preserve" transform="matrix(1 0 -0 1 28.621876 121.92609)" font-size="15" font-family="DejaVuSans"><tspan y="0" x="0 9.540001 14.310001 23.850003">0.20</tspan></text>
<path transform="matrix(1,0,0,-1,0,323.4495)" d="M69.02812 241.431H65.52812"/>
<path transform="matrix(1,0,0,-1,0,323.4495)" stroke-width=".8" stroke-linecap="butt" stroke-linejoin="round" fill="none" stroke="#000000" d="M69.02812 241.431H65.52812"/>
<text xml:space="preserve" transform="matrix(1 0 -0 1 28.621876 87.713809)" font-size="15" font-family="DejaVuSans"><tspan y="0" x="0 9.540001 14.310001 23.850003">0.25</tspan></text>
<path transform="matrix(1,0,0,-1,0,323.4495)" d="M69.02812 275.64329H65.52812"/>
<path transform="matrix(1,0,0,-1,0,323.4495)" stroke-width=".8" stroke-linecap="butt" stroke-linejoin="round" fill="none" stroke="#000000" d="M69.02812 275.64329H65.52812"/>
<text xml:space="preserve" transform="matrix(1 0 -0 1 28.621876 53.501527)" font-size="15" font-family="DejaVuSans"><tspan y="0" x="0 9.540001 14.310001 23.850003">0.30</tspan></text>
<path transform="matrix(1,0,0,-1,0,323.4495)" d="M69.02812 309.85557H65.52812"/>
<path transform="matrix(1,0,0,-1,0,323.4495)" stroke-width=".8" stroke-linecap="butt" stroke-linejoin="round" fill="none" stroke="#000000" d="M69.02812 309.85557H65.52812"/>
<text xml:space="preserve" transform="matrix(1 0 -0 1 28.621876 19.289246)" font-size="15" font-family="DejaVuSans"><tspan y="0" x="0 9.540001 14.310001 23.850003">0.35</tspan></text>
<text xml:space="preserve" transform="matrix(0 -1 1 0 20.871876 181.70912)" font-size="18" font-family="DejaVuSans"><tspan y="0" x="0 5.3100006 16.740002 29.250004 34.974004 41.994005 53.028005 58.752004 70.164 75.888">ISR [a.u.]</tspan></text>
<g clip-path="url(#clip_0)">
<path transform="matrix(1,0,0,-1,0,323.4495)" stroke-width=".5" stroke-linecap="butt" stroke-linejoin="round" fill="none" stroke="#0000ff" d="M85.26085 70.36961V70.36961"/>
<path transform="matrix(1,0,0,-1,0,323.4495)" stroke-width=".5" stroke-linecap="butt" stroke-linejoin="round" fill="none" stroke="#0000ff" d="M102.34793 64.152698V144.92893"/>
<path transform="matrix(1,0,0,-1,0,323.4495)" stroke-width=".5" stroke-linecap="butt" stroke-linejoin="round" fill="none" stroke="#0000ff" d="M119.43501 62.2335V160.11334"/>
<path transform="matrix(1,0,0,-1,0,323.4495)" stroke-width=".5" stroke-linecap="butt" stroke-linejoin="round" fill="none" stroke="#0000ff" d="M136.5221 66.485309V142.91436"/>
<path transform="matrix(1,0,0,-1,0,323.4495)" stroke-width=".5" stroke-linecap="butt" stroke-linejoin="round" fill="none" stroke="#0000ff" d="M153.60918 69.522029V128.77904"/>
<path transform="matrix(1,0,0,-1,0,323.4495)" stroke-width=".5" stroke-linecap="butt" stroke-linejoin="round" fill="none" stroke="#0000ff" d="M170.69626 73.23835V112.82871"/>
<path transform="matrix(1,0,0,-1,0,323.4495)" stroke-width=".5" stroke-linecap="butt" stroke-linejoin="round" fill="none" stroke="#0000ff" d="M187.78334 75.50596V103.78077"/>
<path transform="matrix(1,0,0,-1,0,323.4495)" stroke-width=".5" stroke-linecap="butt" stroke-linejoin="round" fill="none" stroke="#0000ff" d="M204.87042 77.142498V96.01923"/>
<path transform="matrix(1,0,0,-1,0,323.4495)" stroke-width=".5" stroke-linecap="butt" stroke-linejoin="round" fill="none" stroke="#0000ff" d="M221.9575 78.370288V90.83324"/>
<path transform="matrix(1,0,0,-1,0,323.4495)" stroke-width=".5" stroke-linecap="butt" stroke-linejoin="round" fill="none" stroke="#0000ff" d="M239.04459 78.91769V86.742458"/>
<path transform="matrix(1,0,0,-1,0,323.4495)" stroke-width=".5" stroke-linecap="butt" stroke-linejoin="round" fill="none" stroke="#0000ff" d="M256.13166 79.45084V83.63383"/>
<path transform="matrix(1,0,0,-1,0,323.4495)" stroke-width=".5" stroke-linecap="butt" stroke-linejoin="round" fill="none" stroke="#0000ff" d="M273.21876 79.45743V81.23178"/>
<path transform="matrix(1,0,0,-1,0,323.4495)" stroke-width=".5" stroke-linecap="butt" stroke-linejoin="round" fill="none" stroke="#0000ff" d="M290.30583 79.12787V79.76625"/>
<path transform="matrix(1,0,0,-1,0,323.4495)" stroke-width=".5" stroke-linecap="butt" stroke-linejoin="round" fill="none" stroke="#0000ff" d="M307.3929 77.60918V79.573749"/>
<path transform="matrix(1,0,0,-1,0,323.4495)" stroke-width=".5" stroke-linecap="butt" stroke-linejoin="round" fill="none" stroke="#0000ff" d="M324.47999 76.47999V79.50109"/>
<path transform="matrix(1,0,0,-1,0,323.4495)" stroke-width=".5" stroke-linecap="butt" stroke-linejoin="round" fill="none" stroke="#0000ff" d="M341.56709 75.59661V79.280559"/>
<path transform="matrix(1,0,0,-1,0,323.4495)" stroke-width=".5" stroke-linecap="butt" stroke-linejoin="round" fill="none" stroke="#0000ff" d="M358.65415 74.90087V79.161808"/>
<path transform="matrix(1,0,0,-1,0,323.4495)" stroke-width=".5" stroke-linecap="butt" stroke-linejoin="round" fill="none" stroke="#0000ff" d="M375.74125 74.321208V78.95801"/>
<path transform="matrix(1,0,0,-1,0,323.4495)" stroke-width=".5" stroke-linecap="butt" stroke-linejoin="round" fill="none" stroke="#0000ff" d="M392.8283 73.86585V78.837429"/>
<path transform="matrix(1,0,0,-1,0,323.4495)" stroke-width=".5" stroke-linecap="butt" stroke-linejoin="round" fill="none" stroke="#0000ff" d="M409.9154 73.4749V78.6697"/>
</g>
<g clip-path="url(#clip_1)">
<path transform="matrix(1,0,0,-1,0,323.4495)" stroke-width=".5" stroke-linecap="butt" stroke-linejoin="round" fill="none" stroke="#ffa500" d="M85.26085 70.36961V70.36961"/>
<path transform="matrix(1,0,0,-1,0,323.4495)" stroke-width=".5" stroke-linecap="butt" stroke-linejoin="round" fill="none" stroke="#ffa500" d="M102.34793 78.81724V136.57126"/>
<path transform="matrix(1,0,0,-1,0,323.4495)" stroke-width=".5" stroke-linecap="butt" stroke-linejoin="round" fill="none" stroke="#ffa500" d="M119.43501 110.83022V162.75308"/>
<path transform="matrix(1,0,0,-1,0,323.4495)" stroke-width=".5" stroke-linecap="butt" stroke-linejoin="round" fill="none" stroke="#ffa500" d="M136.5221 104.52423V186.12458"/>
<path transform="matrix(1,0,0,-1,0,323.4495)" stroke-width=".5" stroke-linecap="butt" stroke-linejoin="round" fill="none" stroke="#ffa500" d="M153.60918 94.48931V157.32643"/>
<path transform="matrix(1,0,0,-1,0,323.4495)" stroke-width=".5" stroke-linecap="butt" stroke-linejoin="round" fill="none" stroke="#ffa500" d="M170.69626 92.63327V124.955699"/>
<path transform="matrix(1,0,0,-1,0,323.4495)" stroke-width=".5" stroke-linecap="butt" stroke-linejoin="round" fill="none" stroke="#ffa500" d="M187.78334 85.76509V104.028987"/>
<path transform="matrix(1,0,0,-1,0,323.4495)" stroke-width=".5" stroke-linecap="butt" stroke-linejoin="round" fill="none" stroke="#ffa500" d="M204.87042 81.146488V96.74776"/>
<path transform="matrix(1,0,0,-1,0,323.4495)" stroke-width=".5" stroke-linecap="butt" stroke-linejoin="round" fill="none" stroke="#ffa500" d="M221.9575 77.49874V91.459148"/>
<path transform="matrix(1,0,0,-1,0,323.4495)" stroke-width=".5" stroke-linecap="butt" stroke-linejoin="round" fill="none" stroke="#ffa500" d="M239.04459 75.50235V89.34063"/>
<path transform="matrix(1,0,0,-1,0,323.4495)" stroke-width=".5" stroke-linecap="butt" stroke-linejoin="round" fill="none" stroke="#ffa500" d="M256.13166 73.44241V86.8501"/>
<path transform="matrix(1,0,0,-1,0,323.4495)" stroke-width=".5" stroke-linecap="butt" stroke-linejoin="round" fill="none" stroke="#ffa500" d="M273.21876 72.42336V84.6175"/>
<path transform="matrix(1,0,0,-1,0,323.4495)" stroke-width=".5" stroke-linecap="butt" stroke-linejoin="round" fill="none" stroke="#ffa500" d="M290.30583 71.50709V81.95525"/>
<path transform="matrix(1,0,0,-1,0,323.4495)" stroke-width=".5" stroke-linecap="butt" stroke-linejoin="round" fill="none" stroke="#ffa500" d="M307.3929 71.119579V79.68648"/>
<path transform="matrix(1,0,0,-1,0,323.4495)" stroke-width=".5" stroke-linecap="butt" stroke-linejoin="round" fill="none" stroke="#ffa500" d="M324.47999 70.665599V77.60313"/>
<path transform="matrix(1,0,0,-1,0,323.4495)" stroke-width=".5" stroke-linecap="butt" stroke-linejoin="round" fill="none" stroke="#ffa500" d="M341.56709 70.456157V76.08243"/>
<path transform="matrix(1,0,0,-1,0,323.4495)" stroke-width=".5" stroke-linecap="butt" stroke-linejoin="round" fill="none" stroke="#ffa500" d="M358.65415 70.1666V74.8217"/>
<path transform="matrix(1,0,0,-1,0,323.4495)" stroke-width=".5" stroke-linecap="butt" stroke-linejoin="round" fill="none" stroke="#ffa500" d="M375.74125 70.05244V73.91662"/>
<path transform="matrix(1,0,0,-1,0,323.4495)" stroke-width=".5" stroke-linecap="butt" stroke-linejoin="round" fill="none" stroke="#ffa500" d="M392.8283 69.88557V73.190837"/>
<path transform="matrix(1,0,0,-1,0,323.4495)" stroke-width=".5" stroke-linecap="butt" stroke-linejoin="round" fill="none" stroke="#ffa500" d="M409.9154 69.976879V72.65862"/>
</g>
<g clip-path="url(#clip_2)">
<path transform="matrix(1,0,0,-1,0,323.4495)" stroke-width=".5" stroke-linecap="butt" stroke-dasharray="1.85,.8" stroke-linejoin="round" fill="none" stroke="#000000" d="M85.26085 70.36961H102.34793L119.43501 224.32486 136.5221 304.1535 153.60918 252.83509 170.69626 110.283939 187.78334 70.36961H204.87042 221.9575 239.04459 256.13166 273.21876 290.30583 307.3929 324.47999 341.56709 358.65415 375.74125 392.8283 409.9154"/>
<g clip-path="url(#clip_3)">
<path transform="matrix(1,0,0,-1,85.26085,253.07988)" d="M0-3C.795609-3 1.55874-2.683901 2.12132-2.12132 2.683901-1.55874 3-.795609 3 0 3 .795609 2.683901 1.55874 2.12132 2.12132 1.55874 2.683901 .795609 3 0 3-.795609 3-1.55874 2.683901-2.12132 2.12132-2.683901 1.55874-3 .795609-3 0-3-.795609-2.683901-1.55874-2.12132-2.12132-1.55874-2.683901-.795609-3 0-3Z"/>
<path transform="matrix(1,0,0,-1,85.26085,253.07988)" stroke-width="1" stroke-linecap="butt" stroke-linejoin="round" fill="none" stroke="#000000" d="M0-3C.795609-3 1.55874-2.683901 2.12132-2.12132 2.683901-1.55874 3-.795609 3 0 3 .795609 2.683901 1.55874 2.12132 2.12132 1.55874 2.683901 .795609 3 0 3-.795609 3-1.55874 2.683901-2.12132 2.12132-2.683901 1.55874-3 .795609-3 0-3-.795609-2.683901-1.55874-2.12132-2.12132-1.55874-2.683901-.795609-3 0-3Z"/>
</g>
<g clip-path="url(#clip_4)">
<path transform="matrix(1,0,0,-1,102.34793,253.07988)" d="M0-3C.795609-3 1.55874-2.683901 2.12132-2.12132 2.683901-1.55874 3-.795609 3 0 3 .795609 2.683901 1.55874 2.12132 2.12132 1.55874 2.683901 .795609 3 0 3-.795609 3-1.55874 2.683901-2.12132 2.12132-2.683901 1.55874-3 .795609-3 0-3-.795609-2.683901-1.55874-2.12132-2.12132-1.55874-2.683901-.795609-3 0-3Z"/>
<path transform="matrix(1,0,0,-1,102.34793,253.07988)" stroke-width="1" stroke-linecap="butt" stroke-linejoin="round" fill="none" stroke="#000000" d="M0-3C.795609-3 1.55874-2.683901 2.12132-2.12132 2.683901-1.55874 3-.795609 3 0 3 .795609 2.683901 1.55874 2.12132 2.12132 1.55874 2.683901 .795609 3 0 3-.795609 3-1.55874 2.683901-2.12132 2.12132-2.683901 1.55874-3 .795609-3 0-3-.795609-2.683901-1.55874-2.12132-2.12132-1.55874-2.683901-.795609-3 0-3Z"/>
</g>
<g clip-path="url(#clip_5)">
<path transform="matrix(1,0,0,-1,119.43501,99.12463)" d="M0-3C.795609-3 1.55874-2.683901 2.12132-2.12132 2.683901-1.55874 3-.795609 3 0 3 .795609 2.683901 1.55874 2.12132 2.12132 1.55874 2.683901 .795609 3 0 3-.795609 3-1.55874 2.683901-2.12132 2.12132-2.683901 1.55874-3 .795609-3 0-3-.795609-2.683901-1.55874-2.12132-2.12132-1.55874-2.683901-.795609-3 0-3Z"/>
<path transform="matrix(1,0,0,-1,119.43501,99.12463)" stroke-width="1" stroke-linecap="butt" stroke-linejoin="round" fill="none" stroke="#000000" d="M0-3C.795609-3 1.55874-2.683901 2.12132-2.12132 2.683901-1.55874 3-.795609 3 0 3 .795609 2.683901 1.55874 2.12132 2.12132 1.55874 2.683901 .795609 3 0 3-.795609 3-1.55874 2.683901-2.12132 2.12132-2.683901 1.55874-3 .795609-3 0-3-.795609-2.683901-1.55874-2.12132-2.12132-1.55874-2.683901-.795609-3 0-3Z"/>
</g>
<g clip-path="url(#clip_6)">
<path transform="matrix(1,0,0,-1,136.5221,19.29599)" d="M0-3C.795609-3 1.55874-2.683901 2.12132-2.12132 2.683901-1.55874 3-.795609 3 0 3 .795609 2.683901 1.55874 2.12132 2.12132 1.55874 2.683901 .795609 3 0 3-.795609 3-1.55874 2.683901-2.12132 2.12132-2.683901 1.55874-3 .795609-3 0-3-.795609-2.683901-1.55874-2.12132-2.12132-1.55874-2.683901-.795609-3 0-3Z"/>
<path transform="matrix(1,0,0,-1,136.5221,19.29599)" stroke-width="1" stroke-linecap="butt" stroke-linejoin="round" fill="none" stroke="#000000" d="M0-3C.795609-3 1.55874-2.683901 2.12132-2.12132 2.683901-1.55874 3-.795609 3 0 3 .795609 2.683901 1.55874 2.12132 2.12132 1.55874 2.683901 .795609 3 0 3-.795609 3-1.55874 2.683901-2.12132 2.12132-2.683901 1.55874-3 .795609-3 0-3-.795609-2.683901-1.55874-2.12132-2.12132-1.55874-2.683901-.795609-3 0-3Z"/>
</g>
<g clip-path="url(#clip_7)">
<path transform="matrix(1,0,0,-1,153.60918,70.6144)" d="M0-3C.795609-3 1.55874-2.683901 2.12132-2.12132 2.683901-1.55874 3-.795609 3 0 3 .795609 2.683901 1.55874 2.12132 2.12132 1.55874 2.683901 .795609 3 0 3-.795609 3-1.55874 2.683901-2.12132 2.12132-2.683901 1.55874-3 .795609-3 0-3-.795609-2.683901-1.55874-2.12132-2.12132-1.55874-2.683901-.795609-3 0-3Z"/>
<path transform="matrix(1,0,0,-1,153.60918,70.6144)" stroke-width="1" stroke-linecap="butt" stroke-linejoin="round" fill="none" stroke="#000000" d="M0-3C.795609-3 1.55874-2.683901 2.12132-2.12132 2.683901-1.55874 3-.795609 3 0 3 .795609 2.683901 1.55874 2.12132 2.12132 1.55874 2.683901 .795609 3 0 3-.795609 3-1.55874 2.683901-2.12132 2.12132-2.683901 1.55874-3 .795609-3 0-3-.795609-2.683901-1.55874-2.12132-2.12132-1.55874-2.683901-.795609-3 0-3Z"/>
</g>
<g clip-path="url(#clip_8)">
<path transform="matrix(1,0,0,-1,170.69626,213.16556)" d="M0-3C.795609-3 1.55874-2.683901 2.12132-2.12132 2.683901-1.55874 3-.795609 3 0 3 .795609 2.683901 1.55874 2.12132 2.12132 1.55874 2.683901 .795609 3 0 3-.795609 3-1.55874 2.683901-2.12132 2.12132-2.683901 1.55874-3 .795609-3 0-3-.795609-2.683901-1.55874-2.12132-2.12132-1.55874-2.683901-.795609-3 0-3Z"/>
<path transform="matrix(1,0,0,-1,170.69626,213.16556)" stroke-width="1" stroke-linecap="butt" stroke-linejoin="round" fill="none" stroke="#000000" d="M0-3C.795609-3 1.55874-2.683901 2.12132-2.12132 2.683901-1.55874 3-.795609 3 0 3 .795609 2.683901 1.55874 2.12132 2.12132 1.55874 2.683901 .795609 3 0 3-.795609 3-1.55874 2.683901-2.12132 2.12132-2.683901 1.55874-3 .795609-3 0-3-.795609-2.683901-1.55874-2.12132-2.12132-1.55874-2.683901-.795609-3 0-3Z"/>
</g>
<g clip-path="url(#clip_9)">
<path transform="matrix(1,0,0,-1,187.78334,253.07988)" d="M0-3C.795609-3 1.55874-2.683901 2.12132-2.12132 2.683901-1.55874 3-.795609 3 0 3 .795609 2.683901 1.55874 2.12132 2.12132 1.55874 2.683901 .795609 3 0 3-.795609 3-1.55874 2.683901-2.12132 2.12132-2.683901 1.55874-3 .795609-3 0-3-.795609-2.683901-1.55874-2.12132-2.12132-1.55874-2.683901-.795609-3 0-3Z"/>
<path transform="matrix(1,0,0,-1,187.78334,253.07988)" stroke-width="1" stroke-linecap="butt" stroke-linejoin="round" fill="none" stroke="#000000" d="M0-3C.795609-3 1.55874-2.683901 2.12132-2.12132 2.683901-1.55874 3-.795609 3 0 3 .795609 2.683901 1.55874 2.12132 2.12132 1.55874 2.683901 .795609 3 0 3-.795609 3-1.55874 2.683901-2.12132 2.12132-2.683901 1.55874-3 .795609-3 0-3-.795609-2.683901-1.55874-2.12132-2.12132-1.55874-2.683901-.795609-3 0-3Z"/>
</g>
<g clip-path="url(#clip_10)">
<path transform="matrix(1,0,0,-1,204.87042,253.07988)" d="M0-3C.795609-3 1.55874-2.683901 2.12132-2.12132 2.683901-1.55874 3-.795609 3 0 3 .795609 2.683901 1.55874 2.12132 2.12132 1.55874 2.683901 .795609 3 0 3-.795609 3-1.55874 2.683901-2.12132 2.12132-2.683901 1.55874-3 .795609-3 0-3-.795609-2.683901-1.55874-2.12132-2.12132-1.55874-2.683901-.795609-3 0-3Z"/>
<path transform="matrix(1,0,0,-1,204.87042,253.07988)" stroke-width="1" stroke-linecap="butt" stroke-linejoin="round" fill="none" stroke="#000000" d="M0-3C.795609-3 1.55874-2.683901 2.12132-2.12132 2.683901-1.55874 3-.795609 3 0 3 .795609 2.683901 1.55874 2.12132 2.12132 1.55874 2.683901 .795609 3 0 3-.795609 3-1.55874 2.683901-2.12132 2.12132-2.683901 1.55874-3 .795609-3 0-3-.795609-2.683901-1.55874-2.12132-2.12132-1.55874-2.683901-.795609-3 0-3Z"/>
</g>
<g clip-path="url(#clip_11)">
<path transform="matrix(1,0,0,-1,221.9575,253.07988)" d="M0-3C.795609-3 1.55874-2.683901 2.12132-2.12132 2.683901-1.55874 3-.795609 3 0 3 .795609 2.683901 1.55874 2.12132 2.12132 1.55874 2.683901 .795609 3 0 3-.795609 3-1.55874 2.683901-2.12132 2.12132-2.683901 1.55874-3 .795609-3 0-3-.795609-2.683901-1.55874-2.12132-2.12132-1.55874-2.683901-.795609-3 0-3Z"/>
<path transform="matrix(1,0,0,-1,221.9575,253.07988)" stroke-width="1" stroke-linecap="butt" stroke-linejoin="round" fill="none" stroke="#000000" d="M0-3C.795609-3 1.55874-2.683901 2.12132-2.12132 2.683901-1.55874 3-.795609 3 0 3 .795609 2.683901 1.55874 2.12132 2.12132 1.55874 2.683901 .795609 3 0 3-.795609 3-1.55874 2.683901-2.12132 2.12132-2.683901 1.55874-3 .795609-3 0-3-.795609-2.683901-1.55874-2.12132-2.12132-1.55874-2.683901-.795609-3 0-3Z"/>
</g>
<g clip-path="url(#clip_12)">
<path transform="matrix(1,0,0,-1,239.04459,253.07988)" d="M0-3C.795609-3 1.55874-2.683901 2.12132-2.12132 2.683901-1.55874 3-.795609 3 0 3 .795609 2.683901 1.55874 2.12132 2.12132 1.55874 2.683901 .795609 3 0 3-.795609 3-1.55874 2.683901-2.12132 2.12132-2.683901 1.55874-3 .795609-3 0-3-.795609-2.683901-1.55874-2.12132-2.12132-1.55874-2.683901-.795609-3 0-3Z"/>
<path transform="matrix(1,0,0,-1,239.04459,253.07988)" stroke-width="1" stroke-linecap="butt" stroke-linejoin="round" fill="none" stroke="#000000" d="M0-3C.795609-3 1.55874-2.683901 2.12132-2.12132 2.683901-1.55874 3-.795609 3 0 3 .795609 2.683901 1.55874 2.12132 2.12132 1.55874 2.683901 .795609 3 0 3-.795609 3-1.55874 2.683901-2.12132 2.12132-2.683901 1.55874-3 .795609-3 0-3-.795609-2.683901-1.55874-2.12132-2.12132-1.55874-2.683901-.795609-3 0-3Z"/>
</g>
<g clip-path="url(#clip_13)">
<path transform="matrix(1,0,0,-1,256.13166,253.07988)" d="M0-3C.795609-3 1.55874-2.683901 2.12132-2.12132 2.683901-1.55874 3-.795609 3 0 3 .795609 2.683901 1.55874 2.12132 2.12132 1.55874 2.683901 .795609 3 0 3-.795609 3-1.55874 2.683901-2.12132 2.12132-2.683901 1.55874-3 .795609-3 0-3-.795609-2.683901-1.55874-2.12132-2.12132-1.55874-2.683901-.795609-3 0-3Z"/>
<path transform="matrix(1,0,0,-1,256.13166,253.07988)" stroke-width="1" stroke-linecap="butt" stroke-linejoin="round" fill="none" stroke="#000000" d="M0-3C.795609-3 1.55874-2.683901 2.12132-2.12132 2.683901-1.55874 3-.795609 3 0 3 .795609 2.683901 1.55874 2.12132 2.12132 1.55874 2.683901 .795609 3 0 3-.795609 3-1.55874 2.683901-2.12132 2.12132-2.683901 1.55874-3 .795609-3 0-3-.795609-2.683901-1.55874-2.12132-2.12132-1.55874-2.683901-.795609-3 0-3Z"/>
</g>
<g clip-path="url(#clip_14)">
<path transform="matrix(1,0,0,-1,273.21876,253.07988)" d="M0-3C.795609-3 1.55874-2.683901 2.12132-2.12132 2.683901-1.55874 3-.795609 3 0 3 .795609 2.683901 1.55874 2.12132 2.12132 1.55874 2.683901 .795609 3 0 3-.795609 3-1.55874 2.683901-2.12132 2.12132-2.683901 1.55874-3 .795609-3 0-3-.795609-2.683901-1.55874-2.12132-2.12132-1.55874-2.683901-.795609-3 0-3Z"/>
<path transform="matrix(1,0,0,-1,273.21876,253.07988)" stroke-width="1" stroke-linecap="butt" stroke-linejoin="round" fill="none" stroke="#000000" d="M0-3C.795609-3 1.55874-2.683901 2.12132-2.12132 2.683901-1.55874 3-.795609 3 0 3 .795609 2.683901 1.55874 2.12132 2.12132 1.55874 2.683901 .795609 3 0 3-.795609 3-1.55874 2.683901-2.12132 2.12132-2.683901 1.55874-3 .795609-3 0-3-.795609-2.683901-1.55874-2.12132-2.12132-1.55874-2.683901-.795609-3 0-3Z"/>
</g>
<g clip-path="url(#clip_15)">
<path transform="matrix(1,0,0,-1,290.30586,253.07988)" d="M0-3C.795609-3 1.55874-2.683901 2.12132-2.12132 2.683901-1.55874 3-.795609 3 0 3 .795609 2.683901 1.55874 2.12132 2.12132 1.55874 2.683901 .795609 3 0 3-.795609 3-1.55874 2.683901-2.12132 2.12132-2.683901 1.55874-3 .795609-3 0-3-.795609-2.683901-1.55874-2.12132-2.12132-1.55874-2.683901-.795609-3 0-3Z"/>
<path transform="matrix(1,0,0,-1,290.30586,253.07988)" stroke-width="1" stroke-linecap="butt" stroke-linejoin="round" fill="none" stroke="#000000" d="M0-3C.795609-3 1.55874-2.683901 2.12132-2.12132 2.683901-1.55874 3-.795609 3 0 3 .795609 2.683901 1.55874 2.12132 2.12132 1.55874 2.683901 .795609 3 0 3-.795609 3-1.55874 2.683901-2.12132 2.12132-2.683901 1.55874-3 .795609-3 0-3-.795609-2.683901-1.55874-2.12132-2.12132-1.55874-2.683901-.795609-3 0-3Z"/>
</g>
<g clip-path="url(#clip_16)">
<path transform="matrix(1,0,0,-1,307.39295,253.07988)" d="M0-3C.795609-3 1.55874-2.683901 2.12132-2.12132 2.683901-1.55874 3-.795609 3 0 3 .795609 2.683901 1.55874 2.12132 2.12132 1.55874 2.683901 .795609 3 0 3-.795609 3-1.55874 2.683901-2.12132 2.12132-2.683901 1.55874-3 .795609-3 0-3-.795609-2.683901-1.55874-2.12132-2.12132-1.55874-2.683901-.795609-3 0-3Z"/>
<path transform="matrix(1,0,0,-1,307.39295,253.07988)" stroke-width="1" stroke-linecap="butt" stroke-linejoin="round" fill="none" stroke="#000000" d="M0-3C.795609-3 1.55874-2.683901 2.12132-2.12132 2.683901-1.55874 3-.795609 3 0 3 .795609 2.683901 1.55874 2.12132 2.12132 1.55874 2.683901 .795609 3 0 3-.795609 3-1.55874 2.683901-2.12132 2.12132-2.683901 1.55874-3 .795609-3 0-3-.795609-2.683901-1.55874-2.12132-2.12132-1.55874-2.683901-.795609-3 0-3Z"/>
</g>
<g clip-path="url(#clip_17)">
<path transform="matrix(1,0,0,-1,324.48005,253.07988)" d="M0-3C.795609-3 1.55874-2.683901 2.12132-2.12132 2.683901-1.55874 3-.795609 3 0 3 .795609 2.683901 1.55874 2.12132 2.12132 1.55874 2.683901 .795609 3 0 3-.795609 3-1.55874 2.683901-2.12132 2.12132-2.683901 1.55874-3 .795609-3 0-3-.795609-2.683901-1.55874-2.12132-2.12132-1.55874-2.683901-.795609-3 0-3Z"/>
<path transform="matrix(1,0,0,-1,324.48005,253.07988)" stroke-width="1" stroke-linecap="butt" stroke-linejoin="round" fill="none" stroke="#000000" d="M0-3C.795609-3 1.55874-2.683901 2.12132-2.12132 2.683901-1.55874 3-.795609 3 0 3 .795609 2.683901 1.55874 2.12132 2.12132 1.55874 2.683901 .795609 3 0 3-.795609 3-1.55874 2.683901-2.12132 2.12132-2.683901 1.55874-3 .795609-3 0-3-.795609-2.683901-1.55874-2.12132-2.12132-1.55874-2.683901-.795609-3 0-3Z"/>
</g>
<g clip-path="url(#clip_18)">
<path transform="matrix(1,0,0,-1,341.56715,253.07988)" d="M0-3C.795609-3 1.55874-2.683901 2.12132-2.12132 2.683901-1.55874 3-.795609 3 0 3 .795609 2.683901 1.55874 2.12132 2.12132 1.55874 2.683901 .795609 3 0 3-.795609 3-1.55874 2.683901-2.12132 2.12132-2.683901 1.55874-3 .795609-3 0-3-.795609-2.683901-1.55874-2.12132-2.12132-1.55874-2.683901-.795609-3 0-3Z"/>
<path transform="matrix(1,0,0,-1,341.56715,253.07988)" stroke-width="1" stroke-linecap="butt" stroke-linejoin="round" fill="none" stroke="#000000" d="M0-3C.795609-3 1.55874-2.683901 2.12132-2.12132 2.683901-1.55874 3-.795609 3 0 3 .795609 2.683901 1.55874 2.12132 2.12132 1.55874 2.683901 .795609 3 0 3-.795609 3-1.55874 2.683901-2.12132 2.12132-2.683901 1.55874-3 .795609-3 0-3-.795609-2.683901-1.55874-2.12132-2.12132-1.55874-2.683901-.795609-3 0-3Z"/>
</g>
<g clip-path="url(#clip_19)">
<path transform="matrix(1,0,0,-1,358.65425,253.07988)" d="M0-3C.795609-3 1.55874-2.683901 2.12132-2.12132 2.683901-1.55874 3-.795609 3 0 3 .795609 2.683901 1.55874 2.12132 2.12132 1.55874 2.683901 .795609 3 0 3-.795609 3-1.55874 2.683901-2.12132 2.12132-2.683901 1.55874-3 .795609-3 0-3-.795609-2.683901-1.55874-2.12132-2.12132-1.55874-2.683901-.795609-3 0-3Z"/>
<path transform="matrix(1,0,0,-1,358.65425,253.07988)" stroke-width="1" stroke-linecap="butt" stroke-linejoin="round" fill="none" stroke="#000000" d="M0-3C.795609-3 1.55874-2.683901 2.12132-2.12132 2.683901-1.55874 3-.795609 3 0 3 .795609 2.683901 1.55874 2.12132 2.12132 1.55874 2.683901 .795609 3 0 3-.795609 3-1.55874 2.683901-2.12132 2.12132-2.683901 1.55874-3 .795609-3 0-3-.795609-2.683901-1.55874-2.12132-2.12132-1.55874-2.683901-.795609-3 0-3Z"/>
</g>
<g clip-path="url(#clip_20)">
<path transform="matrix(1,0,0,-1,375.74134,253.07988)" d="M0-3C.795609-3 1.55874-2.683901 2.12132-2.12132 2.683901-1.55874 3-.795609 3 0 3 .795609 2.683901 1.55874 2.12132 2.12132 1.55874 2.683901 .795609 3 0 3-.795609 3-1.55874 2.683901-2.12132 2.12132-2.683901 1.55874-3 .795609-3 0-3-.795609-2.683901-1.55874-2.12132-2.12132-1.55874-2.683901-.795609-3 0-3Z"/>
<path transform="matrix(1,0,0,-1,375.74134,253.07988)" stroke-width="1" stroke-linecap="butt" stroke-linejoin="round" fill="none" stroke="#000000" d="M0-3C.795609-3 1.55874-2.683901 2.12132-2.12132 2.683901-1.55874 3-.795609 3 0 3 .795609 2.683901 1.55874 2.12132 2.12132 1.55874 2.683901 .795609 3 0 3-.795609 3-1.55874 2.683901-2.12132 2.12132-2.683901 1.55874-3 .795609-3 0-3-.795609-2.683901-1.55874-2.12132-2.12132-1.55874-2.683901-.795609-3 0-3Z"/>
</g>
<g clip-path="url(#clip_21)">
<path transform="matrix(1,0,0,-1,392.82844,253.07988)" d="M0-3C.795609-3 1.55874-2.683901 2.12132-2.12132 2.683901-1.55874 3-.795609 3 0 3 .795609 2.683901 1.55874 2.12132 2.12132 1.55874 2.683901 .795609 3 0 3-.795609 3-1.55874 2.683901-2.12132 2.12132-2.683901 1.55874-3 .795609-3 0-3-.795609-2.683901-1.55874-2.12132-2.12132-1.55874-2.683901-.795609-3 0-3Z"/>
<path transform="matrix(1,0,0,-1,392.82844,253.07988)" stroke-width="1" stroke-linecap="butt" stroke-linejoin="round" fill="none" stroke="#000000" d="M0-3C.795609-3 1.55874-2.683901 2.12132-2.12132 2.683901-1.55874 3-.795609 3 0 3 .795609 2.683901 1.55874 2.12132 2.12132 1.55874 2.683901 .795609 3 0 3-.795609 3-1.55874 2.683901-2.12132 2.12132-2.683901 1.55874-3 .795609-3 0-3-.795609-2.683901-1.55874-2.12132-2.12132-1.55874-2.683901-.795609-3 0-3Z"/>
</g>
<g clip-path="url(#clip_22)">
<path transform="matrix(1,0,0,-1,409.91554,253.07988)" d="M0-3C.795609-3 1.55874-2.683901 2.12132-2.12132 2.683901-1.55874 3-.795609 3 0 3 .795609 2.683901 1.55874 2.12132 2.12132 1.55874 2.683901 .795609 3 0 3-.795609 3-1.55874 2.683901-2.12132 2.12132-2.683901 1.55874-3 .795609-3 0-3-.795609-2.683901-1.55874-2.12132-2.12132-1.55874-2.683901-.795609-3 0-3Z"/>
<path transform="matrix(1,0,0,-1,409.91554,253.07988)" stroke-width="1" stroke-linecap="butt" stroke-linejoin="round" fill="none" stroke="#000000" d="M0-3C.795609-3 1.55874-2.683901 2.12132-2.12132 2.683901-1.55874 3-.795609 3 0 3 .795609 2.683901 1.55874 2.12132 2.12132 1.55874 2.683901 .795609 3 0 3-.795609 3-1.55874 2.683901-2.12132 2.12132-2.683901 1.55874-3 .795609-3 0-3-.795609-2.683901-1.55874-2.12132-2.12132-1.55874-2.683901-.795609-3 0-3Z"/>
</g>
</g>
<g clip-path="url(#clip_23)">
<path transform="matrix(1,0,0,-1,0,323.4495)" stroke-width=".5" stroke-linecap="butt" stroke-dasharray="1.85,.8" stroke-linejoin="round" fill="none" stroke="#0000ff" d="M85.26085 70.36961 102.34793 104.54081 119.43501 111.17342 136.5221 104.69983 153.60918 99.150539 170.69626 93.03353 187.78334 89.643367 204.87042 86.580867 221.9575 84.60176 239.04459 82.83007 256.13166 81.542339 273.21876 80.344608 290.30583 79.44706 307.3929 78.59146 324.47999 77.99054 341.56709 77.43858 358.65415 77.03134 375.74125 76.63961 392.8283 76.35164 409.9154 76.072299"/>
<g clip-path="url(#clip_24)">
<path transform="matrix(1,0,0,-1,85.26085,253.07988)" d="M0-3C.795609-3 1.55874-2.683901 2.12132-2.12132 2.683901-1.55874 3-.795609 3 0 3 .795609 2.683901 1.55874 2.12132 2.12132 1.55874 2.683901 .795609 3 0 3-.795609 3-1.55874 2.683901-2.12132 2.12132-2.683901 1.55874-3 .795609-3 0-3-.795609-2.683901-1.55874-2.12132-2.12132-1.55874-2.683901-.795609-3 0-3Z" fill="#0000ff"/>
<path transform="matrix(1,0,0,-1,85.26085,253.07988)" stroke-width="1" stroke-linecap="butt" stroke-linejoin="round" fill="none" stroke="#0000ff" d="M0-3C.795609-3 1.55874-2.683901 2.12132-2.12132 2.683901-1.55874 3-.795609 3 0 3 .795609 2.683901 1.55874 2.12132 2.12132 1.55874 2.683901 .795609 3 0 3-.795609 3-1.55874 2.683901-2.12132 2.12132-2.683901 1.55874-3 .795609-3 0-3-.795609-2.683901-1.55874-2.12132-2.12132-1.55874-2.683901-.795609-3 0-3Z"/>
</g>
<g clip-path="url(#clip_25)">
<path transform="matrix(1,0,0,-1,102.34793,218.90869)" d="M0-3C.795609-3 1.55874-2.683901 2.12132-2.12132 2.683901-1.55874 3-.795609 3 0 3 .795609 2.683901 1.55874 2.12132 2.12132 1.55874 2.683901 .795609 3 0 3-.795609 3-1.55874 2.683901-2.12132 2.12132-2.683901 1.55874-3 .795609-3 0-3-.795609-2.683901-1.55874-2.12132-2.12132-1.55874-2.683901-.795609-3 0-3Z" fill="#0000ff"/>
<path transform="matrix(1,0,0,-1,102.34793,218.90869)" stroke-width="1" stroke-linecap="butt" stroke-linejoin="round" fill="none" stroke="#0000ff" d="M0-3C.795609-3 1.55874-2.683901 2.12132-2.12132 2.683901-1.55874 3-.795609 3 0 3 .795609 2.683901 1.55874 2.12132 2.12132 1.55874 2.683901 .795609 3 0 3-.795609 3-1.55874 2.683901-2.12132 2.12132-2.683901 1.55874-3 .795609-3 0-3-.795609-2.683901-1.55874-2.12132-2.12132-1.55874-2.683901-.795609-3 0-3Z"/>
</g>
<g clip-path="url(#clip_26)">
<path transform="matrix(1,0,0,-1,119.43501,212.27608)" d="M0-3C.795609-3 1.55874-2.683901 2.12132-2.12132 2.683901-1.55874 3-.795609 3 0 3 .795609 2.683901 1.55874 2.12132 2.12132 1.55874 2.683901 .795609 3 0 3-.795609 3-1.55874 2.683901-2.12132 2.12132-2.683901 1.55874-3 .795609-3 0-3-.795609-2.683901-1.55874-2.12132-2.12132-1.55874-2.683901-.795609-3 0-3Z" fill="#0000ff"/>
<path transform="matrix(1,0,0,-1,119.43501,212.27608)" stroke-width="1" stroke-linecap="butt" stroke-linejoin="round" fill="none" stroke="#0000ff" d="M0-3C.795609-3 1.55874-2.683901 2.12132-2.12132 2.683901-1.55874 3-.795609 3 0 3 .795609 2.683901 1.55874 2.12132 2.12132 1.55874 2.683901 .795609 3 0 3-.795609 3-1.55874 2.683901-2.12132 2.12132-2.683901 1.55874-3 .795609-3 0-3-.795609-2.683901-1.55874-2.12132-2.12132-1.55874-2.683901-.795609-3 0-3Z"/>
</g>
<g clip-path="url(#clip_27)">
<path transform="matrix(1,0,0,-1,136.5221,218.74967)" d="M0-3C.795609-3 1.55874-2.683901 2.12132-2.12132 2.683901-1.55874 3-.795609 3 0 3 .795609 2.683901 1.55874 2.12132 2.12132 1.55874 2.683901 .795609 3 0 3-.795609 3-1.55874 2.683901-2.12132 2.12132-2.683901 1.55874-3 .795609-3 0-3-.795609-2.683901-1.55874-2.12132-2.12132-1.55874-2.683901-.795609-3 0-3Z" fill="#0000ff"/>
<path transform="matrix(1,0,0,-1,136.5221,218.74967)" stroke-width="1" stroke-linecap="butt" stroke-linejoin="round" fill="none" stroke="#0000ff" d="M0-3C.795609-3 1.55874-2.683901 2.12132-2.12132 2.683901-1.55874 3-.795609 3 0 3 .795609 2.683901 1.55874 2.12132 2.12132 1.55874 2.683901 .795609 3 0 3-.795609 3-1.55874 2.683901-2.12132 2.12132-2.683901 1.55874-3 .795609-3 0-3-.795609-2.683901-1.55874-2.12132-2.12132-1.55874-2.683901-.795609-3 0-3Z"/>
</g>
<g clip-path="url(#clip_28)">
<path transform="matrix(1,0,0,-1,153.60918,224.29897)" d="M0-3C.795609-3 1.55874-2.683901 2.12132-2.12132 2.683901-1.55874 3-.795609 3 0 3 .795609 2.683901 1.55874 2.12132 2.12132 1.55874 2.683901 .795609 3 0 3-.795609 3-1.55874 2.683901-2.12132 2.12132-2.683901 1.55874-3 .795609-3 0-3-.795609-2.683901-1.55874-2.12132-2.12132-1.55874-2.683901-.795609-3 0-3Z" fill="#0000ff"/>
<path transform="matrix(1,0,0,-1,153.60918,224.29897)" stroke-width="1" stroke-linecap="butt" stroke-linejoin="round" fill="none" stroke="#0000ff" d="M0-3C.795609-3 1.55874-2.683901 2.12132-2.12132 2.683901-1.55874 3-.795609 3 0 3 .795609 2.683901 1.55874 2.12132 2.12132 1.55874 2.683901 .795609 3 0 3-.795609 3-1.55874 2.683901-2.12132 2.12132-2.683901 1.55874-3 .795609-3 0-3-.795609-2.683901-1.55874-2.12132-2.12132-1.55874-2.683901-.795609-3 0-3Z"/>
</g>
<g clip-path="url(#clip_29)">
<path transform="matrix(1,0,0,-1,170.69626,230.41597)" d="M0-3C.795609-3 1.55874-2.683901 2.12132-2.12132 2.683901-1.55874 3-.795609 3 0 3 .795609 2.683901 1.55874 2.12132 2.12132 1.55874 2.683901 .795609 3 0 3-.795609 3-1.55874 2.683901-2.12132 2.12132-2.683901 1.55874-3 .795609-3 0-3-.795609-2.683901-1.55874-2.12132-2.12132-1.55874-2.683901-.795609-3 0-3Z" fill="#0000ff"/>
<path transform="matrix(1,0,0,-1,170.69626,230.41597)" stroke-width="1" stroke-linecap="butt" stroke-linejoin="round" fill="none" stroke="#0000ff" d="M0-3C.795609-3 1.55874-2.683901 2.12132-2.12132 2.683901-1.55874 3-.795609 3 0 3 .795609 2.683901 1.55874 2.12132 2.12132 1.55874 2.683901 .795609 3 0 3-.795609 3-1.55874 2.683901-2.12132 2.12132-2.683901 1.55874-3 .795609-3 0-3-.795609-2.683901-1.55874-2.12132-2.12132-1.55874-2.683901-.795609-3 0-3Z"/>
</g>
<g clip-path="url(#clip_30)">
<path transform="matrix(1,0,0,-1,187.78334,233.80614)" d="M0-3C.795609-3 1.55874-2.683901 2.12132-2.12132 2.683901-1.55874 3-.795609 3 0 3 .795609 2.683901 1.55874 2.12132 2.12132 1.55874 2.683901 .795609 3 0 3-.795609 3-1.55874 2.683901-2.12132 2.12132-2.683901 1.55874-3 .795609-3 0-3-.795609-2.683901-1.55874-2.12132-2.12132-1.55874-2.683901-.795609-3 0-3Z" fill="#0000ff"/>
<path transform="matrix(1,0,0,-1,187.78334,233.80614)" stroke-width="1" stroke-linecap="butt" stroke-linejoin="round" fill="none" stroke="#0000ff" d="M0-3C.795609-3 1.55874-2.683901 2.12132-2.12132 2.683901-1.55874 3-.795609 3 0 3 .795609 2.683901 1.55874 2.12132 2.12132 1.55874 2.683901 .795609 3 0 3-.795609 3-1.55874 2.683901-2.12132 2.12132-2.683901 1.55874-3 .795609-3 0-3-.795609-2.683901-1.55874-2.12132-2.12132-1.55874-2.683901-.795609-3 0-3Z"/>
</g>
<g clip-path="url(#clip_31)">
<path transform="matrix(1,0,0,-1,204.87042,236.86864)" d="M0-3C.795609-3 1.55874-2.683901 2.12132-2.12132 2.683901-1.55874 3-.795609 3 0 3 .795609 2.683901 1.55874 2.12132 2.12132 1.55874 2.683901 .795609 3 0 3-.795609 3-1.55874 2.683901-2.12132 2.12132-2.683901 1.55874-3 .795609-3 0-3-.795609-2.683901-1.55874-2.12132-2.12132-1.55874-2.683901-.795609-3 0-3Z" fill="#0000ff"/>
<path transform="matrix(1,0,0,-1,204.87042,236.86864)" stroke-width="1" stroke-linecap="butt" stroke-linejoin="round" fill="none" stroke="#0000ff" d="M0-3C.795609-3 1.55874-2.683901 2.12132-2.12132 2.683901-1.55874 3-.795609 3 0 3 .795609 2.683901 1.55874 2.12132 2.12132 1.55874 2.683901 .795609 3 0 3-.795609 3-1.55874 2.683901-2.12132 2.12132-2.683901 1.55874-3 .795609-3 0-3-.795609-2.683901-1.55874-2.12132-2.12132-1.55874-2.683901-.795609-3 0-3Z"/>
</g>
<g clip-path="url(#clip_32)">
<path transform="matrix(1,0,0,-1,221.9575,238.84775)" d="M0-3C.795609-3 1.55874-2.683901 2.12132-2.12132 2.683901-1.55874 3-.795609 3 0 3 .795609 2.683901 1.55874 2.12132 2.12132 1.55874 2.683901 .795609 3 0 3-.795609 3-1.55874 2.683901-2.12132 2.12132-2.683901 1.55874-3 .795609-3 0-3-.795609-2.683901-1.55874-2.12132-2.12132-1.55874-2.683901-.795609-3 0-3Z" fill="#0000ff"/>
<path transform="matrix(1,0,0,-1,221.9575,238.84775)" stroke-width="1" stroke-linecap="butt" stroke-linejoin="round" fill="none" stroke="#0000ff" d="M0-3C.795609-3 1.55874-2.683901 2.12132-2.12132 2.683901-1.55874 3-.795609 3 0 3 .795609 2.683901 1.55874 2.12132 2.12132 1.55874 2.683901 .795609 3 0 3-.795609 3-1.55874 2.683901-2.12132 2.12132-2.683901 1.55874-3 .795609-3 0-3-.795609-2.683901-1.55874-2.12132-2.12132-1.55874-2.683901-.795609-3 0-3Z"/>
</g>
<g clip-path="url(#clip_33)">
<path transform="matrix(1,0,0,-1,239.04459,240.61945)" d="M0-3C.795609-3 1.55874-2.683901 2.12132-2.12132 2.683901-1.55874 3-.795609 3 0 3 .795609 2.683901 1.55874 2.12132 2.12132 1.55874 2.683901 .795609 3 0 3-.795609 3-1.55874 2.683901-2.12132 2.12132-2.683901 1.55874-3 .795609-3 0-3-.795609-2.683901-1.55874-2.12132-2.12132-1.55874-2.683901-.795609-3 0-3Z" fill="#0000ff"/>
<path transform="matrix(1,0,0,-1,239.04459,240.61945)" stroke-width="1" stroke-linecap="butt" stroke-linejoin="round" fill="none" stroke="#0000ff" d="M0-3C.795609-3 1.55874-2.683901 2.12132-2.12132 2.683901-1.55874 3-.795609 3 0 3 .795609 2.683901 1.55874 2.12132 2.12132 1.55874 2.683901 .795609 3 0 3-.795609 3-1.55874 2.683901-2.12132 2.12132-2.683901 1.55874-3 .795609-3 0-3-.795609-2.683901-1.55874-2.12132-2.12132-1.55874-2.683901-.795609-3 0-3Z"/>
</g>
<g clip-path="url(#clip_34)">
<path transform="matrix(1,0,0,-1,256.13166,241.90718)" d="M0-3C.795609-3 1.55874-2.683901 2.12132-2.12132 2.683901-1.55874 3-.795609 3 0 3 .795609 2.683901 1.55874 2.12132 2.12132 1.55874 2.683901 .795609 3 0 3-.795609 3-1.55874 2.683901-2.12132 2.12132-2.683901 1.55874-3 .795609-3 0-3-.795609-2.683901-1.55874-2.12132-2.12132-1.55874-2.683901-.795609-3 0-3Z" fill="#0000ff"/>
<path transform="matrix(1,0,0,-1,256.13166,241.90718)" stroke-width="1" stroke-linecap="butt" stroke-linejoin="round" fill="none" stroke="#0000ff" d="M0-3C.795609-3 1.55874-2.683901 2.12132-2.12132 2.683901-1.55874 3-.795609 3 0 3 .795609 2.683901 1.55874 2.12132 2.12132 1.55874 2.683901 .795609 3 0 3-.795609 3-1.55874 2.683901-2.12132 2.12132-2.683901 1.55874-3 .795609-3 0-3-.795609-2.683901-1.55874-2.12132-2.12132-1.55874-2.683901-.795609-3 0-3Z"/>
</g>
<g clip-path="url(#clip_35)">
<path transform="matrix(1,0,0,-1,273.21876,243.10492)" d="M0-3C.795609-3 1.55874-2.683901 2.12132-2.12132 2.683901-1.55874 3-.795609 3 0 3 .795609 2.683901 1.55874 2.12132 2.12132 1.55874 2.683901 .795609 3 0 3-.795609 3-1.55874 2.683901-2.12132 2.12132-2.683901 1.55874-3 .795609-3 0-3-.795609-2.683901-1.55874-2.12132-2.12132-1.55874-2.683901-.795609-3 0-3Z" fill="#0000ff"/>
<path transform="matrix(1,0,0,-1,273.21876,243.10492)" stroke-width="1" stroke-linecap="butt" stroke-linejoin="round" fill="none" stroke="#0000ff" d="M0-3C.795609-3 1.55874-2.683901 2.12132-2.12132 2.683901-1.55874 3-.795609 3 0 3 .795609 2.683901 1.55874 2.12132 2.12132 1.55874 2.683901 .795609 3 0 3-.795609 3-1.55874 2.683901-2.12132 2.12132-2.683901 1.55874-3 .795609-3 0-3-.795609-2.683901-1.55874-2.12132-2.12132-1.55874-2.683901-.795609-3 0-3Z"/>
</g>
<g clip-path="url(#clip_36)">
<path transform="matrix(1,0,0,-1,290.30586,244.00246)" d="M0-3C.795609-3 1.55874-2.683901 2.12132-2.12132 2.683901-1.55874 3-.795609 3 0 3 .795609 2.683901 1.55874 2.12132 2.12132 1.55874 2.683901 .795609 3 0 3-.795609 3-1.55874 2.683901-2.12132 2.12132-2.683901 1.55874-3 .795609-3 0-3-.795609-2.683901-1.55874-2.12132-2.12132-1.55874-2.683901-.795609-3 0-3Z" fill="#0000ff"/>
<path transform="matrix(1,0,0,-1,290.30586,244.00246)" stroke-width="1" stroke-linecap="butt" stroke-linejoin="round" fill="none" stroke="#0000ff" d="M0-3C.795609-3 1.55874-2.683901 2.12132-2.12132 2.683901-1.55874 3-.795609 3 0 3 .795609 2.683901 1.55874 2.12132 2.12132 1.55874 2.683901 .795609 3 0 3-.795609 3-1.55874 2.683901-2.12132 2.12132-2.683901 1.55874-3 .795609-3 0-3-.795609-2.683901-1.55874-2.12132-2.12132-1.55874-2.683901-.795609-3 0-3Z"/>
</g>
<g clip-path="url(#clip_37)">
<path transform="matrix(1,0,0,-1,307.39295,244.85807)" d="M0-3C.795609-3 1.55874-2.683901 2.12132-2.12132 2.683901-1.55874 3-.795609 3 0 3 .795609 2.683901 1.55874 2.12132 2.12132 1.55874 2.683901 .795609 3 0 3-.795609 3-1.55874 2.683901-2.12132 2.12132-2.683901 1.55874-3 .795609-3 0-3-.795609-2.683901-1.55874-2.12132-2.12132-1.55874-2.683901-.795609-3 0-3Z" fill="#0000ff"/>
<path transform="matrix(1,0,0,-1,307.39295,244.85807)" stroke-width="1" stroke-linecap="butt" stroke-linejoin="round" fill="none" stroke="#0000ff" d="M0-3C.795609-3 1.55874-2.683901 2.12132-2.12132 2.683901-1.55874 3-.795609 3 0 3 .795609 2.683901 1.55874 2.12132 2.12132 1.55874 2.683901 .795609 3 0 3-.795609 3-1.55874 2.683901-2.12132 2.12132-2.683901 1.55874-3 .795609-3 0-3-.795609-2.683901-1.55874-2.12132-2.12132-1.55874-2.683901-.795609-3 0-3Z"/>
</g>
<g clip-path="url(#clip_38)">
<path transform="matrix(1,0,0,-1,324.48005,245.45899)" d="M0-3C.795609-3 1.55874-2.683901 2.12132-2.12132 2.683901-1.55874 3-.795609 3 0 3 .795609 2.683901 1.55874 2.12132 2.12132 1.55874 2.683901 .795609 3 0 3-.795609 3-1.55874 2.683901-2.12132 2.12132-2.683901 1.55874-3 .795609-3 0-3-.795609-2.683901-1.55874-2.12132-2.12132-1.55874-2.683901-.795609-3 0-3Z" fill="#0000ff"/>
<path transform="matrix(1,0,0,-1,324.48005,245.45899)" stroke-width="1" stroke-linecap="butt" stroke-linejoin="round" fill="none" stroke="#0000ff" d="M0-3C.795609-3 1.55874-2.683901 2.12132-2.12132 2.683901-1.55874 3-.795609 3 0 3 .795609 2.683901 1.55874 2.12132 2.12132 1.55874 2.683901 .795609 3 0 3-.795609 3-1.55874 2.683901-2.12132 2.12132-2.683901 1.55874-3 .795609-3 0-3-.795609-2.683901-1.55874-2.12132-2.12132-1.55874-2.683901-.795609-3 0-3Z"/>
</g>
<g clip-path="url(#clip_39)">
<path transform="matrix(1,0,0,-1,341.56715,246.01094)" d="M0-3C.795609-3 1.55874-2.683901 2.12132-2.12132 2.683901-1.55874 3-.795609 3 0 3 .795609 2.683901 1.55874 2.12132 2.12132 1.55874 2.683901 .795609 3 0 3-.795609 3-1.55874 2.683901-2.12132 2.12132-2.683901 1.55874-3 .795609-3 0-3-.795609-2.683901-1.55874-2.12132-2.12132-1.55874-2.683901-.795609-3 0-3Z" fill="#0000ff"/>
<path transform="matrix(1,0,0,-1,341.56715,246.01094)" stroke-width="1" stroke-linecap="butt" stroke-linejoin="round" fill="none" stroke="#0000ff" d="M0-3C.795609-3 1.55874-2.683901 2.12132-2.12132 2.683901-1.55874 3-.795609 3 0 3 .795609 2.683901 1.55874 2.12132 2.12132 1.55874 2.683901 .795609 3 0 3-.795609 3-1.55874 2.683901-2.12132 2.12132-2.683901 1.55874-3 .795609-3 0-3-.795609-2.683901-1.55874-2.12132-2.12132-1.55874-2.683901-.795609-3 0-3Z"/>
</g>
<g clip-path="url(#clip_40)">
<path transform="matrix(1,0,0,-1,358.65425,246.41819)" d="M0-3C.795609-3 1.55874-2.683901 2.12132-2.12132 2.683901-1.55874 3-.795609 3 0 3 .795609 2.683901 1.55874 2.12132 2.12132 1.55874 2.683901 .795609 3 0 3-.795609 3-1.55874 2.683901-2.12132 2.12132-2.683901 1.55874-3 .795609-3 0-3-.795609-2.683901-1.55874-2.12132-2.12132-1.55874-2.683901-.795609-3 0-3Z" fill="#0000ff"/>
<path transform="matrix(1,0,0,-1,358.65425,246.41819)" stroke-width="1" stroke-linecap="butt" stroke-linejoin="round" fill="none" stroke="#0000ff" d="M0-3C.795609-3 1.55874-2.683901 2.12132-2.12132 2.683901-1.55874 3-.795609 3 0 3 .795609 2.683901 1.55874 2.12132 2.12132 1.55874 2.683901 .795609 3 0 3-.795609 3-1.55874 2.683901-2.12132 2.12132-2.683901 1.55874-3 .795609-3 0-3-.795609-2.683901-1.55874-2.12132-2.12132-1.55874-2.683901-.795609-3 0-3Z"/>
</g>
<g clip-path="url(#clip_41)">
<path transform="matrix(1,0,0,-1,375.74134,246.8099)" d="M0-3C.795609-3 1.55874-2.683901 2.12132-2.12132 2.683901-1.55874 3-.795609 3 0 3 .795609 2.683901 1.55874 2.12132 2.12132 1.55874 2.683901 .795609 3 0 3-.795609 3-1.55874 2.683901-2.12132 2.12132-2.683901 1.55874-3 .795609-3 0-3-.795609-2.683901-1.55874-2.12132-2.12132-1.55874-2.683901-.795609-3 0-3Z" fill="#0000ff"/>
<path transform="matrix(1,0,0,-1,375.74134,246.8099)" stroke-width="1" stroke-linecap="butt" stroke-linejoin="round" fill="none" stroke="#0000ff" d="M0-3C.795609-3 1.55874-2.683901 2.12132-2.12132 2.683901-1.55874 3-.795609 3 0 3 .795609 2.683901 1.55874 2.12132 2.12132 1.55874 2.683901 .795609 3 0 3-.795609 3-1.55874 2.683901-2.12132 2.12132-2.683901 1.55874-3 .795609-3 0-3-.795609-2.683901-1.55874-2.12132-2.12132-1.55874-2.683901-.795609-3 0-3Z"/>
</g>
<g clip-path="url(#clip_42)">
<path transform="matrix(1,0,0,-1,392.82844,247.09787)" d="M0-3C.795609-3 1.55874-2.683901 2.12132-2.12132 2.683901-1.55874 3-.795609 3 0 3 .795609 2.683901 1.55874 2.12132 2.12132 1.55874 2.683901 .795609 3 0 3-.795609 3-1.55874 2.683901-2.12132 2.12132-2.683901 1.55874-3 .795609-3 0-3-.795609-2.683901-1.55874-2.12132-2.12132-1.55874-2.683901-.795609-3 0-3Z" fill="#0000ff"/>
<path transform="matrix(1,0,0,-1,392.82844,247.09787)" stroke-width="1" stroke-linecap="butt" stroke-linejoin="round" fill="none" stroke="#0000ff" d="M0-3C.795609-3 1.55874-2.683901 2.12132-2.12132 2.683901-1.55874 3-.795609 3 0 3 .795609 2.683901 1.55874 2.12132 2.12132 1.55874 2.683901 .795609 3 0 3-.795609 3-1.55874 2.683901-2.12132 2.12132-2.683901 1.55874-3 .795609-3 0-3-.795609-2.683901-1.55874-2.12132-2.12132-1.55874-2.683901-.795609-3 0-3Z"/>
</g>
<g clip-path="url(#clip_43)">
<path transform="matrix(1,0,0,-1,409.91554,247.37722)" d="M0-3C.795609-3 1.55874-2.683901 2.12132-2.12132 2.683901-1.55874 3-.795609 3 0 3 .795609 2.683901 1.55874 2.12132 2.12132 1.55874 2.683901 .795609 3 0 3-.795609 3-1.55874 2.683901-2.12132 2.12132-2.683901 1.55874-3 .795609-3 0-3-.795609-2.683901-1.55874-2.12132-2.12132-1.55874-2.683901-.795609-3 0-3Z" fill="#0000ff"/>
<path transform="matrix(1,0,0,-1,409.91554,247.37722)" stroke-width="1" stroke-linecap="butt" stroke-linejoin="round" fill="none" stroke="#0000ff" d="M0-3C.795609-3 1.55874-2.683901 2.12132-2.12132 2.683901-1.55874 3-.795609 3 0 3 .795609 2.683901 1.55874 2.12132 2.12132 1.55874 2.683901 .795609 3 0 3-.795609 3-1.55874 2.683901-2.12132 2.12132-2.683901 1.55874-3 .795609-3 0-3-.795609-2.683901-1.55874-2.12132-2.12132-1.55874-2.683901-.795609-3 0-3Z"/>
</g>
</g>
<g clip-path="url(#clip_44)">
<path transform="matrix(1,0,0,-1,0,323.4495)" stroke-width=".5" stroke-linecap="butt" stroke-dasharray="1.85,.8" stroke-linejoin="round" fill="none" stroke="#ffa500" d="M85.26085 70.36961 102.34793 107.69425 119.43501 136.79166 136.5221 145.3244 153.60918 125.90787 170.69626 108.79448 187.78334 94.89704 204.87042 88.94712 221.9575 84.47894 239.04459 82.42149 256.13166 80.146259 273.21876 78.52043 290.30583 76.73117 307.3929 75.40302 324.47999 74.13436 341.56709 73.269298 358.65415 72.494159 375.74125 71.98453 392.8283 71.5382 409.9154 71.31776"/>
<g clip-path="url(#clip_45)">
<path transform="matrix(1,0,0,-1,85.26085,253.07988)" d="M0-3C.795609-3 1.55874-2.683901 2.12132-2.12132 2.683901-1.55874 3-.795609 3 0 3 .795609 2.683901 1.55874 2.12132 2.12132 1.55874 2.683901 .795609 3 0 3-.795609 3-1.55874 2.683901-2.12132 2.12132-2.683901 1.55874-3 .795609-3 0-3-.795609-2.683901-1.55874-2.12132-2.12132-1.55874-2.683901-.795609-3 0-3Z" fill="#ffa500"/>
<path transform="matrix(1,0,0,-1,85.26085,253.07988)" stroke-width="1" stroke-linecap="butt" stroke-linejoin="round" fill="none" stroke="#ffa500" d="M0-3C.795609-3 1.55874-2.683901 2.12132-2.12132 2.683901-1.55874 3-.795609 3 0 3 .795609 2.683901 1.55874 2.12132 2.12132 1.55874 2.683901 .795609 3 0 3-.795609 3-1.55874 2.683901-2.12132 2.12132-2.683901 1.55874-3 .795609-3 0-3-.795609-2.683901-1.55874-2.12132-2.12132-1.55874-2.683901-.795609-3 0-3Z"/>
</g>
<g clip-path="url(#clip_46)">
<path transform="matrix(1,0,0,-1,102.34793,215.75524)" d="M0-3C.795609-3 1.55874-2.683901 2.12132-2.12132 2.683901-1.55874 3-.795609 3 0 3 .795609 2.683901 1.55874 2.12132 2.12132 1.55874 2.683901 .795609 3 0 3-.795609 3-1.55874 2.683901-2.12132 2.12132-2.683901 1.55874-3 .795609-3 0-3-.795609-2.683901-1.55874-2.12132-2.12132-1.55874-2.683901-.795609-3 0-3Z" fill="#ffa500"/>
<path transform="matrix(1,0,0,-1,102.34793,215.75524)" stroke-width="1" stroke-linecap="butt" stroke-linejoin="round" fill="none" stroke="#ffa500" d="M0-3C.795609-3 1.55874-2.683901 2.12132-2.12132 2.683901-1.55874 3-.795609 3 0 3 .795609 2.683901 1.55874 2.12132 2.12132 1.55874 2.683901 .795609 3 0 3-.795609 3-1.55874 2.683901-2.12132 2.12132-2.683901 1.55874-3 .795609-3 0-3-.795609-2.683901-1.55874-2.12132-2.12132-1.55874-2.683901-.795609-3 0-3Z"/>
</g>
<g clip-path="url(#clip_47)">
<path transform="matrix(1,0,0,-1,119.43501,186.65784)" d="M0-3C.795609-3 1.55874-2.683901 2.12132-2.12132 2.683901-1.55874 3-.795609 3 0 3 .795609 2.683901 1.55874 2.12132 2.12132 1.55874 2.683901 .795609 3 0 3-.795609 3-1.55874 2.683901-2.12132 2.12132-2.683901 1.55874-3 .795609-3 0-3-.795609-2.683901-1.55874-2.12132-2.12132-1.55874-2.683901-.795609-3 0-3Z" fill="#ffa500"/>
<path transform="matrix(1,0,0,-1,119.43501,186.65784)" stroke-width="1" stroke-linecap="butt" stroke-linejoin="round" fill="none" stroke="#ffa500" d="M0-3C.795609-3 1.55874-2.683901 2.12132-2.12132 2.683901-1.55874 3-.795609 3 0 3 .795609 2.683901 1.55874 2.12132 2.12132 1.55874 2.683901 .795609 3 0 3-.795609 3-1.55874 2.683901-2.12132 2.12132-2.683901 1.55874-3 .795609-3 0-3-.795609-2.683901-1.55874-2.12132-2.12132-1.55874-2.683901-.795609-3 0-3Z"/>
</g>
<g clip-path="url(#clip_48)">
<path transform="matrix(1,0,0,-1,136.5221,178.12509)" d="M0-3C.795609-3 1.55874-2.683901 2.12132-2.12132 2.683901-1.55874 3-.795609 3 0 3 .795609 2.683901 1.55874 2.12132 2.12132 1.55874 2.683901 .795609 3 0 3-.795609 3-1.55874 2.683901-2.12132 2.12132-2.683901 1.55874-3 .795609-3 0-3-.795609-2.683901-1.55874-2.12132-2.12132-1.55874-2.683901-.795609-3 0-3Z" fill="#ffa500"/>
<path transform="matrix(1,0,0,-1,136.5221,178.12509)" stroke-width="1" stroke-linecap="butt" stroke-linejoin="round" fill="none" stroke="#ffa500" d="M0-3C.795609-3 1.55874-2.683901 2.12132-2.12132 2.683901-1.55874 3-.795609 3 0 3 .795609 2.683901 1.55874 2.12132 2.12132 1.55874 2.683901 .795609 3 0 3-.795609 3-1.55874 2.683901-2.12132 2.12132-2.683901 1.55874-3 .795609-3 0-3-.795609-2.683901-1.55874-2.12132-2.12132-1.55874-2.683901-.795609-3 0-3Z"/>
</g>
<g clip-path="url(#clip_49)">
<path transform="matrix(1,0,0,-1,153.60918,197.54163)" d="M0-3C.795609-3 1.55874-2.683901 2.12132-2.12132 2.683901-1.55874 3-.795609 3 0 3 .795609 2.683901 1.55874 2.12132 2.12132 1.55874 2.683901 .795609 3 0 3-.795609 3-1.55874 2.683901-2.12132 2.12132-2.683901 1.55874-3 .795609-3 0-3-.795609-2.683901-1.55874-2.12132-2.12132-1.55874-2.683901-.795609-3 0-3Z" fill="#ffa500"/>
<path transform="matrix(1,0,0,-1,153.60918,197.54163)" stroke-width="1" stroke-linecap="butt" stroke-linejoin="round" fill="none" stroke="#ffa500" d="M0-3C.795609-3 1.55874-2.683901 2.12132-2.12132 2.683901-1.55874 3-.795609 3 0 3 .795609 2.683901 1.55874 2.12132 2.12132 1.55874 2.683901 .795609 3 0 3-.795609 3-1.55874 2.683901-2.12132 2.12132-2.683901 1.55874-3 .795609-3 0-3-.795609-2.683901-1.55874-2.12132-2.12132-1.55874-2.683901-.795609-3 0-3Z"/>
</g>
<g clip-path="url(#clip_50)">
<path transform="matrix(1,0,0,-1,170.69626,214.65502)" d="M0-3C.795609-3 1.55874-2.683901 2.12132-2.12132 2.683901-1.55874 3-.795609 3 0 3 .795609 2.683901 1.55874 2.12132 2.12132 1.55874 2.683901 .795609 3 0 3-.795609 3-1.55874 2.683901-2.12132 2.12132-2.683901 1.55874-3 .795609-3 0-3-.795609-2.683901-1.55874-2.12132-2.12132-1.55874-2.683901-.795609-3 0-3Z" fill="#ffa500"/>
<path transform="matrix(1,0,0,-1,170.69626,214.65502)" stroke-width="1" stroke-linecap="butt" stroke-linejoin="round" fill="none" stroke="#ffa500" d="M0-3C.795609-3 1.55874-2.683901 2.12132-2.12132 2.683901-1.55874 3-.795609 3 0 3 .795609 2.683901 1.55874 2.12132 2.12132 1.55874 2.683901 .795609 3 0 3-.795609 3-1.55874 2.683901-2.12132 2.12132-2.683901 1.55874-3 .795609-3 0-3-.795609-2.683901-1.55874-2.12132-2.12132-1.55874-2.683901-.795609-3 0-3Z"/>
</g>
<g clip-path="url(#clip_51)">
<path transform="matrix(1,0,0,-1,187.78334,228.55246)" d="M0-3C.795609-3 1.55874-2.683901 2.12132-2.12132 2.683901-1.55874 3-.795609 3 0 3 .795609 2.683901 1.55874 2.12132 2.12132 1.55874 2.683901 .795609 3 0 3-.795609 3-1.55874 2.683901-2.12132 2.12132-2.683901 1.55874-3 .795609-3 0-3-.795609-2.683901-1.55874-2.12132-2.12132-1.55874-2.683901-.795609-3 0-3Z" fill="#ffa500"/>
<path transform="matrix(1,0,0,-1,187.78334,228.55246)" stroke-width="1" stroke-linecap="butt" stroke-linejoin="round" fill="none" stroke="#ffa500" d="M0-3C.795609-3 1.55874-2.683901 2.12132-2.12132 2.683901-1.55874 3-.795609 3 0 3 .795609 2.683901 1.55874 2.12132 2.12132 1.55874 2.683901 .795609 3 0 3-.795609 3-1.55874 2.683901-2.12132 2.12132-2.683901 1.55874-3 .795609-3 0-3-.795609-2.683901-1.55874-2.12132-2.12132-1.55874-2.683901-.795609-3 0-3Z"/>
</g>
<g clip-path="url(#clip_52)">
<path transform="matrix(1,0,0,-1,204.87042,234.50238)" d="M0-3C.795609-3 1.55874-2.683901 2.12132-2.12132 2.683901-1.55874 3-.795609 3 0 3 .795609 2.683901 1.55874 2.12132 2.12132 1.55874 2.683901 .795609 3 0 3-.795609 3-1.55874 2.683901-2.12132 2.12132-2.683901 1.55874-3 .795609-3 0-3-.795609-2.683901-1.55874-2.12132-2.12132-1.55874-2.683901-.795609-3 0-3Z" fill="#ffa500"/>
<path transform="matrix(1,0,0,-1,204.87042,234.50238)" stroke-width="1" stroke-linecap="butt" stroke-linejoin="round" fill="none" stroke="#ffa500" d="M0-3C.795609-3 1.55874-2.683901 2.12132-2.12132 2.683901-1.55874 3-.795609 3 0 3 .795609 2.683901 1.55874 2.12132 2.12132 1.55874 2.683901 .795609 3 0 3-.795609 3-1.55874 2.683901-2.12132 2.12132-2.683901 1.55874-3 .795609-3 0-3-.795609-2.683901-1.55874-2.12132-2.12132-1.55874-2.683901-.795609-3 0-3Z"/>
</g>
<g clip-path="url(#clip_53)">
<path transform="matrix(1,0,0,-1,221.9575,238.97057)" d="M0-3C.795609-3 1.55874-2.683901 2.12132-2.12132 2.683901-1.55874 3-.795609 3 0 3 .795609 2.683901 1.55874 2.12132 2.12132 1.55874 2.683901 .795609 3 0 3-.795609 3-1.55874 2.683901-2.12132 2.12132-2.683901 1.55874-3 .795609-3 0-3-.795609-2.683901-1.55874-2.12132-2.12132-1.55874-2.683901-.795609-3 0-3Z" fill="#ffa500"/>
<path transform="matrix(1,0,0,-1,221.9575,238.97057)" stroke-width="1" stroke-linecap="butt" stroke-linejoin="round" fill="none" stroke="#ffa500" d="M0-3C.795609-3 1.55874-2.683901 2.12132-2.12132 2.683901-1.55874 3-.795609 3 0 3 .795609 2.683901 1.55874 2.12132 2.12132 1.55874 2.683901 .795609 3 0 3-.795609 3-1.55874 2.683901-2.12132 2.12132-2.683901 1.55874-3 .795609-3 0-3-.795609-2.683901-1.55874-2.12132-2.12132-1.55874-2.683901-.795609-3 0-3Z"/>
</g>
<g clip-path="url(#clip_54)">
<path transform="matrix(1,0,0,-1,239.04459,241.02802)" d="M0-3C.795609-3 1.55874-2.683901 2.12132-2.12132 2.683901-1.55874 3-.795609 3 0 3 .795609 2.683901 1.55874 2.12132 2.12132 1.55874 2.683901 .795609 3 0 3-.795609 3-1.55874 2.683901-2.12132 2.12132-2.683901 1.55874-3 .795609-3 0-3-.795609-2.683901-1.55874-2.12132-2.12132-1.55874-2.683901-.795609-3 0-3Z" fill="#ffa500"/>
<path transform="matrix(1,0,0,-1,239.04459,241.02802)" stroke-width="1" stroke-linecap="butt" stroke-linejoin="round" fill="none" stroke="#ffa500" d="M0-3C.795609-3 1.55874-2.683901 2.12132-2.12132 2.683901-1.55874 3-.795609 3 0 3 .795609 2.683901 1.55874 2.12132 2.12132 1.55874 2.683901 .795609 3 0 3-.795609 3-1.55874 2.683901-2.12132 2.12132-2.683901 1.55874-3 .795609-3 0-3-.795609-2.683901-1.55874-2.12132-2.12132-1.55874-2.683901-.795609-3 0-3Z"/>
</g>
<g clip-path="url(#clip_55)">
<path transform="matrix(1,0,0,-1,256.13166,243.30326)" d="M0-3C.795609-3 1.55874-2.683901 2.12132-2.12132 2.683901-1.55874 3-.795609 3 0 3 .795609 2.683901 1.55874 2.12132 2.12132 1.55874 2.683901 .795609 3 0 3-.795609 3-1.55874 2.683901-2.12132 2.12132-2.683901 1.55874-3 .795609-3 0-3-.795609-2.683901-1.55874-2.12132-2.12132-1.55874-2.683901-.795609-3 0-3Z" fill="#ffa500"/>
<path transform="matrix(1,0,0,-1,256.13166,243.30326)" stroke-width="1" stroke-linecap="butt" stroke-linejoin="round" fill="none" stroke="#ffa500" d="M0-3C.795609-3 1.55874-2.683901 2.12132-2.12132 2.683901-1.55874 3-.795609 3 0 3 .795609 2.683901 1.55874 2.12132 2.12132 1.55874 2.683901 .795609 3 0 3-.795609 3-1.55874 2.683901-2.12132 2.12132-2.683901 1.55874-3 .795609-3 0-3-.795609-2.683901-1.55874-2.12132-2.12132-1.55874-2.683901-.795609-3 0-3Z"/>
</g>
<g clip-path="url(#clip_56)">
<path transform="matrix(1,0,0,-1,273.21876,244.92908)" d="M0-3C.795609-3 1.55874-2.683901 2.12132-2.12132 2.683901-1.55874 3-.795609 3 0 3 .795609 2.683901 1.55874 2.12132 2.12132 1.55874 2.683901 .795609 3 0 3-.795609 3-1.55874 2.683901-2.12132 2.12132-2.683901 1.55874-3 .795609-3 0-3-.795609-2.683901-1.55874-2.12132-2.12132-1.55874-2.683901-.795609-3 0-3Z" fill="#ffa500"/>
<path transform="matrix(1,0,0,-1,273.21876,244.92908)" stroke-width="1" stroke-linecap="butt" stroke-linejoin="round" fill="none" stroke="#ffa500" d="M0-3C.795609-3 1.55874-2.683901 2.12132-2.12132 2.683901-1.55874 3-.795609 3 0 3 .795609 2.683901 1.55874 2.12132 2.12132 1.55874 2.683901 .795609 3 0 3-.795609 3-1.55874 2.683901-2.12132 2.12132-2.683901 1.55874-3 .795609-3 0-3-.795609-2.683901-1.55874-2.12132-2.12132-1.55874-2.683901-.795609-3 0-3Z"/>
</g>
<g clip-path="url(#clip_57)">
<path transform="matrix(1,0,0,-1,290.30586,246.71834)" d="M0-3C.795609-3 1.55874-2.683901 2.12132-2.12132 2.683901-1.55874 3-.795609 3 0 3 .795609 2.683901 1.55874 2.12132 2.12132 1.55874 2.683901 .795609 3 0 3-.795609 3-1.55874 2.683901-2.12132 2.12132-2.683901 1.55874-3 .795609-3 0-3-.795609-2.683901-1.55874-2.12132-2.12132-1.55874-2.683901-.795609-3 0-3Z" fill="#ffa500"/>
<path transform="matrix(1,0,0,-1,290.30586,246.71834)" stroke-width="1" stroke-linecap="butt" stroke-linejoin="round" fill="none" stroke="#ffa500" d="M0-3C.795609-3 1.55874-2.683901 2.12132-2.12132 2.683901-1.55874 3-.795609 3 0 3 .795609 2.683901 1.55874 2.12132 2.12132 1.55874 2.683901 .795609 3 0 3-.795609 3-1.55874 2.683901-2.12132 2.12132-2.683901 1.55874-3 .795609-3 0-3-.795609-2.683901-1.55874-2.12132-2.12132-1.55874-2.683901-.795609-3 0-3Z"/>
</g>
<g clip-path="url(#clip_58)">
<path transform="matrix(1,0,0,-1,307.39295,248.04648)" d="M0-3C.795609-3 1.55874-2.683901 2.12132-2.12132 2.683901-1.55874 3-.795609 3 0 3 .795609 2.683901 1.55874 2.12132 2.12132 1.55874 2.683901 .795609 3 0 3-.795609 3-1.55874 2.683901-2.12132 2.12132-2.683901 1.55874-3 .795609-3 0-3-.795609-2.683901-1.55874-2.12132-2.12132-1.55874-2.683901-.795609-3 0-3Z" fill="#ffa500"/>
<path transform="matrix(1,0,0,-1,307.39295,248.04648)" stroke-width="1" stroke-linecap="butt" stroke-linejoin="round" fill="none" stroke="#ffa500" d="M0-3C.795609-3 1.55874-2.683901 2.12132-2.12132 2.683901-1.55874 3-.795609 3 0 3 .795609 2.683901 1.55874 2.12132 2.12132 1.55874 2.683901 .795609 3 0 3-.795609 3-1.55874 2.683901-2.12132 2.12132-2.683901 1.55874-3 .795609-3 0-3-.795609-2.683901-1.55874-2.12132-2.12132-1.55874-2.683901-.795609-3 0-3Z"/>
</g>
<g clip-path="url(#clip_59)">
<path transform="matrix(1,0,0,-1,324.48005,249.31514)" d="M0-3C.795609-3 1.55874-2.683901 2.12132-2.12132 2.683901-1.55874 3-.795609 3 0 3 .795609 2.683901 1.55874 2.12132 2.12132 1.55874 2.683901 .795609 3 0 3-.795609 3-1.55874 2.683901-2.12132 2.12132-2.683901 1.55874-3 .795609-3 0-3-.795609-2.683901-1.55874-2.12132-2.12132-1.55874-2.683901-.795609-3 0-3Z" fill="#ffa500"/>
<path transform="matrix(1,0,0,-1,324.48005,249.31514)" stroke-width="1" stroke-linecap="butt" stroke-linejoin="round" fill="none" stroke="#ffa500" d="M0-3C.795609-3 1.55874-2.683901 2.12132-2.12132 2.683901-1.55874 3-.795609 3 0 3 .795609 2.683901 1.55874 2.12132 2.12132 1.55874 2.683901 .795609 3 0 3-.795609 3-1.55874 2.683901-2.12132 2.12132-2.683901 1.55874-3 .795609-3 0-3-.795609-2.683901-1.55874-2.12132-2.12132-1.55874-2.683901-.795609-3 0-3Z"/>
</g>
<g clip-path="url(#clip_60)">
<path transform="matrix(1,0,0,-1,341.56715,250.1802)" d="M0-3C.795609-3 1.55874-2.683901 2.12132-2.12132 2.683901-1.55874 3-.795609 3 0 3 .795609 2.683901 1.55874 2.12132 2.12132 1.55874 2.683901 .795609 3 0 3-.795609 3-1.55874 2.683901-2.12132 2.12132-2.683901 1.55874-3 .795609-3 0-3-.795609-2.683901-1.55874-2.12132-2.12132-1.55874-2.683901-.795609-3 0-3Z" fill="#ffa500"/>
<path transform="matrix(1,0,0,-1,341.56715,250.1802)" stroke-width="1" stroke-linecap="butt" stroke-linejoin="round" fill="none" stroke="#ffa500" d="M0-3C.795609-3 1.55874-2.683901 2.12132-2.12132 2.683901-1.55874 3-.795609 3 0 3 .795609 2.683901 1.55874 2.12132 2.12132 1.55874 2.683901 .795609 3 0 3-.795609 3-1.55874 2.683901-2.12132 2.12132-2.683901 1.55874-3 .795609-3 0-3-.795609-2.683901-1.55874-2.12132-2.12132-1.55874-2.683901-.795609-3 0-3Z"/>
</g>
<g clip-path="url(#clip_61)">
<path transform="matrix(1,0,0,-1,358.65425,250.95534)" d="M0-3C.795609-3 1.55874-2.683901 2.12132-2.12132 2.683901-1.55874 3-.795609 3 0 3 .795609 2.683901 1.55874 2.12132 2.12132 1.55874 2.683901 .795609 3 0 3-.795609 3-1.55874 2.683901-2.12132 2.12132-2.683901 1.55874-3 .795609-3 0-3-.795609-2.683901-1.55874-2.12132-2.12132-1.55874-2.683901-.795609-3 0-3Z" fill="#ffa500"/>
<path transform="matrix(1,0,0,-1,358.65425,250.95534)" stroke-width="1" stroke-linecap="butt" stroke-linejoin="round" fill="none" stroke="#ffa500" d="M0-3C.795609-3 1.55874-2.683901 2.12132-2.12132 2.683901-1.55874 3-.795609 3 0 3 .795609 2.683901 1.55874 2.12132 2.12132 1.55874 2.683901 .795609 3 0 3-.795609 3-1.55874 2.683901-2.12132 2.12132-2.683901 1.55874-3 .795609-3 0-3-.795609-2.683901-1.55874-2.12132-2.12132-1.55874-2.683901-.795609-3 0-3Z"/>
</g>
<g clip-path="url(#clip_62)">
<path transform="matrix(1,0,0,-1,375.74134,251.46497)" d="M0-3C.795609-3 1.55874-2.683901 2.12132-2.12132 2.683901-1.55874 3-.795609 3 0 3 .795609 2.683901 1.55874 2.12132 2.12132 1.55874 2.683901 .795609 3 0 3-.795609 3-1.55874 2.683901-2.12132 2.12132-2.683901 1.55874-3 .795609-3 0-3-.795609-2.683901-1.55874-2.12132-2.12132-1.55874-2.683901-.795609-3 0-3Z" fill="#ffa500"/>
<path transform="matrix(1,0,0,-1,375.74134,251.46497)" stroke-width="1" stroke-linecap="butt" stroke-linejoin="round" fill="none" stroke="#ffa500" d="M0-3C.795609-3 1.55874-2.683901 2.12132-2.12132 2.683901-1.55874 3-.795609 3 0 3 .795609 2.683901 1.55874 2.12132 2.12132 1.55874 2.683901 .795609 3 0 3-.795609 3-1.55874 2.683901-2.12132 2.12132-2.683901 1.55874-3 .795609-3 0-3-.795609-2.683901-1.55874-2.12132-2.12132-1.55874-2.683901-.795609-3 0-3Z"/>
</g>
<g clip-path="url(#clip_63)">
<path transform="matrix(1,0,0,-1,392.82844,251.9113)" d="M0-3C.795609-3 1.55874-2.683901 2.12132-2.12132 2.683901-1.55874 3-.795609 3 0 3 .795609 2.683901 1.55874 2.12132 2.12132 1.55874 2.683901 .795609 3 0 3-.795609 3-1.55874 2.683901-2.12132 2.12132-2.683901 1.55874-3 .795609-3 0-3-.795609-2.683901-1.55874-2.12132-2.12132-1.55874-2.683901-.795609-3 0-3Z" fill="#ffa500"/>
<path transform="matrix(1,0,0,-1,392.82844,251.9113)" stroke-width="1" stroke-linecap="butt" stroke-linejoin="round" fill="none" stroke="#ffa500" d="M0-3C.795609-3 1.55874-2.683901 2.12132-2.12132 2.683901-1.55874 3-.795609 3 0 3 .795609 2.683901 1.55874 2.12132 2.12132 1.55874 2.683901 .795609 3 0 3-.795609 3-1.55874 2.683901-2.12132 2.12132-2.683901 1.55874-3 .795609-3 0-3-.795609-2.683901-1.55874-2.12132-2.12132-1.55874-2.683901-.795609-3 0-3Z"/>
</g>
<g clip-path="url(#clip_64)">
<path transform="matrix(1,0,0,-1,409.91554,252.13175)" d="M0-3C.795609-3 1.55874-2.683901 2.12132-2.12132 2.683901-1.55874 3-.795609 3 0 3 .795609 2.683901 1.55874 2.12132 2.12132 1.55874 2.683901 .795609 3 0 3-.795609 3-1.55874 2.683901-2.12132 2.12132-2.683901 1.55874-3 .795609-3 0-3-.795609-2.683901-1.55874-2.12132-2.12132-1.55874-2.683901-.795609-3 0-3Z" fill="#ffa500"/>
<path transform="matrix(1,0,0,-1,409.91554,252.13175)" stroke-width="1" stroke-linecap="butt" stroke-linejoin="round" fill="none" stroke="#ffa500" d="M0-3C.795609-3 1.55874-2.683901 2.12132-2.12132 2.683901-1.55874 3-.795609 3 0 3 .795609 2.683901 1.55874 2.12132 2.12132 1.55874 2.683901 .795609 3 0 3-.795609 3-1.55874 2.683901-2.12132 2.12132-2.683901 1.55874-3 .795609-3 0-3-.795609-2.683901-1.55874-2.12132-2.12132-1.55874-2.683901-.795609-3 0-3Z"/>
</g>
</g>
<path transform="matrix(1,0,0,-1,0,323.4495)" stroke-width=".8" stroke-linecap="square" stroke-miterlimit="10" stroke-linejoin="miter" fill="none" stroke="#000000" d="M69.02812 50.1375V316.2495"/>
<path transform="matrix(1,0,0,-1,0,323.4495)" stroke-width=".8" stroke-linecap="square" stroke-miterlimit="10" stroke-linejoin="miter" fill="none" stroke="#000000" d="M426.14814 50.1375V316.2495"/>
<path transform="matrix(1,0,0,-1,0,323.4495)" stroke-width=".8" stroke-linecap="square" stroke-miterlimit="10" stroke-linejoin="miter" fill="none" stroke="#000000" d="M69.02812 50.1375H426.14814"/>
<path transform="matrix(1,0,0,-1,0,323.4495)" stroke-width=".8" stroke-linecap="square" stroke-miterlimit="10" stroke-linejoin="miter" fill="none" stroke="#000000" d="M69.02812 316.2495H426.14814"/>
<g>
<path transform="matrix(1,0,0,-1,0,323.4495)" d="M443.64814 124.38881H1040.3668C1043.7002 124.38881 1045.3668 126.05548 1045.3668 129.38881V236.99819C1045.3668 240.33153 1043.7002 241.99819 1040.3668 241.99819H443.64814C440.3148 241.99819 438.64814 240.33153 438.64814 236.99819V129.38881C438.64814 126.05548 440.3148 124.38881 443.64814 124.38881Z" fill="#ffffff" fill-opacity=".8"/>
<path transform="matrix(1,0,0,-1,0,323.4495)" stroke-width="1" stroke-linecap="butt" stroke-miterlimit="10" stroke-linejoin="miter" fill="none" stroke="#d5d6d5" stroke-opacity=".8" d="M443.64814 124.38881H1040.3668C1043.7002 124.38881 1045.3668 126.05548 1045.3668 129.38881V236.99819C1045.3668 240.33153 1043.7002 241.99819 1040.3668 241.99819H443.64814C440.3148 241.99819 438.64814 240.33153 438.64814 236.99819V129.38881C438.64814 126.05548 440.3148 124.38881 443.64814 124.38881Z"/>
</g>
<path transform="matrix(1,0,0,-1,0,323.4495)" stroke-width=".5" stroke-linecap="butt" stroke-dasharray="1.85,.8" stroke-linejoin="round" fill="none" stroke="#000000" d="M448.64814 221.74819H473.64814 498.64814"/>
<path transform="matrix(1,0,0,-1,0,323.4495)" d="M473.64814 218.74819C474.44374 218.74819 475.20689 219.06429 475.76945 219.62686 476.33204 220.18946 476.64814 220.95258 476.64814 221.74819 476.64814 222.5438 476.33204 223.30693 475.76945 223.8695 475.20689 224.43209 474.44374 224.74819 473.64814 224.74819 472.8525 224.74819 472.0894 224.43209 471.5268 223.8695 470.96424 223.30693 470.64814 222.5438 470.64814 221.74819 470.64814 220.95258 470.96424 220.18946 471.5268 219.62686 472.0894 219.06429 472.8525 218.74819 473.64814 218.74819Z"/>
<path transform="matrix(1,0,0,-1,0,323.4495)" stroke-width="1" stroke-linecap="butt" stroke-linejoin="round" fill="none" stroke="#000000" d="M473.64814 218.74819C474.44374 218.74819 475.20689 219.06429 475.76945 219.62686 476.33204 220.18946 476.64814 220.95258 476.64814 221.74819 476.64814 222.5438 476.33204 223.30693 475.76945 223.8695 475.20689 224.43209 474.44374 224.74819 473.64814 224.74819 472.8525 224.74819 472.0894 224.43209 471.5268 223.8695 470.96424 223.30693 470.64814 222.5438 470.64814 221.74819 470.64814 220.95258 470.96424 220.18946 471.5268 219.62686 472.0894 219.06429 472.8525 218.74819 473.64814 218.74819Z"/>
<text xml:space="preserve" transform="matrix(1 0 -0 1 518.64816 110.45131)" font-size="25" font-family="DejaVuSans"><tspan y="0" x="0 19.375 29.103127 44.40313 60.253129 76.10313 91.97813 99.92812 109.72813 120.00313 135.85314 145.65314">Ground truth</tspan></text>
<path transform="matrix(1,0,0,-1,0,323.4495)" stroke-width=".5" stroke-linecap="butt" stroke-linejoin="round" fill="none" stroke="#0000ff" d="M473.64814 172.54506V197.54506"/>
<path transform="matrix(1,0,0,-1,0,323.4495)" stroke-width=".5" stroke-linecap="butt" stroke-dasharray="1.85,.8" stroke-linejoin="round" fill="none" stroke="#0000ff" d="M448.64814 185.04506H498.64814"/>
<path transform="matrix(1,0,0,-1,0,323.4495)" d="M473.64814 182.04506C474.44374 182.04506 475.20689 182.36116 475.76945 182.92374 476.33204 183.48633 476.64814 184.24945 476.64814 185.04506 476.64814 185.84067 476.33204 186.6038 475.76945 187.16638 475.20689 187.72896 474.44374 188.04506 473.64814 188.04506 472.8525 188.04506 472.0894 187.72896 471.5268 187.16638 470.96424 186.6038 470.64814 185.84067 470.64814 185.04506 470.64814 184.24945 470.96424 183.48633 471.5268 182.92374 472.0894 182.36116 472.8525 182.04506 473.64814 182.04506Z" fill="#0000ff"/>
<path transform="matrix(1,0,0,-1,0,323.4495)" stroke-width="1" stroke-linecap="butt" stroke-linejoin="round" fill="none" stroke="#0000ff" d="M473.64814 182.04506C474.44374 182.04506 475.20689 182.36116 475.76945 182.92374 476.33204 183.48633 476.64814 184.24945 476.64814 185.04506 476.64814 185.84067 476.33204 186.6038 475.76945 187.16638 475.20689 187.72896 474.44374 188.04506 473.64814 188.04506 472.8525 188.04506 472.0894 187.72896 471.5268 187.16638 470.96424 186.6038 470.64814 185.84067 470.64814 185.04506 470.64814 184.24945 470.96424 183.48633 471.5268 182.92374 472.0894 182.36116 472.8525 182.04506 473.64814 182.04506Z"/>
<text xml:space="preserve" transform="matrix(1 0 -0 1 518.64816 147.15444)" font-size="25" font-family="DejaVuSans"><tspan y="0" x="0 14.637501 24.365628 39.740629 55.615629 62.565629 76.31563 86.11563 93.06563 108.36563 124.21563 132.64063 140.59062 164.94063 185.89063 201.79062 209.74062 216.69062 232.54062 242.34062 257.71565 273.56565 286.59065 293.54066 303.34065 318.14064 339.09065 354.99064 370.89064 378.84065 394.74064 416.1787 437.12873 453.02873 460.97874 476.87873 492.77873 508.6787">Prediction: m=1,intensity=30.0,=0.204 </tspan></text>
<g clip-path="url(#clip_65)">
<path transform="matrix(.025,0,0,-.025,921.31369,147.15444)" d="M193 295C156 303 128 317 109 338 89 359 80 385 80 415 80 461 98 496 135 522 171 548 222 561 286 561 310 561 336 559 364 555 392 551 422 545 454 537V456C422 465 394 472 368 476 341 480 316 482 293 482 254 482 224 474 202 460 178 445 167 427 167 406 167 383 178 364 201 350 222 336 252 329 290 329H366V254H293C249 254 215 245 191 229 165 211 153 187 153 159 153 129 166 106 194 88 222 70 260 61 310 61 340 61 368 64 396 70 424 76 449 85 473 97V13C443 4 415-2 388-6 360-10 333-13 307-13 229-13 170 1 128 31 86 60 65 103 65 159 65 194 76 223 98 247 120 271 152 287 193 295Z"/>
</g>
<path transform="matrix(1,0,0,-1,0,323.4495)" stroke-width=".5" stroke-linecap="butt" stroke-linejoin="round" fill="none" stroke="#ffa500" d="M473.64814 135.84194V160.84194"/>
<path transform="matrix(1,0,0,-1,0,323.4495)" stroke-width=".5" stroke-linecap="butt" stroke-dasharray="1.85,.8" stroke-linejoin="round" fill="none" stroke="#ffa500" d="M448.64814 148.34194H498.64814"/>
<path transform="matrix(1,0,0,-1,0,323.4495)" d="M473.64814 145.34194C474.44374 145.34194 475.20689 145.65804 475.76945 146.22061 476.33204 146.7832 476.64814 147.54633 476.64814 148.34194 476.64814 149.13755 476.33204 149.90068 475.76945 150.46326 475.20689 151.02584 474.44374 151.34194 473.64814 151.34194 472.8525 151.34194 472.0894 151.02584 471.5268 150.46326 470.96424 149.90068 470.64814 149.13755 470.64814 148.34194 470.64814 147.54633 470.96424 146.7832 471.5268 146.22061 472.0894 145.65804 472.8525 145.34194 473.64814 145.34194Z" fill="#ffa500"/>
<path transform="matrix(1,0,0,-1,0,323.4495)" stroke-width="1" stroke-linecap="butt" stroke-linejoin="round" fill="none" stroke="#ffa500" d="M473.64814 145.34194C474.44374 145.34194 475.20689 145.65804 475.76945 146.22061 476.33204 146.7832 476.64814 147.54633 476.64814 148.34194 476.64814 149.13755 476.33204 149.90068 475.76945 150.46326 475.20689 151.02584 474.44374 151.34194 473.64814 151.34194 472.8525 151.34194 472.0894 151.02584 471.5268 150.46326 470.96424 149.90068 470.64814 149.13755 470.64814 148.34194 470.64814 147.54633 470.96424 146.7832 471.5268 146.22061 472.0894 145.65804 472.8525 145.34194 473.64814 145.34194Z"/>
<text xml:space="preserve" transform="matrix(1 0 -0 1 518.64816 183.85756)" font-size="25" font-family="DejaVuSans"><tspan y="0" x="0 14.637501 24.365628 39.740629 55.615629 62.565629 76.31563 86.11563 93.06563 108.36563 124.21563 132.64063 140.59062 164.94063 185.89063 201.79062 209.74062 216.69062 232.54062 242.34062 257.71565 273.56565 286.59065 293.54066 303.34065 318.14064 339.09065 354.99064 370.89064 378.84065 394.74064 416.1787 437.12873 453.02873 460.97874 476.87873 492.77873">Prediction: m=5,intensity=45.0,=0.17 </tspan></text>
<g clip-path="url(#clip_66)">
<path transform="matrix(.025,0,0,-.025,921.31369,183.85756)" d="M193 295C156 303 128 317 109 338 89 359 80 385 80 415 80 461 98 496 135 522 171 548 222 561 286 561 310 561 336 559 364 555 392 551 422 545 454 537V456C422 465 394 472 368 476 341 480 316 482 293 482 254 482 224 474 202 460 178 445 167 427 167 406 167 383 178 364 201 350 222 336 252 329 290 329H366V254H293C249 254 215 245 191 229 165 211 153 187 153 159 153 129 166 106 194 88 222 70 260 61 310 61 340 61 368 64 396 70 424 76 449 85 473 97V13C443 4 415-2 388-6 360-10 333-13 307-13 229-13 170 1 128 31 86 60 65 103 65 159 65 194 76 223 98 247 120 271 152 287 193 295Z"/>
</g>
</svg>
