<svg xmlns="http://www.w3.org/2000/svg" xmlns:xlink="http://www.w3.org/1999/xlink" version="1.1" width="777.1125pt" height="363.90263pt" viewBox="0 0 777.1125 363.90263">
<defs>
<clipPath id="clip_0">
<path transform="matrix(1,0,0,-1,0,363.90263)" d="M59.48125 50.1375H416.60127V316.2495H59.48125Z"/>
</clipPath>
<clipPath id="clip_1">
<path transform="matrix(1,0,0,-1,0,363.90263)" d="M59.48125 50.1375H416.60127V316.2495H59.48125Z"/>
</clipPath>
<clipPath id="clip_2">
<path transform="matrix(1,0,0,-1,75.713977,301.66914)" d="M-8-8H8V8H-8Z"/>
</clipPath>
<clipPath id="clip_3">
<path transform="matrix(1,0,0,-1,92.801059,202.70186)" d="M-8-8H8V8H-8Z"/>
</clipPath>
<clipPath id="clip_4">
<path transform="matrix(1,0,0,-1,109.88814,59.74913)" d="M-8-8H8V8H-8Z"/>
</clipPath>
<clipPath id="clip_5">
<path transform="matrix(1,0,0,-1,126.97522,195.37094)" d="M-8-8H8V8H-8Z"/>
</clipPath>
<clipPath id="clip_6">
<path transform="matrix(1,0,0,-1,144.0623,279.6764)" d="M-8-8H8V8H-8Z"/>
</clipPath>
<clipPath id="clip_7">
<path transform="matrix(1,0,0,-1,161.14939,301.66914)" d="M-8-8H8V8H-8Z"/>
</clipPath>
<clipPath id="clip_8">
<path transform="matrix(1,0,0,-1,178.23647,301.66914)" d="M-8-8H8V8H-8Z"/>
</clipPath>
<clipPath id="clip_9">
<path transform="matrix(1,0,0,-1,195.32355,301.66914)" d="M-8-8H8V8H-8Z"/>
</clipPath>
<clipPath id="clip_10">
<path transform="matrix(1,0,0,-1,212.41063,301.66914)" d="M-8-8H8V8H-8Z"/>
</clipPath>
<clipPath id="clip_11">
<path transform="matrix(1,0,0,-1,229.49771,301.66914)" d="M-8-8H8V8H-8Z"/>
</clipPath>
<clipPath id="clip_12">
<path transform="matrix(1,0,0,-1,246.5848,301.66914)" d="M-8-8H8V8H-8Z"/>
</clipPath>
<clipPath id="clip_13">
<path transform="matrix(1,0,0,-1,263.67189,301.66914)" d="M-8-8H8V8H-8Z"/>
</clipPath>
<clipPath id="clip_14">
<path transform="matrix(1,0,0,-1,280.75898,301.66914)" d="M-8-8H8V8H-8Z"/>
</clipPath>
<clipPath id="clip_15">
<path transform="matrix(1,0,0,-1,297.84608,301.66914)" d="M-8-8H8V8H-8Z"/>
</clipPath>
<clipPath id="clip_16">
<path transform="matrix(1,0,0,-1,314.93318,301.66914)" d="M-8-8H8V8H-8Z"/>
</clipPath>
<clipPath id="clip_17">
<path transform="matrix(1,0,0,-1,332.02027,301.66914)" d="M-8-8H8V8H-8Z"/>
</clipPath>
<clipPath id="clip_18">
<path transform="matrix(1,0,0,-1,349.10737,301.66914)" d="M-8-8H8V8H-8Z"/>
</clipPath>
<clipPath id="clip_19">
<path transform="matrix(1,0,0,-1,366.19447,301.66914)" d="M-8-8H8V8H-8Z"/>
</clipPath>
<clipPath id="clip_20">
<path transform="matrix(1,0,0,-1,383.28157,301.66914)" d="M-8-8H8V8H-8Z"/>
</clipPath>
<clipPath id="clip_21">
<path transform="matrix(1,0,0,-1,400.36866,301.66914)" d="M-8-8H8V8H-8Z"/>
</clipPath>
<clipPath id="clip_22">
<path transform="matrix(1,0,0,-1,0,363.90263)" d="M59.48125 50.1375H416.60127V316.2495H59.48125Z"/>
</clipPath>
<clipPath id="clip_23">
<path transform="matrix(1,0,0,-1,75.713977,211.61812)" d="M-8-8H8V8H-8Z"/>
</clipPath>
<clipPath id="clip_24">
<path transform="matrix(1,0,0,-1,92.801059,175.9383)" d="M-8-8H8V8H-8Z"/>
</clipPath>
<clipPath id="clip_25">
<path transform="matrix(1,0,0,-1,109.88814,225.90918)" d="M-8-8H8V8H-8Z"/>
</clipPath>
<clipPath id="clip_26">
<path transform="matrix(1,0,0,-1,126.97522,259.63624)" d="M-8-8H8V8H-8Z"/>
</clipPath>
<clipPath id="clip_27">
<path transform="matrix(1,0,0,-1,144.0623,271.74177)" d="M-8-8H8V8H-8Z"/>
</clipPath>
<clipPath id="clip_28">
<path transform="matrix(1,0,0,-1,161.14939,279.85118)" d="M-8-8H8V8H-8Z"/>
</clipPath>
<clipPath id="clip_29">
<path transform="matrix(1,0,0,-1,178.23647,284.87355)" d="M-8-8H8V8H-8Z"/>
</clipPath>
<clipPath id="clip_30">
<path transform="matrix(1,0,0,-1,195.32355,288.9437)" d="M-8-8H8V8H-8Z"/>
</clipPath>
<clipPath id="clip_31">
<path transform="matrix(1,0,0,-1,212.41063,291.31575)" d="M-8-8H8V8H-8Z"/>
</clipPath>
<clipPath id="clip_32">
<path transform="matrix(1,0,0,-1,229.49771,293.79133)" d="M-8-8H8V8H-8Z"/>
</clipPath>
<clipPath id="clip_33">
<path transform="matrix(1,0,0,-1,246.5848,295.29869)" d="M-8-8H8V8H-8Z"/>
</clipPath>
<clipPath id="clip_34">
<path transform="matrix(1,0,0,-1,263.67189,296.81694)" d="M-8-8H8V8H-8Z"/>
</clipPath>
<clipPath id="clip_35">
<path transform="matrix(1,0,0,-1,280.75898,297.7197)" d="M-8-8H8V8H-8Z"/>
</clipPath>
<clipPath id="clip_36">
<path transform="matrix(1,0,0,-1,297.84608,298.64878)" d="M-8-8H8V8H-8Z"/>
</clipPath>
<clipPath id="clip_37">
<path transform="matrix(1,0,0,-1,314.93318,299.2063)" d="M-8-8H8V8H-8Z"/>
</clipPath>
<clipPath id="clip_38">
<path transform="matrix(1,0,0,-1,332.02027,299.80796)" d="M-8-8H8V8H-8Z"/>
</clipPath>
<clipPath id="clip_39">
<path transform="matrix(1,0,0,-1,349.10737,300.19544)" d="M-8-8H8V8H-8Z"/>
</clipPath>
<clipPath id="clip_40">
<path transform="matrix(1,0,0,-1,366.19447,300.5804)" d="M-8-8H8V8H-8Z"/>
</clipPath>
<clipPath id="clip_41">
<path transform="matrix(1,0,0,-1,383.28157,300.8182)" d="M-8-8H8V8H-8Z"/>
</clipPath>
<clipPath id="clip_42">
<path transform="matrix(1,0,0,-1,400.36866,301.035)" d="M-8-8H8V8H-8Z"/>
</clipPath>
</defs>
<path transform="matrix(1,0,0,-1,0,363.90263)" d="M0 0H777.1125V363.90263H0Z" fill="#ffffff"/>
<path transform="matrix(1,0,0,-1,0,363.90263)" d="M59.48125 50.1375H416.60127V316.2495H59.48125Z" fill="#ffffff"/>
<path transform="matrix(1,0,0,-1,0,363.90263)" d="M144.0623 50.1375V46.6375"/>
<path transform="matrix(1,0,0,-1,0,363.90263)" stroke-width=".8" stroke-linecap="butt" stroke-linejoin="round" fill="none" stroke="#000000" d="M144.0623 50.1375V46.6375"/>
<text xml:space="preserve" transform="matrix(1 0 -0 1 134.51543 332.15574)" font-size="15" font-family="DejaVuSans"><tspan y="0" x="0 9.540001">10</tspan></text>
<path transform="matrix(1,0,0,-1,0,363.90263)" d="M229.49771 50.1375V46.6375"/>
<path transform="matrix(1,0,0,-1,0,363.90263)" stroke-width=".8" stroke-linecap="butt" stroke-linejoin="round" fill="none" stroke="#000000" d="M229.49771 50.1375V46.6375"/>
<text xml:space="preserve" transform="matrix(1 0 -0 1 219.95084 332.15574)" font-size="15" font-family="DejaVuSans"><tspan y="0" x="0 9.540001">20</tspan></text>
<path transform="matrix(1,0,0,-1,0,363.90263)" d="M314.9331 50.1375V46.6375"/>
<path transform="matrix(1,0,0,-1,0,363.90263)" stroke-width=".8" stroke-linecap="butt" stroke-linejoin="round" fill="none" stroke="#000000" d="M314.9331 50.1375V46.6375"/>
<text xml:space="preserve" transform="matrix(1 0 -0 1 305.38624 332.15574)" font-size="15" font-family="DejaVuSans"><tspan y="0" x="0 9.540001">30</tspan></text>
<path transform="matrix(1,0,0,-1,0,363.90263)" d="M400.36854 50.1375V46.6375"/>
<path transform="matrix(1,0,0,-1,0,363.90263)" stroke-width=".8" stroke-linecap="butt" stroke-linejoin="round" fill="none" stroke="#000000" d="M400.36854 50.1375V46.6375"/>
<text xml:space="preserve" transform="matrix(1 0 -0 1 390.82167 332.15574)" font-size="15" font-family="DejaVuSans"><tspan y="0" x="0 9.540001">40</tspan></text>
<text xml:space="preserve" transform="matrix(1 0 -0 1 192.6428 352.9526)" font-size="18" font-family="DejaVuSans"><tspan y="0" x="0 10.451125 15.455126 32.98713 44.05713 49.781129 56.80113 74.33313 83.71113">Time [ms]</tspan></text>
<path transform="matrix(1,0,0,-1,0,363.90263)" d="M59.48125 62.2335H55.98125"/>
<path transform="matrix(1,0,0,-1,0,363.90263)" stroke-width=".8" stroke-linecap="butt" stroke-linejoin="round" fill="none" stroke="#000000" d="M59.48125 62.2335H55.98125"/>
<text xml:space="preserve" transform="matrix(1 0 -0 1 28.621876 307.36445)" font-size="15" font-family="DejaVuSans"><tspan y="0" x="0 9.540001 14.310001">0.0</tspan></text>
<path transform="matrix(1,0,0,-1,0,363.90263)" d="M59.48125 106.218959H55.98125"/>
<path transform="matrix(1,0,0,-1,0,363.90263)" stroke-width=".8" stroke-linecap="butt" stroke-linejoin="round" fill="none" stroke="#000000" d="M59.48125 106.218959H55.98125"/>
<text xml:space="preserve" transform="matrix(1 0 -0 1 28.621876 263.37898)" font-size="15" font-family="DejaVuSans"><tspan y="0" x="0 9.540001 14.310001">0.1</tspan></text>
<path transform="matrix(1,0,0,-1,0,363.90263)" d="M59.48125 150.2044H55.98125"/>
<path transform="matrix(1,0,0,-1,0,363.90263)" stroke-width=".8" stroke-linecap="butt" stroke-linejoin="round" fill="none" stroke="#000000" d="M59.48125 150.2044H55.98125"/>
<text xml:space="preserve" transform="matrix(1 0 -0 1 28.621876 219.39353)" font-size="15" font-family="DejaVuSans"><tspan y="0" x="0 9.540001 14.310001">0.2</tspan></text>
<path transform="matrix(1,0,0,-1,0,363.90263)" d="M59.48125 194.18987H55.98125"/>
<path transform="matrix(1,0,0,-1,0,363.90263)" stroke-width=".8" stroke-linecap="butt" stroke-linejoin="round" fill="none" stroke="#000000" d="M59.48125 194.18987H55.98125"/>
<text xml:space="preserve" transform="matrix(1 0 -0 1 28.621876 175.40807)" font-size="15" font-family="DejaVuSans"><tspan y="0" x="0 9.540001 14.310001">0.3</tspan></text>
<path transform="matrix(1,0,0,-1,0,363.90263)" d="M59.48125 238.17533H55.98125"/>
<path transform="matrix(1,0,0,-1,0,363.90263)" stroke-width=".8" stroke-linecap="butt" stroke-linejoin="round" fill="none" stroke="#000000" d="M59.48125 238.17533H55.98125"/>
<text xml:space="preserve" transform="matrix(1 0 -0 1 28.621876 131.4226)" font-size="15" font-family="DejaVuSans"><tspan y="0" x="0 9.540001 14.310001">0.4</tspan></text>
<path transform="matrix(1,0,0,-1,0,363.90263)" d="M59.48125 282.16078H55.98125"/>
<path transform="matrix(1,0,0,-1,0,363.90263)" stroke-width=".8" stroke-linecap="butt" stroke-linejoin="round" fill="none" stroke="#000000" d="M59.48125 282.16078H55.98125"/>
<text xml:space="preserve" transform="matrix(1 0 -0 1 28.621876 87.437168)" font-size="15" font-family="DejaVuSans"><tspan y="0" x="0 9.540001 14.310001">0.5</tspan></text>
<text xml:space="preserve" transform="matrix(0 -1 1 0 20.871876 222.16225)" font-size="18" font-family="DejaVuSans"><tspan y="0" x="0 5.3100006 16.740002 29.250004 34.974004 41.994005 53.028005 58.752004 70.164 75.888">ISR [a.u.]</tspan></text>
<g clip-path="url(#clip_0)">
<path transform="matrix(1,0,0,-1,0,363.90263)" stroke-width=".5" stroke-linecap="butt" stroke-linejoin="round" fill="none" stroke="#ff0000" d="M75.713977 85.21868V219.35033"/>
<path transform="matrix(1,0,0,-1,0,363.90263)" stroke-width=".5" stroke-linecap="butt" stroke-linejoin="round" fill="none" stroke="#ff0000" d="M92.801059 108.12551V267.80317"/>
<path transform="matrix(1,0,0,-1,0,363.90263)" stroke-width=".5" stroke-linecap="butt" stroke-linejoin="round" fill="none" stroke="#ff0000" d="M109.88814 92.297878V183.68901"/>
<path transform="matrix(1,0,0,-1,0,363.90263)" stroke-width=".5" stroke-linecap="butt" stroke-linejoin="round" fill="none" stroke="#ff0000" d="M126.97522 79.51228V129.02051"/>
<path transform="matrix(1,0,0,-1,0,363.90263)" stroke-width=".5" stroke-linecap="butt" stroke-linejoin="round" fill="none" stroke="#ff0000" d="M144.0623 77.0213V107.30039"/>
<path transform="matrix(1,0,0,-1,0,363.90263)" stroke-width=".5" stroke-linecap="butt" stroke-linejoin="round" fill="none" stroke="#ff0000" d="M161.14939 73.634128V94.46874"/>
<path transform="matrix(1,0,0,-1,0,363.90263)" stroke-width=".5" stroke-linecap="butt" stroke-linejoin="round" fill="none" stroke="#ff0000" d="M178.23647 72.75234V85.30582"/>
<path transform="matrix(1,0,0,-1,0,363.90263)" stroke-width=".5" stroke-linecap="butt" stroke-linejoin="round" fill="none" stroke="#ff0000" d="M195.32355 70.2904V79.62744"/>
<path transform="matrix(1,0,0,-1,0,363.90263)" stroke-width=".5" stroke-linecap="butt" stroke-linejoin="round" fill="none" stroke="#ff0000" d="M212.41063 68.689319V76.484439"/>
<path transform="matrix(1,0,0,-1,0,363.90263)" stroke-width=".5" stroke-linecap="butt" stroke-linejoin="round" fill="none" stroke="#ff0000" d="M229.49771 66.72003V73.502559"/>
<path transform="matrix(1,0,0,-1,0,363.90263)" stroke-width=".5" stroke-linecap="butt" stroke-linejoin="round" fill="none" stroke="#ff0000" d="M246.5848 65.5038V71.7041"/>
<path transform="matrix(1,0,0,-1,0,363.90263)" stroke-width=".5" stroke-linecap="butt" stroke-linejoin="round" fill="none" stroke="#ff0000" d="M263.67189 64.39366V69.777729"/>
<path transform="matrix(1,0,0,-1,0,363.90263)" stroke-width=".5" stroke-linecap="butt" stroke-linejoin="round" fill="none" stroke="#ff0000" d="M280.75895 63.914537V68.45129"/>
<path transform="matrix(1,0,0,-1,0,363.90263)" stroke-width=".5" stroke-linecap="butt" stroke-linejoin="round" fill="none" stroke="#ff0000" d="M297.84605 63.397356V67.11029"/>
<path transform="matrix(1,0,0,-1,0,363.90263)" stroke-width=".5" stroke-linecap="butt" stroke-linejoin="round" fill="none" stroke="#ff0000" d="M314.9331 63.22056V66.17202"/>
<path transform="matrix(1,0,0,-1,0,363.90263)" stroke-width=".5" stroke-linecap="butt" stroke-linejoin="round" fill="none" stroke="#ff0000" d="M332.0202 62.934717V65.25455"/>
<path transform="matrix(1,0,0,-1,0,363.90263)" stroke-width=".5" stroke-linecap="butt" stroke-linejoin="round" fill="none" stroke="#ff0000" d="M349.10728 62.798437V64.61584"/>
<path transform="matrix(1,0,0,-1,0,363.90263)" stroke-width=".5" stroke-linecap="butt" stroke-linejoin="round" fill="none" stroke="#ff0000" d="M366.19438 62.61044V64.033847"/>
<path transform="matrix(1,0,0,-1,0,363.90263)" stroke-width=".5" stroke-linecap="butt" stroke-linejoin="round" fill="none" stroke="#ff0000" d="M383.28144 62.53217V63.636507"/>
<path transform="matrix(1,0,0,-1,0,363.90263)" stroke-width=".5" stroke-linecap="butt" stroke-linejoin="round" fill="none" stroke="#ff0000" d="M400.36854 62.4286V63.306497"/>
</g>
<g clip-path="url(#clip_1)">
<path transform="matrix(1,0,0,-1,0,363.90263)" stroke-width=".5" stroke-linecap="butt" stroke-dasharray="1.85,.8" stroke-linejoin="round" fill="none" stroke="#0000ff" d="M75.713977 62.2335 92.801059 161.20078 109.88814 304.1535 126.97522 168.53168 144.0623 84.22623 161.14939 62.2335H178.23647 195.32355 212.41063 229.49771 246.5848 263.67189 280.75895 297.84605 314.9331 332.0202 349.10728 366.19438 383.28144 400.36854"/>
<g clip-path="url(#clip_2)">
<path transform="matrix(1,0,0,-1,75.713977,301.66914)" d="M0-3C.795609-3 1.55874-2.683901 2.12132-2.12132 2.683901-1.55874 3-.795609 3 0 3 .795609 2.683901 1.55874 2.12132 2.12132 1.55874 2.683901 .795609 3 0 3-.795609 3-1.55874 2.683901-2.12132 2.12132-2.683901 1.55874-3 .795609-3 0-3-.795609-2.683901-1.55874-2.12132-2.12132-1.55874-2.683901-.795609-3 0-3Z" fill="#0000ff"/>
<path transform="matrix(1,0,0,-1,75.713977,301.66914)" stroke-width="1" stroke-linecap="butt" stroke-linejoin="round" fill="none" stroke="#0000ff" d="M0-3C.795609-3 1.55874-2.683901 2.12132-2.12132 2.683901-1.55874 3-.795609 3 0 3 .795609 2.683901 1.55874 2.12132 2.12132 1.55874 2.683901 .795609 3 0 3-.795609 3-1.55874 2.683901-2.12132 2.12132-2.683901 1.55874-3 .795609-3 0-3-.795609-2.683901-1.55874-2.12132-2.12132-1.55874-2.683901-.795609-3 0-3Z"/>
</g>
<g clip-path="url(#clip_3)">
<path transform="matrix(1,0,0,-1,92.801059,202.70186)" d="M0-3C.795609-3 1.55874-2.683901 2.12132-2.12132 2.683901-1.55874 3-.795609 3 0 3 .795609 2.683901 1.55874 2.12132 2.12132 1.55874 2.683901 .795609 3 0 3-.795609 3-1.55874 2.683901-2.12132 2.12132-2.683901 1.55874-3 .795609-3 0-3-.795609-2.683901-1.55874-2.12132-2.12132-1.55874-2.683901-.795609-3 0-3Z" fill="#0000ff"/>
<path transform="matrix(1,0,0,-1,92.801059,202.70186)" stroke-width="1" stroke-linecap="butt" stroke-linejoin="round" fill="none" stroke="#0000ff" d="M0-3C.795609-3 1.55874-2.683901 2.12132-2.12132 2.683901-1.55874 3-.795609 3 0 3 .795609 2.683901 1.55874 2.12132 2.12132 1.55874 2.683901 .795609 3 0 3-.795609 3-1.55874 2.683901-2.12132 2.12132-2.683901 1.55874-3 .795609-3 0-3-.795609-2.683901-1.55874-2.12132-2.12132-1.55874-2.683901-.795609-3 0-3Z"/>
</g>
<g clip-path="url(#clip_4)">
<path transform="matrix(1,0,0,-1,109.88814,59.74913)" d="M0-3C.795609-3 1.55874-2.683901 2.12132-2.12132 2.683901-1.55874 3-.795609 3 0 3 .795609 2.683901 1.55874 2.12132 2.12132 1.55874 2.683901 .795609 3 0 3-.795609 3-1.55874 2.683901-2.12132 2.12132-2.683901 1.55874-3 .795609-3 0-3-.795609-2.683901-1.55874-2.12132-2.12132-1.55874-2.683901-.795609-3 0-3Z" fill="#0000ff"/>
<path transform="matrix(1,0,0,-1,109.88814,59.74913)" stroke-width="1" stroke-linecap="butt" stroke-linejoin="round" fill="none" stroke="#0000ff" d="M0-3C.795609-3 1.55874-2.683901 2.12132-2.12132 2.683901-1.55874 3-.795609 3 0 3 .795609 2.683901 1.55874 2.12132 2.12132 1.55874 2.683901 .795609 3 0 3-.795609 3-1.55874 2.683901-2.12132 2.12132-2.683901 1.55874-3 .795609-3 0-3-.795609-2.683901-1.55874-2.12132-2.12132-1.55874-2.683901-.795609-3 0-3Z"/>
</g>
<g clip-path="url(#clip_5)">
<path transform="matrix(1,0,0,-1,126.97522,195.37094)" d="M0-3C.795609-3 1.55874-2.683901 2.12132-2.12132 2.683901-1.55874 3-.795609 3 0 3 .795609 2.683901 1.55874 2.12132 2.12132 1.55874 2.683901 .795609 3 0 3-.795609 3-1.55874 2.683901-2.12132 2.12132-2.683901 1.55874-3 .795609-3 0-3-.795609-2.683901-1.55874-2.12132-2.12132-1.55874-2.683901-.795609-3 0-3Z" fill="#0000ff"/>
<path transform="matrix(1,0,0,-1,126.97522,195.37094)" stroke-width="1" stroke-linecap="butt" stroke-linejoin="round" fill="none" stroke="#0000ff" d="M0-3C.795609-3 1.55874-2.683901 2.12132-2.12132 2.683901-1.55874 3-.795609 3 0 3 .795609 2.683901 1.55874 2.12132 2.12132 1.55874 2.683901 .795609 3 0 3-.795609 3-1.55874 2.683901-2.12132 2.12132-2.683901 1.55874-3 .795609-3 0-3-.795609-2.683901-1.55874-2.12132-2.12132-1.55874-2.683901-.795609-3 0-3Z"/>
</g>
<g clip-path="url(#clip_6)">
<path transform="matrix(1,0,0,-1,144.0623,279.6764)" d="M0-3C.795609-3 1.55874-2.683901 2.12132-2.12132 2.683901-1.55874 3-.795609 3 0 3 .795609 2.683901 1.55874 2.12132 2.12132 1.55874 2.683901 .795609 3 0 3-.795609 3-1.55874 2.683901-2.12132 2.12132-2.683901 1.55874-3 .795609-3 0-3-.795609-2.683901-1.55874-2.12132-2.12132-1.55874-2.683901-.795609-3 0-3Z" fill="#0000ff"/>
<path transform="matrix(1,0,0,-1,144.0623,279.6764)" stroke-width="1" stroke-linecap="butt" stroke-linejoin="round" fill="none" stroke="#0000ff" d="M0-3C.795609-3 1.55874-2.683901 2.12132-2.12132 2.683901-1.55874 3-.795609 3 0 3 .795609 2.683901 1.55874 2.12132 2.12132 1.55874 2.683901 .795609 3 0 3-.795609 3-1.55874 2.683901-2.12132 2.12132-2.683901 1.55874-3 .795609-3 0-3-.795609-2.683901-1.55874-2.12132-2.12132-1.55874-2.683901-.795609-3 0-3Z"/>
</g>
<g clip-path="url(#clip_7)">
<path transform="matrix(1,0,0,-1,161.14939,301.66914)" d="M0-3C.795609-3 1.55874-2.683901 2.12132-2.12132 2.683901-1.55874 3-.795609 3 0 3 .795609 2.683901 1.55874 2.12132 2.12132 1.55874 2.683901 .795609 3 0 3-.795609 3-1.55874 2.683901-2.12132 2.12132-2.683901 1.55874-3 .795609-3 0-3-.795609-2.683901-1.55874-2.12132-2.12132-1.55874-2.683901-.795609-3 0-3Z" fill="#0000ff"/>
<path transform="matrix(1,0,0,-1,161.14939,301.66914)" stroke-width="1" stroke-linecap="butt" stroke-linejoin="round" fill="none" stroke="#0000ff" d="M0-3C.795609-3 1.55874-2.683901 2.12132-2.12132 2.683901-1.55874 3-.795609 3 0 3 .795609 2.683901 1.55874 2.12132 2.12132 1.55874 2.683901 .795609 3 0 3-.795609 3-1.55874 2.683901-2.12132 2.12132-2.683901 1.55874-3 .795609-3 0-3-.795609-2.683901-1.55874-2.12132-2.12132-1.55874-2.683901-.795609-3 0-3Z"/>
</g>
<g clip-path="url(#clip_8)">
<path transform="matrix(1,0,0,-1,178.23647,301.66914)" d="M0-3C.795609-3 1.55874-2.683901 2.12132-2.12132 2.683901-1.55874 3-.795609 3 0 3 .795609 2.683901 1.55874 2.12132 2.12132 1.55874 2.683901 .795609 3 0 3-.795609 3-1.55874 2.683901-2.12132 2.12132-2.683901 1.55874-3 .795609-3 0-3-.795609-2.683901-1.55874-2.12132-2.12132-1.55874-2.683901-.795609-3 0-3Z" fill="#0000ff"/>
<path transform="matrix(1,0,0,-1,178.23647,301.66914)" stroke-width="1" stroke-linecap="butt" stroke-linejoin="round" fill="none" stroke="#0000ff" d="M0-3C.795609-3 1.55874-2.683901 2.12132-2.12132 2.683901-1.55874 3-.795609 3 0 3 .795609 2.683901 1.55874 2.12132 2.12132 1.55874 2.683901 .795609 3 0 3-.795609 3-1.55874 2.683901-2.12132 2.12132-2.683901 1.55874-3 .795609-3 0-3-.795609-2.683901-1.55874-2.12132-2.12132-1.55874-2.683901-.795609-3 0-3Z"/>
</g>
<g clip-path="url(#clip_9)">
<path transform="matrix(1,0,0,-1,195.32355,301.66914)" d="M0-3C.795609-3 1.55874-2.683901 2.12132-2.12132 2.683901-1.55874 3-.795609 3 0 3 .795609 2.683901 1.55874 2.12132 2.12132 1.55874 2.683901 .795609 3 0 3-.795609 3-1.55874 2.683901-2.12132 2.12132-2.683901 1.55874-3 .795609-3 0-3-.795609-2.683901-1.55874-2.12132-2.12132-1.55874-2.683901-.795609-3 0-3Z" fill="#0000ff"/>
<path transform="matrix(1,0,0,-1,195.32355,301.66914)" stroke-width="1" stroke-linecap="butt" stroke-linejoin="round" fill="none" stroke="#0000ff" d="M0-3C.795609-3 1.55874-2.683901 2.12132-2.12132 2.683901-1.55874 3-.795609 3 0 3 .795609 2.683901 1.55874 2.12132 2.12132 1.55874 2.683901 .795609 3 0 3-.795609 3-1.55874 2.683901-2.12132 2.12132-2.683901 1.55874-3 .795609-3 0-3-.795609-2.683901-1.55874-2.12132-2.12132-1.55874-2.683901-.795609-3 0-3Z"/>
</g>
<g clip-path="url(#clip_10)">
<path transform="matrix(1,0,0,-1,212.41063,301.66914)" d="M0-3C.795609-3 1.55874-2.683901 2.12132-2.12132 2.683901-1.55874 3-.795609 3 0 3 .795609 2.683901 1.55874 2.12132 2.12132 1.55874 2.683901 .795609 3 0 3-.795609 3-1.55874 2.683901-2.12132 2.12132-2.683901 1.55874-3 .795609-3 0-3-.795609-2.683901-1.55874-2.12132-2.12132-1.55874-2.683901-.795609-3 0-3Z" fill="#0000ff"/>
<path transform="matrix(1,0,0,-1,212.41063,301.66914)" stroke-width="1" stroke-linecap="butt" stroke-linejoin="round" fill="none" stroke="#0000ff" d="M0-3C.795609-3 1.55874-2.683901 2.12132-2.12132 2.683901-1.55874 3-.795609 3 0 3 .795609 2.683901 1.55874 2.12132 2.12132 1.55874 2.683901 .795609 3 0 3-.795609 3-1.55874 2.683901-2.12132 2.12132-2.683901 1.55874-3 .795609-3 0-3-.795609-2.683901-1.55874-2.12132-2.12132-1.55874-2.683901-.795609-3 0-3Z"/>
</g>
<g clip-path="url(#clip_11)">
<path transform="matrix(1,0,0,-1,229.49771,301.66914)" d="M0-3C.795609-3 1.55874-2.683901 2.12132-2.12132 2.683901-1.55874 3-.795609 3 0 3 .795609 2.683901 1.55874 2.12132 2.12132 1.55874 2.683901 .795609 3 0 3-.795609 3-1.55874 2.683901-2.12132 2.12132-2.683901 1.55874-3 .795609-3 0-3-.795609-2.683901-1.55874-2.12132-2.12132-1.55874-2.683901-.795609-3 0-3Z" fill="#0000ff"/>
<path transform="matrix(1,0,0,-1,229.49771,301.66914)" stroke-width="1" stroke-linecap="butt" stroke-linejoin="round" fill="none" stroke="#0000ff" d="M0-3C.795609-3 1.55874-2.683901 2.12132-2.12132 2.683901-1.55874 3-.795609 3 0 3 .795609 2.683901 1.55874 2.12132 2.12132 1.55874 2.683901 .795609 3 0 3-.795609 3-1.55874 2.683901-2.12132 2.12132-2.683901 1.55874-3 .795609-3 0-3-.795609-2.683901-1.55874-2.12132-2.12132-1.55874-2.683901-.795609-3 0-3Z"/>
</g>
<g clip-path="url(#clip_12)">
<path transform="matrix(1,0,0,-1,246.5848,301.66914)" d="M0-3C.795609-3 1.55874-2.683901 2.12132-2.12132 2.683901-1.55874 3-.795609 3 0 3 .795609 2.683901 1.55874 2.12132 2.12132 1.55874 2.683901 .795609 3 0 3-.795609 3-1.55874 2.683901-2.12132 2.12132-2.683901 1.55874-3 .795609-3 0-3-.795609-2.683901-1.55874-2.12132-2.12132-1.55874-2.683901-.795609-3 0-3Z" fill="#0000ff"/>
<path transform="matrix(1,0,0,-1,246.5848,301.66914)" stroke-width="1" stroke-linecap="butt" stroke-linejoin="round" fill="none" stroke="#0000ff" d="M0-3C.795609-3 1.55874-2.683901 2.12132-2.12132 2.683901-1.55874 3-.795609 3 0 3 .795609 2.683901 1.55874 2.12132 2.12132 1.55874 2.683901 .795609 3 0 3-.795609 3-1.55874 2.683901-2.12132 2.12132-2.683901 1.55874-3 .795609-3 0-3-.795609-2.683901-1.55874-2.12132-2.12132-1.55874-2.683901-.795609-3 0-3Z"/>
</g>
<g clip-path="url(#clip_13)">
<path transform="matrix(1,0,0,-1,263.67189,301.66914)" d="M0-3C.795609-3 1.55874-2.683901 2.12132-2.12132 2.683901-1.55874 3-.795609 3 0 3 .795609 2.683901 1.55874 2.12132 2.12132 1.55874 2.683901 .795609 3 0 3-.795609 3-1.55874 2.683901-2.12132 2.12132-2.683901 1.55874-3 .795609-3 0-3-.795609-2.683901-1.55874-2.12132-2.12132-1.55874-2.683901-.795609-3 0-3Z" fill="#0000ff"/>
<path transform="matrix(1,0,0,-1,263.67189,301.66914)" stroke-width="1" stroke-linecap="butt" stroke-linejoin="round" fill="none" stroke="#0000ff" d="M0-3C.795609-3 1.55874-2.683901 2.12132-2.12132 2.683901-1.55874 3-.795609 3 0 3 .795609 2.683901 1.55874 2.12132 2.12132 1.55874 2.683901 .795609 3 0 3-.795609 3-1.55874 2.683901-2.12132 2.12132-2.683901 1.55874-3 .795609-3 0-3-.795609-2.683901-1.55874-2.12132-2.12132-1.55874-2.683901-.795609-3 0-3Z"/>
</g>
<g clip-path="url(#clip_14)">
<path transform="matrix(1,0,0,-1,280.75898,301.66914)" d="M0-3C.795609-3 1.55874-2.683901 2.12132-2.12132 2.683901-1.55874 3-.795609 3 0 3 .795609 2.683901 1.55874 2.12132 2.12132 1.55874 2.683901 .795609 3 0 3-.795609 3-1.55874 2.683901-2.12132 2.12132-2.683901 1.55874-3 .795609-3 0-3-.795609-2.683901-1.55874-2.12132-2.12132-1.55874-2.683901-.795609-3 0-3Z" fill="#0000ff"/>
<path transform="matrix(1,0,0,-1,280.75898,301.66914)" stroke-width="1" stroke-linecap="butt" stroke-linejoin="round" fill="none" stroke="#0000ff" d="M0-3C.795609-3 1.55874-2.683901 2.12132-2.12132 2.683901-1.55874 3-.795609 3 0 3 .795609 2.683901 1.55874 2.12132 2.12132 1.55874 2.683901 .795609 3 0 3-.795609 3-1.55874 2.683901-2.12132 2.12132-2.683901 1.55874-3 .795609-3 0-3-.795609-2.683901-1.55874-2.12132-2.12132-1.55874-2.683901-.795609-3 0-3Z"/>
</g>
<g clip-path="url(#clip_15)">
<path transform="matrix(1,0,0,-1,297.84608,301.66914)" d="M0-3C.795609-3 1.55874-2.683901 2.12132-2.12132 2.683901-1.55874 3-.795609 3 0 3 .795609 2.683901 1.55874 2.12132 2.12132 1.55874 2.683901 .795609 3 0 3-.795609 3-1.55874 2.683901-2.12132 2.12132-2.683901 1.55874-3 .795609-3 0-3-.795609-2.683901-1.55874-2.12132-2.12132-1.55874-2.683901-.795609-3 0-3Z" fill="#0000ff"/>
<path transform="matrix(1,0,0,-1,297.84608,301.66914)" stroke-width="1" stroke-linecap="butt" stroke-linejoin="round" fill="none" stroke="#0000ff" d="M0-3C.795609-3 1.55874-2.683901 2.12132-2.12132 2.683901-1.55874 3-.795609 3 0 3 .795609 2.683901 1.55874 2.12132 2.12132 1.55874 2.683901 .795609 3 0 3-.795609 3-1.55874 2.683901-2.12132 2.12132-2.683901 1.55874-3 .795609-3 0-3-.795609-2.683901-1.55874-2.12132-2.12132-1.55874-2.683901-.795609-3 0-3Z"/>
</g>
<g clip-path="url(#clip_16)">
<path transform="matrix(1,0,0,-1,314.93318,301.66914)" d="M0-3C.795609-3 1.55874-2.683901 2.12132-2.12132 2.683901-1.55874 3-.795609 3 0 3 .795609 2.683901 1.55874 2.12132 2.12132 1.55874 2.683901 .795609 3 0 3-.795609 3-1.55874 2.683901-2.12132 2.12132-2.683901 1.55874-3 .795609-3 0-3-.795609-2.683901-1.55874-2.12132-2.12132-1.55874-2.683901-.795609-3 0-3Z" fill="#0000ff"/>
<path transform="matrix(1,0,0,-1,314.93318,301.66914)" stroke-width="1" stroke-linecap="butt" stroke-linejoin="round" fill="none" stroke="#0000ff" d="M0-3C.795609-3 1.55874-2.683901 2.12132-2.12132 2.683901-1.55874 3-.795609 3 0 3 .795609 2.683901 1.55874 2.12132 2.12132 1.55874 2.683901 .795609 3 0 3-.795609 3-1.55874 2.683901-2.12132 2.12132-2.683901 1.55874-3 .795609-3 0-3-.795609-2.683901-1.55874-2.12132-2.12132-1.55874-2.683901-.795609-3 0-3Z"/>
</g>
<g clip-path="url(#clip_17)">
<path transform="matrix(1,0,0,-1,332.02027,301.66914)" d="M0-3C.795609-3 1.55874-2.683901 2.12132-2.12132 2.683901-1.55874 3-.795609 3 0 3 .795609 2.683901 1.55874 2.12132 2.12132 1.55874 2.683901 .795609 3 0 3-.795609 3-1.55874 2.683901-2.12132 2.12132-2.683901 1.55874-3 .795609-3 0-3-.795609-2.683901-1.55874-2.12132-2.12132-1.55874-2.683901-.795609-3 0-3Z" fill="#0000ff"/>
<path transform="matrix(1,0,0,-1,332.02027,301.66914)" stroke-width="1" stroke-linecap="butt" stroke-linejoin="round" fill="none" stroke="#0000ff" d="M0-3C.795609-3 1.55874-2.683901 2.12132-2.12132 2.683901-1.55874 3-.795609 3 0 3 .795609 2.683901 1.55874 2.12132 2.12132 1.55874 2.683901 .795609 3 0 3-.795609 3-1.55874 2.683901-2.12132 2.12132-2.683901 1.55874-3 .795609-3 0-3-.795609-2.683901-1.55874-2.12132-2.12132-1.55874-2.683901-.795609-3 0-3Z"/>
</g>
<g clip-path="url(#clip_18)">
<path transform="matrix(1,0,0,-1,349.10737,301.66914)" d="M0-3C.795609-3 1.55874-2.683901 2.12132-2.12132 2.683901-1.55874 3-.795609 3 0 3 .795609 2.683901 1.55874 2.12132 2.12132 1.55874 2.683901 .795609 3 0 3-.795609 3-1.55874 2.683901-2.12132 2.12132-2.683901 1.55874-3 .795609-3 0-3-.795609-2.683901-1.55874-2.12132-2.12132-1.55874-2.683901-.795609-3 0-3Z" fill="#0000ff"/>
<path transform="matrix(1,0,0,-1,349.10737,301.66914)" stroke-width="1" stroke-linecap="butt" stroke-linejoin="round" fill="none" stroke="#0000ff" d="M0-3C.795609-3 1.55874-2.683901 2.12132-2.12132 2.683901-1.55874 3-.795609 3 0 3 .795609 2.683901 1.55874 2.12132 2.12132 1.55874 2.683901 .795609 3 0 3-.795609 3-1.55874 2.683901-2.12132 2.12132-2.683901 1.55874-3 .795609-3 0-3-.795609-2.683901-1.55874-2.12132-2.12132-1.55874-2.683901-.795609-3 0-3Z"/>
</g>
<g clip-path="url(#clip_19)">
<path transform="matrix(1,0,0,-1,366.19447,301.66914)" d="M0-3C.795609-3 1.55874-2.683901 2.12132-2.12132 2.683901-1.55874 3-.795609 3 0 3 .795609 2.683901 1.55874 2.12132 2.12132 1.55874 2.683901 .795609 3 0 3-.795609 3-1.55874 2.683901-2.12132 2.12132-2.683901 1.55874-3 .795609-3 0-3-.795609-2.683901-1.55874-2.12132-2.12132-1.55874-2.683901-.795609-3 0-3Z" fill="#0000ff"/>
<path transform="matrix(1,0,0,-1,366.19447,301.66914)" stroke-width="1" stroke-linecap="butt" stroke-linejoin="round" fill="none" stroke="#0000ff" d="M0-3C.795609-3 1.55874-2.683901 2.12132-2.12132 2.683901-1.55874 3-.795609 3 0 3 .795609 2.683901 1.55874 2.12132 2.12132 1.55874 2.683901 .795609 3 0 3-.795609 3-1.55874 2.683901-2.12132 2.12132-2.683901 1.55874-3 .795609-3 0-3-.795609-2.683901-1.55874-2.12132-2.12132-1.55874-2.683901-.795609-3 0-3Z"/>
</g>
<g clip-path="url(#clip_20)">
<path transform="matrix(1,0,0,-1,383.28157,301.66914)" d="M0-3C.795609-3 1.55874-2.683901 2.12132-2.12132 2.683901-1.55874 3-.795609 3 0 3 .795609 2.683901 1.55874 2.12132 2.12132 1.55874 2.683901 .795609 3 0 3-.795609 3-1.55874 2.683901-2.12132 2.12132-2.683901 1.55874-3 .795609-3 0-3-.795609-2.683901-1.55874-2.12132-2.12132-1.55874-2.683901-.795609-3 0-3Z" fill="#0000ff"/>
<path transform="matrix(1,0,0,-1,383.28157,301.66914)" stroke-width="1" stroke-linecap="butt" stroke-linejoin="round" fill="none" stroke="#0000ff" d="M0-3C.795609-3 1.55874-2.683901 2.12132-2.12132 2.683901-1.55874 3-.795609 3 0 3 .795609 2.683901 1.55874 2.12132 2.12132 1.55874 2.683901 .795609 3 0 3-.795609 3-1.55874 2.683901-2.12132 2.12132-2.683901 1.55874-3 .795609-3 0-3-.795609-2.683901-1.55874-2.12132-2.12132-1.55874-2.683901-.795609-3 0-3Z"/>
</g>
<g clip-path="url(#clip_21)">
<path transform="matrix(1,0,0,-1,400.36866,301.66914)" d="M0-3C.795609-3 1.55874-2.683901 2.12132-2.12132 2.683901-1.55874 3-.795609 3 0 3 .795609 2.683901 1.55874 2.12132 2.12132 1.55874 2.683901 .795609 3 0 3-.795609 3-1.55874 2.683901-2.12132 2.12132-2.683901 1.55874-3 .795609-3 0-3-.795609-2.683901-1.55874-2.12132-2.12132-1.55874-2.683901-.795609-3 0-3Z" fill="#0000ff"/>
<path transform="matrix(1,0,0,-1,400.36866,301.66914)" stroke-width="1" stroke-linecap="butt" stroke-linejoin="round" fill="none" stroke="#0000ff" d="M0-3C.795609-3 1.55874-2.683901 2.12132-2.12132 2.683901-1.55874 3-.795609 3 0 3 .795609 2.683901 1.55874 2.12132 2.12132 1.55874 2.683901 .795609 3 0 3-.795609 3-1.55874 2.683901-2.12132 2.12132-2.683901 1.55874-3 .795609-3 0-3-.795609-2.683901-1.55874-2.12132-2.12132-1.55874-2.683901-.795609-3 0-3Z"/>
</g>
</g>
<g clip-path="url(#clip_22)">
<path transform="matrix(1,0,0,-1,0,363.90263)" stroke-width=".5" stroke-linecap="butt" stroke-dasharray="1.85,.8" stroke-linejoin="round" fill="none" stroke="#ff0000" d="M75.713977 152.2845 92.801059 187.96433 109.88814 137.99344 126.97522 104.266399 144.0623 92.16085 161.14939 84.05144 178.23647 79.029079 195.32355 74.958919 212.41063 72.586879 229.49771 70.11129 246.5848 68.60395 263.67189 67.08569 280.75895 66.18291 297.84605 65.25382 314.9331 64.69629 332.0202 64.094638 349.10728 63.707136 366.19438 63.322145 383.28144 63.084337 400.36854 62.86755"/>
<g clip-path="url(#clip_23)">
<path transform="matrix(1,0,0,-1,75.713977,211.61812)" d="M0-3C.795609-3 1.55874-2.683901 2.12132-2.12132 2.683901-1.55874 3-.795609 3 0 3 .795609 2.683901 1.55874 2.12132 2.12132 1.55874 2.683901 .795609 3 0 3-.795609 3-1.55874 2.683901-2.12132 2.12132-2.683901 1.55874-3 .795609-3 0-3-.795609-2.683901-1.55874-2.12132-2.12132-1.55874-2.683901-.795609-3 0-3Z" fill="#ff0000"/>
<path transform="matrix(1,0,0,-1,75.713977,211.61812)" stroke-width="1" stroke-linecap="butt" stroke-linejoin="round" fill="none" stroke="#ff0000" d="M0-3C.795609-3 1.55874-2.683901 2.12132-2.12132 2.683901-1.55874 3-.795609 3 0 3 .795609 2.683901 1.55874 2.12132 2.12132 1.55874 2.683901 .795609 3 0 3-.795609 3-1.55874 2.683901-2.12132 2.12132-2.683901 1.55874-3 .795609-3 0-3-.795609-2.683901-1.55874-2.12132-2.12132-1.55874-2.683901-.795609-3 0-3Z"/>
</g>
<g clip-path="url(#clip_24)">
<path transform="matrix(1,0,0,-1,92.801059,175.9383)" d="M0-3C.795609-3 1.55874-2.683901 2.12132-2.12132 2.683901-1.55874 3-.795609 3 0 3 .795609 2.683901 1.55874 2.12132 2.12132 1.55874 2.683901 .795609 3 0 3-.795609 3-1.55874 2.683901-2.12132 2.12132-2.683901 1.55874-3 .795609-3 0-3-.795609-2.683901-1.55874-2.12132-2.12132-1.55874-2.683901-.795609-3 0-3Z" fill="#ff0000"/>
<path transform="matrix(1,0,0,-1,92.801059,175.9383)" stroke-width="1" stroke-linecap="butt" stroke-linejoin="round" fill="none" stroke="#ff0000" d="M0-3C.795609-3 1.55874-2.683901 2.12132-2.12132 2.683901-1.55874 3-.795609 3 0 3 .795609 2.683901 1.55874 2.12132 2.12132 1.55874 2.683901 .795609 3 0 3-.795609 3-1.55874 2.683901-2.12132 2.12132-2.683901 1.55874-3 .795609-3 0-3-.795609-2.683901-1.55874-2.12132-2.12132-1.55874-2.683901-.795609-3 0-3Z"/>
</g>
<g clip-path="url(#clip_25)">
<path transform="matrix(1,0,0,-1,109.88814,225.90918)" d="M0-3C.795609-3 1.55874-2.683901 2.12132-2.12132 2.683901-1.55874 3-.795609 3 0 3 .795609 2.683901 1.55874 2.12132 2.12132 1.55874 2.683901 .795609 3 0 3-.795609 3-1.55874 2.683901-2.12132 2.12132-2.683901 1.55874-3 .795609-3 0-3-.795609-2.683901-1.55874-2.12132-2.12132-1.55874-2.683901-.795609-3 0-3Z" fill="#ff0000"/>
<path transform="matrix(1,0,0,-1,109.88814,225.90918)" stroke-width="1" stroke-linecap="butt" stroke-linejoin="round" fill="none" stroke="#ff0000" d="M0-3C.795609-3 1.55874-2.683901 2.12132-2.12132 2.683901-1.55874 3-.795609 3 0 3 .795609 2.683901 1.55874 2.12132 2.12132 1.55874 2.683901 .795609 3 0 3-.795609 3-1.55874 2.683901-2.12132 2.12132-2.683901 1.55874-3 .795609-3 0-3-.795609-2.683901-1.55874-2.12132-2.12132-1.55874-2.683901-.795609-3 0-3Z"/>
</g>
<g clip-path="url(#clip_26)">
<path transform="matrix(1,0,0,-1,126.97522,259.63624)" d="M0-3C.795609-3 1.55874-2.683901 2.12132-2.12132 2.683901-1.55874 3-.795609 3 0 3 .795609 2.683901 1.55874 2.12132 2.12132 1.55874 2.683901 .795609 3 0 3-.795609 3-1.55874 2.683901-2.12132 2.12132-2.683901 1.55874-3 .795609-3 0-3-.795609-2.683901-1.55874-2.12132-2.12132-1.55874-2.683901-.795609-3 0-3Z" fill="#ff0000"/>
<path transform="matrix(1,0,0,-1,126.97522,259.63624)" stroke-width="1" stroke-linecap="butt" stroke-linejoin="round" fill="none" stroke="#ff0000" d="M0-3C.795609-3 1.55874-2.683901 2.12132-2.12132 2.683901-1.55874 3-.795609 3 0 3 .795609 2.683901 1.55874 2.12132 2.12132 1.55874 2.683901 .795609 3 0 3-.795609 3-1.55874 2.683901-2.12132 2.12132-2.683901 1.55874-3 .795609-3 0-3-.795609-2.683901-1.55874-2.12132-2.12132-1.55874-2.683901-.795609-3 0-3Z"/>
</g>
<g clip-path="url(#clip_27)">
<path transform="matrix(1,0,0,-1,144.0623,271.74177)" d="M0-3C.795609-3 1.55874-2.683901 2.12132-2.12132 2.683901-1.55874 3-.795609 3 0 3 .795609 2.683901 1.55874 2.12132 2.12132 1.55874 2.683901 .795609 3 0 3-.795609 3-1.55874 2.683901-2.12132 2.12132-2.683901 1.55874-3 .795609-3 0-3-.795609-2.683901-1.55874-2.12132-2.12132-1.55874-2.683901-.795609-3 0-3Z" fill="#ff0000"/>
<path transform="matrix(1,0,0,-1,144.0623,271.74177)" stroke-width="1" stroke-linecap="butt" stroke-linejoin="round" fill="none" stroke="#ff0000" d="M0-3C.795609-3 1.55874-2.683901 2.12132-2.12132 2.683901-1.55874 3-.795609 3 0 3 .795609 2.683901 1.55874 2.12132 2.12132 1.55874 2.683901 .795609 3 0 3-.795609 3-1.55874 2.683901-2.12132 2.12132-2.683901 1.55874-3 .795609-3 0-3-.795609-2.683901-1.55874-2.12132-2.12132-1.55874-2.683901-.795609-3 0-3Z"/>
</g>
<g clip-path="url(#clip_28)">
<path transform="matrix(1,0,0,-1,161.14939,279.85118)" d="M0-3C.795609-3 1.55874-2.683901 2.12132-2.12132 2.683901-1.55874 3-.795609 3 0 3 .795609 2.683901 1.55874 2.12132 2.12132 1.55874 2.683901 .795609 3 0 3-.795609 3-1.55874 2.683901-2.12132 2.12132-2.683901 1.55874-3 .795609-3 0-3-.795609-2.683901-1.55874-2.12132-2.12132-1.55874-2.683901-.795609-3 0-3Z" fill="#ff0000"/>
<path transform="matrix(1,0,0,-1,161.14939,279.85118)" stroke-width="1" stroke-linecap="butt" stroke-linejoin="round" fill="none" stroke="#ff0000" d="M0-3C.795609-3 1.55874-2.683901 2.12132-2.12132 2.683901-1.55874 3-.795609 3 0 3 .795609 2.683901 1.55874 2.12132 2.12132 1.55874 2.683901 .795609 3 0 3-.795609 3-1.55874 2.683901-2.12132 2.12132-2.683901 1.55874-3 .795609-3 0-3-.795609-2.683901-1.55874-2.12132-2.12132-1.55874-2.683901-.795609-3 0-3Z"/>
</g>
<g clip-path="url(#clip_29)">
<path transform="matrix(1,0,0,-1,178.23647,284.87355)" d="M0-3C.795609-3 1.55874-2.683901 2.12132-2.12132 2.683901-1.55874 3-.795609 3 0 3 .795609 2.683901 1.55874 2.12132 2.12132 1.55874 2.683901 .795609 3 0 3-.795609 3-1.55874 2.683901-2.12132 2.12132-2.683901 1.55874-3 .795609-3 0-3-.795609-2.683901-1.55874-2.12132-2.12132-1.55874-2.683901-.795609-3 0-3Z" fill="#ff0000"/>
<path transform="matrix(1,0,0,-1,178.23647,284.87355)" stroke-width="1" stroke-linecap="butt" stroke-linejoin="round" fill="none" stroke="#ff0000" d="M0-3C.795609-3 1.55874-2.683901 2.12132-2.12132 2.683901-1.55874 3-.795609 3 0 3 .795609 2.683901 1.55874 2.12132 2.12132 1.55874 2.683901 .795609 3 0 3-.795609 3-1.55874 2.683901-2.12132 2.12132-2.683901 1.55874-3 .795609-3 0-3-.795609-2.683901-1.55874-2.12132-2.12132-1.55874-2.683901-.795609-3 0-3Z"/>
</g>
<g clip-path="url(#clip_30)">
<path transform="matrix(1,0,0,-1,195.32355,288.9437)" d="M0-3C.795609-3 1.55874-2.683901 2.12132-2.12132 2.683901-1.55874 3-.795609 3 0 3 .795609 2.683901 1.55874 2.12132 2.12132 1.55874 2.683901 .795609 3 0 3-.795609 3-1.55874 2.683901-2.12132 2.12132-2.683901 1.55874-3 .795609-3 0-3-.795609-2.683901-1.55874-2.12132-2.12132-1.55874-2.683901-.795609-3 0-3Z" fill="#ff0000"/>
<path transform="matrix(1,0,0,-1,195.32355,288.9437)" stroke-width="1" stroke-linecap="butt" stroke-linejoin="round" fill="none" stroke="#ff0000" d="M0-3C.795609-3 1.55874-2.683901 2.12132-2.12132 2.683901-1.55874 3-.795609 3 0 3 .795609 2.683901 1.55874 2.12132 2.12132 1.55874 2.683901 .795609 3 0 3-.795609 3-1.55874 2.683901-2.12132 2.12132-2.683901 1.55874-3 .795609-3 0-3-.795609-2.683901-1.55874-2.12132-2.12132-1.55874-2.683901-.795609-3 0-3Z"/>
</g>
<g clip-path="url(#clip_31)">
<path transform="matrix(1,0,0,-1,212.41063,291.31575)" d="M0-3C.795609-3 1.55874-2.683901 2.12132-2.12132 2.683901-1.55874 3-.795609 3 0 3 .795609 2.683901 1.55874 2.12132 2.12132 1.55874 2.683901 .795609 3 0 3-.795609 3-1.55874 2.683901-2.12132 2.12132-2.683901 1.55874-3 .795609-3 0-3-.795609-2.683901-1.55874-2.12132-2.12132-1.55874-2.683901-.795609-3 0-3Z" fill="#ff0000"/>
<path transform="matrix(1,0,0,-1,212.41063,291.31575)" stroke-width="1" stroke-linecap="butt" stroke-linejoin="round" fill="none" stroke="#ff0000" d="M0-3C.795609-3 1.55874-2.683901 2.12132-2.12132 2.683901-1.55874 3-.795609 3 0 3 .795609 2.683901 1.55874 2.12132 2.12132 1.55874 2.683901 .795609 3 0 3-.795609 3-1.55874 2.683901-2.12132 2.12132-2.683901 1.55874-3 .795609-3 0-3-.795609-2.683901-1.55874-2.12132-2.12132-1.55874-2.683901-.795609-3 0-3Z"/>
</g>
<g clip-path="url(#clip_32)">
<path transform="matrix(1,0,0,-1,229.49771,293.79133)" d="M0-3C.795609-3 1.55874-2.683901 2.12132-2.12132 2.683901-1.55874 3-.795609 3 0 3 .795609 2.683901 1.55874 2.12132 2.12132 1.55874 2.683901 .795609 3 0 3-.795609 3-1.55874 2.683901-2.12132 2.12132-2.683901 1.55874-3 .795609-3 0-3-.795609-2.683901-1.55874-2.12132-2.12132-1.55874-2.683901-.795609-3 0-3Z" fill="#ff0000"/>
<path transform="matrix(1,0,0,-1,229.49771,293.79133)" stroke-width="1" stroke-linecap="butt" stroke-linejoin="round" fill="none" stroke="#ff0000" d="M0-3C.795609-3 1.55874-2.683901 2.12132-2.12132 2.683901-1.55874 3-.795609 3 0 3 .795609 2.683901 1.55874 2.12132 2.12132 1.55874 2.683901 .795609 3 0 3-.795609 3-1.55874 2.683901-2.12132 2.12132-2.683901 1.55874-3 .795609-3 0-3-.795609-2.683901-1.55874-2.12132-2.12132-1.55874-2.683901-.795609-3 0-3Z"/>
</g>
<g clip-path="url(#clip_33)">
<path transform="matrix(1,0,0,-1,246.5848,295.29869)" d="M0-3C.795609-3 1.55874-2.683901 2.12132-2.12132 2.683901-1.55874 3-.795609 3 0 3 .795609 2.683901 1.55874 2.12132 2.12132 1.55874 2.683901 .795609 3 0 3-.795609 3-1.55874 2.683901-2.12132 2.12132-2.683901 1.55874-3 .795609-3 0-3-.795609-2.683901-1.55874-2.12132-2.12132-1.55874-2.683901-.795609-3 0-3Z" fill="#ff0000"/>
<path transform="matrix(1,0,0,-1,246.5848,295.29869)" stroke-width="1" stroke-linecap="butt" stroke-linejoin="round" fill="none" stroke="#ff0000" d="M0-3C.795609-3 1.55874-2.683901 2.12132-2.12132 2.683901-1.55874 3-.795609 3 0 3 .795609 2.683901 1.55874 2.12132 2.12132 1.55874 2.683901 .795609 3 0 3-.795609 3-1.55874 2.683901-2.12132 2.12132-2.683901 1.55874-3 .795609-3 0-3-.795609-2.683901-1.55874-2.12132-2.12132-1.55874-2.683901-.795609-3 0-3Z"/>
</g>
<g clip-path="url(#clip_34)">
<path transform="matrix(1,0,0,-1,263.67189,296.81694)" d="M0-3C.795609-3 1.55874-2.683901 2.12132-2.12132 2.683901-1.55874 3-.795609 3 0 3 .795609 2.683901 1.55874 2.12132 2.12132 1.55874 2.683901 .795609 3 0 3-.795609 3-1.55874 2.683901-2.12132 2.12132-2.683901 1.55874-3 .795609-3 0-3-.795609-2.683901-1.55874-2.12132-2.12132-1.55874-2.683901-.795609-3 0-3Z" fill="#ff0000"/>
<path transform="matrix(1,0,0,-1,263.67189,296.81694)" stroke-width="1" stroke-linecap="butt" stroke-linejoin="round" fill="none" stroke="#ff0000" d="M0-3C.795609-3 1.55874-2.683901 2.12132-2.12132 2.683901-1.55874 3-.795609 3 0 3 .795609 2.683901 1.55874 2.12132 2.12132 1.55874 2.683901 .795609 3 0 3-.795609 3-1.55874 2.683901-2.12132 2.12132-2.683901 1.55874-3 .795609-3 0-3-.795609-2.683901-1.55874-2.12132-2.12132-1.55874-2.683901-.795609-3 0-3Z"/>
</g>
<g clip-path="url(#clip_35)">
<path transform="matrix(1,0,0,-1,280.75898,297.7197)" d="M0-3C.795609-3 1.55874-2.683901 2.12132-2.12132 2.683901-1.55874 3-.795609 3 0 3 .795609 2.683901 1.55874 2.12132 2.12132 1.55874 2.683901 .795609 3 0 3-.795609 3-1.55874 2.683901-2.12132 2.12132-2.683901 1.55874-3 .795609-3 0-3-.795609-2.683901-1.55874-2.12132-2.12132-1.55874-2.683901-.795609-3 0-3Z" fill="#ff0000"/>
<path transform="matrix(1,0,0,-1,280.75898,297.7197)" stroke-width="1" stroke-linecap="butt" stroke-linejoin="round" fill="none" stroke="#ff0000" d="M0-3C.795609-3 1.55874-2.683901 2.12132-2.12132 2.683901-1.55874 3-.795609 3 0 3 .795609 2.683901 1.55874 2.12132 2.12132 1.55874 2.683901 .795609 3 0 3-.795609 3-1.55874 2.683901-2.12132 2.12132-2.683901 1.55874-3 .795609-3 0-3-.795609-2.683901-1.55874-2.12132-2.12132-1.55874-2.683901-.795609-3 0-3Z"/>
</g>
<g clip-path="url(#clip_36)">
<path transform="matrix(1,0,0,-1,297.84608,298.64878)" d="M0-3C.795609-3 1.55874-2.683901 2.12132-2.12132 2.683901-1.55874 3-.795609 3 0 3 .795609 2.683901 1.55874 2.12132 2.12132 1.55874 2.683901 .795609 3 0 3-.795609 3-1.55874 2.683901-2.12132 2.12132-2.683901 1.55874-3 .795609-3 0-3-.795609-2.683901-1.55874-2.12132-2.12132-1.55874-2.683901-.795609-3 0-3Z" fill="#ff0000"/>
<path transform="matrix(1,0,0,-1,297.84608,298.64878)" stroke-width="1" stroke-linecap="butt" stroke-linejoin="round" fill="none" stroke="#ff0000" d="M0-3C.795609-3 1.55874-2.683901 2.12132-2.12132 2.683901-1.55874 3-.795609 3 0 3 .795609 2.683901 1.55874 2.12132 2.12132 1.55874 2.683901 .795609 3 0 3-.795609 3-1.55874 2.683901-2.12132 2.12132-2.683901 1.55874-3 .795609-3 0-3-.795609-2.683901-1.55874-2.12132-2.12132-1.55874-2.683901-.795609-3 0-3Z"/>
</g>
<g clip-path="url(#clip_37)">
<path transform="matrix(1,0,0,-1,314.93318,299.2063)" d="M0-3C.795609-3 1.55874-2.683901 2.12132-2.12132 2.683901-1.55874 3-.795609 3 0 3 .795609 2.683901 1.55874 2.12132 2.12132 1.55874 2.683901 .795609 3 0 3-.795609 3-1.55874 2.683901-2.12132 2.12132-2.683901 1.55874-3 .795609-3 0-3-.795609-2.683901-1.55874-2.12132-2.12132-1.55874-2.683901-.795609-3 0-3Z" fill="#ff0000"/>
<path transform="matrix(1,0,0,-1,314.93318,299.2063)" stroke-width="1" stroke-linecap="butt" stroke-linejoin="round" fill="none" stroke="#ff0000" d="M0-3C.795609-3 1.55874-2.683901 2.12132-2.12132 2.683901-1.55874 3-.795609 3 0 3 .795609 2.683901 1.55874 2.12132 2.12132 1.55874 2.683901 .795609 3 0 3-.795609 3-1.55874 2.683901-2.12132 2.12132-2.683901 1.55874-3 .795609-3 0-3-.795609-2.683901-1.55874-2.12132-2.12132-1.55874-2.683901-.795609-3 0-3Z"/>
</g>
<g clip-path="url(#clip_38)">
<path transform="matrix(1,0,0,-1,332.02027,299.80796)" d="M0-3C.795609-3 1.55874-2.683901 2.12132-2.12132 2.683901-1.55874 3-.795609 3 0 3 .795609 2.683901 1.55874 2.12132 2.12132 1.55874 2.683901 .795609 3 0 3-.795609 3-1.55874 2.683901-2.12132 2.12132-2.683901 1.55874-3 .795609-3 0-3-.795609-2.683901-1.55874-2.12132-2.12132-1.55874-2.683901-.795609-3 0-3Z" fill="#ff0000"/>
<path transform="matrix(1,0,0,-1,332.02027,299.80796)" stroke-width="1" stroke-linecap="butt" stroke-linejoin="round" fill="none" stroke="#ff0000" d="M0-3C.795609-3 1.55874-2.683901 2.12132-2.12132 2.683901-1.55874 3-.795609 3 0 3 .795609 2.683901 1.55874 2.12132 2.12132 1.55874 2.683901 .795609 3 0 3-.795609 3-1.55874 2.683901-2.12132 2.12132-2.683901 1.55874-3 .795609-3 0-3-.795609-2.683901-1.55874-2.12132-2.12132-1.55874-2.683901-.795609-3 0-3Z"/>
</g>
<g clip-path="url(#clip_39)">
<path transform="matrix(1,0,0,-1,349.10737,300.19544)" d="M0-3C.795609-3 1.55874-2.683901 2.12132-2.12132 2.683901-1.55874 3-.795609 3 0 3 .795609 2.683901 1.55874 2.12132 2.12132 1.55874 2.683901 .795609 3 0 3-.795609 3-1.55874 2.683901-2.12132 2.12132-2.683901 1.55874-3 .795609-3 0-3-.795609-2.683901-1.55874-2.12132-2.12132-1.55874-2.683901-.795609-3 0-3Z" fill="#ff0000"/>
<path transform="matrix(1,0,0,-1,349.10737,300.19544)" stroke-width="1" stroke-linecap="butt" stroke-linejoin="round" fill="none" stroke="#ff0000" d="M0-3C.795609-3 1.55874-2.683901 2.12132-2.12132 2.683901-1.55874 3-.795609 3 0 3 .795609 2.683901 1.55874 2.12132 2.12132 1.55874 2.683901 .795609 3 0 3-.795609 3-1.55874 2.683901-2.12132 2.12132-2.683901 1.55874-3 .795609-3 0-3-.795609-2.683901-1.55874-2.12132-2.12132-1.55874-2.683901-.795609-3 0-3Z"/>
</g>
<g clip-path="url(#clip_40)">
<path transform="matrix(1,0,0,-1,366.19447,300.5804)" d="M0-3C.795609-3 1.55874-2.683901 2.12132-2.12132 2.683901-1.55874 3-.795609 3 0 3 .795609 2.683901 1.55874 2.12132 2.12132 1.55874 2.683901 .795609 3 0 3-.795609 3-1.55874 2.683901-2.12132 2.12132-2.683901 1.55874-3 .795609-3 0-3-.795609-2.683901-1.55874-2.12132-2.12132-1.55874-2.683901-.795609-3 0-3Z" fill="#ff0000"/>
<path transform="matrix(1,0,0,-1,366.19447,300.5804)" stroke-width="1" stroke-linecap="butt" stroke-linejoin="round" fill="none" stroke="#ff0000" d="M0-3C.795609-3 1.55874-2.683901 2.12132-2.12132 2.683901-1.55874 3-.795609 3 0 3 .795609 2.683901 1.55874 2.12132 2.12132 1.55874 2.683901 .795609 3 0 3-.795609 3-1.55874 2.683901-2.12132 2.12132-2.683901 1.55874-3 .795609-3 0-3-.795609-2.683901-1.55874-2.12132-2.12132-1.55874-2.683901-.795609-3 0-3Z"/>
</g>
<g clip-path="url(#clip_41)">
<path transform="matrix(1,0,0,-1,383.28157,300.8182)" d="M0-3C.795609-3 1.55874-2.683901 2.12132-2.12132 2.683901-1.55874 3-.795609 3 0 3 .795609 2.683901 1.55874 2.12132 2.12132 1.55874 2.683901 .795609 3 0 3-.795609 3-1.55874 2.683901-2.12132 2.12132-2.683901 1.55874-3 .795609-3 0-3-.795609-2.683901-1.55874-2.12132-2.12132-1.55874-2.683901-.795609-3 0-3Z" fill="#ff0000"/>
<path transform="matrix(1,0,0,-1,383.28157,300.8182)" stroke-width="1" stroke-linecap="butt" stroke-linejoin="round" fill="none" stroke="#ff0000" d="M0-3C.795609-3 1.55874-2.683901 2.12132-2.12132 2.683901-1.55874 3-.795609 3 0 3 .795609 2.683901 1.55874 2.12132 2.12132 1.55874 2.683901 .795609 3 0 3-.795609 3-1.55874 2.683901-2.12132 2.12132-2.683901 1.55874-3 .795609-3 0-3-.795609-2.683901-1.55874-2.12132-2.12132-1.55874-2.683901-.795609-3 0-3Z"/>
</g>
<g clip-path="url(#clip_42)">
<path transform="matrix(1,0,0,-1,400.36866,301.035)" d="M0-3C.795609-3 1.55874-2.683901 2.12132-2.12132 2.683901-1.55874 3-.795609 3 0 3 .795609 2.683901 1.55874 2.12132 2.12132 1.55874 2.683901 .795609 3 0 3-.795609 3-1.55874 2.683901-2.12132 2.12132-2.683901 1.55874-3 .795609-3 0-3-.795609-2.683901-1.55874-2.12132-2.12132-1.55874-2.683901-.795609-3 0-3Z" fill="#ff0000"/>
<path transform="matrix(1,0,0,-1,400.36866,301.035)" stroke-width="1" stroke-linecap="butt" stroke-linejoin="round" fill="none" stroke="#ff0000" d="M0-3C.795609-3 1.55874-2.683901 2.12132-2.12132 2.683901-1.55874 3-.795609 3 0 3 .795609 2.683901 1.55874 2.12132 2.12132 1.55874 2.683901 .795609 3 0 3-.795609 3-1.55874 2.683901-2.12132 2.12132-2.683901 1.55874-3 .795609-3 0-3-.795609-2.683901-1.55874-2.12132-2.12132-1.55874-2.683901-.795609-3 0-3Z"/>
</g>
</g>
<path transform="matrix(1,0,0,-1,0,363.90263)" stroke-width=".8" stroke-linecap="square" stroke-miterlimit="10" stroke-linejoin="miter" fill="none" stroke="#000000" d="M59.48125 50.1375V316.2495"/>
<path transform="matrix(1,0,0,-1,0,363.90263)" stroke-width=".8" stroke-linecap="square" stroke-miterlimit="10" stroke-linejoin="miter" fill="none" stroke="#000000" d="M416.60127 50.1375V316.2495"/>
<path transform="matrix(1,0,0,-1,0,363.90263)" stroke-width=".8" stroke-linecap="square" stroke-miterlimit="10" stroke-linejoin="miter" fill="none" stroke="#000000" d="M59.48125 50.1375H416.60127"/>
<path transform="matrix(1,0,0,-1,0,363.90263)" stroke-width=".8" stroke-linecap="square" stroke-miterlimit="10" stroke-linejoin="miter" fill="none" stroke="#000000" d="M59.48125 316.2495H416.60127"/>
<text xml:space="preserve" transform="matrix(1 0 -0 1 30.720938 41.653108)" font-size="20" font-family="DejaVuSans"><tspan y="0" x="0 13.96 26.64 38.9 51.58 64.26 76.560009 82.12 88.48 101.200008 107.560009 115.34251 127.64251 138.06252 150.76251 163.00252 175.68253 186.10253 198.40253 204.76253 210.66252 223.36252 237.26251 243.62252 249.98252 261.59315 267.15315 286.63316 298.93315 305.29316 317.99317 323.55317 336.23316 342.59315 359.35316 365.71315 378.43315 384.79316 404.27317">Channel 1 response ISR, Time bin = 2 ms</tspan></text>
<g>
<path transform="matrix(1,0,0,-1,0,363.90263)" d="M523.3812 275.7964H764.9125C768.24588 275.7964 769.9125 277.46305 769.9125 280.7964V351.70265C769.9125 355.03596 768.24588 356.70265 764.9125 356.70265H523.3812C520.0479 356.70265 518.3812 355.03596 518.3812 351.70265V280.7964C518.3812 277.46305 520.0479 275.7964 523.3812 275.7964Z" fill="#ffffff" fill-opacity=".8"/>
<path transform="matrix(1,0,0,-1,0,363.90263)" stroke-width="1" stroke-linecap="butt" stroke-miterlimit="10" stroke-linejoin="miter" fill="none" stroke="#d5d6d5" stroke-opacity=".8" d="M523.3812 275.7964H764.9125C768.24588 275.7964 769.9125 277.46305 769.9125 280.7964V351.70265C769.9125 355.03596 768.24588 356.70265 764.9125 356.70265H523.3812C520.0479 356.70265 518.3812 355.03596 518.3812 351.70265V280.7964C518.3812 277.46305 520.0479 275.7964 523.3812 275.7964Z"/>
</g>
<path transform="matrix(1,0,0,-1,0,363.90263)" stroke-width=".5" stroke-linecap="butt" stroke-dasharray="1.85,.8" stroke-linejoin="round" fill="none" stroke="#0000ff" d="M528.3812 336.45265H553.3812 578.3812"/>
<path transform="matrix(1,0,0,-1,0,363.90263)" d="M553.3812 333.45265C554.1769 333.45265 554.94 333.76875 555.50259 334.3313 556.0651 334.8939 556.3812 335.657 556.3812 336.45265 556.3812 337.24824 556.0651 338.01136 555.50259 338.57395 554.94 339.13655 554.1769 339.45265 553.3812 339.45265 552.58566 339.45265 551.8225 339.13655 551.25997 338.57395 550.6973 338.01136 550.3812 337.24824 550.3812 336.45265 550.3812 335.657 550.6973 334.8939 551.25997 334.3313 551.8225 333.76875 552.58566 333.45265 553.3812 333.45265Z" fill="#0000ff"/>
<path transform="matrix(1,0,0,-1,0,363.90263)" stroke-width="1" stroke-linecap="butt" stroke-linejoin="round" fill="none" stroke="#0000ff" d="M553.3812 333.45265C554.1769 333.45265 554.94 333.76875 555.50259 334.3313 556.0651 334.8939 556.3812 335.657 556.3812 336.45265 556.3812 337.24824 556.0651 338.01136 555.50259 338.57395 554.94 339.13655 554.1769 339.45265 553.3812 339.45265 552.58566 339.45265 551.8225 339.13655 551.25997 338.57395 550.6973 338.01136 550.3812 337.24824 550.3812 336.45265 550.3812 335.657 550.6973 334.8939 551.25997 334.3313 551.8225 333.76875 552.58566 333.45265 553.3812 333.45265Z"/>
<text xml:space="preserve" transform="matrix(1 0 -0 1 598.3812 36.19998)" font-size="25" font-family="DejaVuSans"><tspan y="0" x="0 19.375 29.103127 44.40313 60.253129 76.10313 91.97813 99.92812 109.72813 120.00313 135.85314 145.65314">Ground truth</tspan></text>
<path transform="matrix(1,0,0,-1,0,363.90263)" stroke-width=".5" stroke-linecap="butt" stroke-linejoin="round" fill="none" stroke="#ff0000" d="M553.3812 287.2495V312.2495"/>
<path transform="matrix(1,0,0,-1,0,363.90263)" stroke-width=".5" stroke-linecap="butt" stroke-dasharray="1.85,.8" stroke-linejoin="round" fill="none" stroke="#ff0000" d="M528.3812 299.7495H578.3812"/>
<path transform="matrix(1,0,0,-1,0,363.90263)" d="M553.3812 296.7495C554.1769 296.7495 554.94 297.0656 555.50259 297.62818 556.0651 298.19078 556.3812 298.9539 556.3812 299.7495 556.3812 300.5451 556.0651 301.30824 555.50259 301.87083 554.94 302.4334 554.1769 302.7495 553.3812 302.7495 552.58566 302.7495 551.8225 302.4334 551.25997 301.87083 550.6973 301.30824 550.3812 300.5451 550.3812 299.7495 550.3812 298.9539 550.6973 298.19078 551.25997 297.62818 551.8225 297.0656 552.58566 296.7495 553.3812 296.7495Z" fill="#ff0000"/>
<path transform="matrix(1,0,0,-1,0,363.90263)" stroke-width="1" stroke-linecap="butt" stroke-linejoin="round" fill="none" stroke="#ff0000" d="M553.3812 296.7495C554.1769 296.7495 554.94 297.0656 555.50259 297.62818 556.0651 298.19078 556.3812 298.9539 556.3812 299.7495 556.3812 300.5451 556.0651 301.30824 555.50259 301.87083 554.94 302.4334 554.1769 302.7495 553.3812 302.7495 552.58566 302.7495 551.8225 302.4334 551.25997 301.87083 550.6973 301.30824 550.3812 300.5451 550.3812 299.7495 550.3812 298.9539 550.6973 298.19078 551.25997 297.62818 551.8225 297.0656 552.58566 296.7495 553.3812 296.7495Z"/>
<text xml:space="preserve" transform="matrix(1 0 -0 1 598.3812 72.90311)" font-size="25" font-family="DejaVuSans"><tspan y="0" x="0 14.637501 24.365628 39.740629 55.615629 62.565629 76.31563 86.11563 93.06563 108.36563">Prediction</tspan></text>
</svg>
